%TF.GenerationSoftware,KiCad,Pcbnew,10.0.0*%
%TF.CreationDate,2026-04-01T08:10:01+07:00*%
%TF.ProjectId,expression faders,65787072-6573-4736-996f-6e2066616465,rev?*%
%TF.SameCoordinates,Original*%
%TF.FileFunction,Soldermask,Bot*%
%TF.FilePolarity,Negative*%
%FSLAX46Y46*%
G04 Gerber Fmt 4.6, Leading zero omitted, Abs format (unit mm)*
G04 Created by KiCad (PCBNEW 10.0.0) date 2026-04-01 08:10:01*
%MOMM*%
%LPD*%
G01*
G04 APERTURE LIST*
G04 Aperture macros list*
%AMRoundRect*
0 Rectangle with rounded corners*
0 $1 Rounding radius*
0 $2 $3 $4 $5 $6 $7 $8 $9 X,Y pos of 4 corners*
0 Add a 4 corners polygon primitive as box body*
4,1,4,$2,$3,$4,$5,$6,$7,$8,$9,$2,$3,0*
0 Add four circle primitives for the rounded corners*
1,1,$1+$1,$2,$3*
1,1,$1+$1,$4,$5*
1,1,$1+$1,$6,$7*
1,1,$1+$1,$8,$9*
0 Add four rect primitives between the rounded corners*
20,1,$1+$1,$2,$3,$4,$5,0*
20,1,$1+$1,$4,$5,$6,$7,0*
20,1,$1+$1,$6,$7,$8,$9,0*
20,1,$1+$1,$8,$9,$2,$3,0*%
G04 Aperture macros list end*
%ADD10R,2.250000X2.250000*%
%ADD11C,2.250000*%
%ADD12C,3.000000*%
%ADD13R,3.500000X1.700000*%
%ADD14O,3.600000X1.700000*%
%ADD15O,3.700000X1.700000*%
%ADD16R,2.000000X2.000000*%
%ADD17C,2.000000*%
%ADD18R,3.200000X2.000000*%
%ADD19RoundRect,0.250000X0.250000X0.475000X-0.250000X0.475000X-0.250000X-0.475000X0.250000X-0.475000X0*%
%ADD20RoundRect,0.250000X-0.250000X-0.475000X0.250000X-0.475000X0.250000X0.475000X-0.250000X0.475000X0*%
G04 APERTURE END LIST*
D10*
%TO.C,VR1*%
X157800000Y-175250000D03*
D11*
X154000000Y-175250000D03*
X157800000Y-47750000D03*
D12*
X158750000Y-155200000D03*
X158750000Y-72700000D03*
%TD*%
D13*
%TO.C,U1*%
X175125000Y-31630000D03*
D14*
X175125000Y-34170000D03*
X175125000Y-36710000D03*
X175125000Y-39250000D03*
X175125000Y-41790000D03*
X175125000Y-44330000D03*
X175125000Y-46870000D03*
X192375000Y-46870000D03*
X192375000Y-44330000D03*
X192375000Y-41790000D03*
D15*
X192375000Y-39250000D03*
X192375000Y-36710000D03*
X192375000Y-34170000D03*
X192375000Y-31630000D03*
%TD*%
D16*
%TO.C,SW2*%
X151300000Y-36000000D03*
D17*
X151300000Y-41000000D03*
X151300000Y-38500000D03*
D18*
X158800000Y-32900000D03*
X158800000Y-44100000D03*
D17*
X165800000Y-41000000D03*
X165800000Y-36000000D03*
%TD*%
D10*
%TO.C,VR2*%
X132800000Y-175250000D03*
D11*
X129000000Y-175250000D03*
X132800000Y-47750000D03*
D12*
X133750000Y-155200000D03*
X133750000Y-72700000D03*
%TD*%
D16*
%TO.C,SW1*%
X126300000Y-36000000D03*
D17*
X126300000Y-41000000D03*
X126300000Y-38500000D03*
D18*
X133800000Y-32900000D03*
X133800000Y-44100000D03*
D17*
X140800000Y-41000000D03*
X140800000Y-36000000D03*
%TD*%
D19*
%TO.C,C2*%
X184700000Y-35000000D03*
X182800000Y-35000000D03*
%TD*%
%TO.C,C3*%
X184700000Y-31500000D03*
X182800000Y-31500000D03*
%TD*%
D20*
%TO.C,C1*%
X182800000Y-38620000D03*
X184700000Y-38620000D03*
%TD*%
M02*
