M48
; DRILL file KiCad 10.0.0 date 2026-04-01T08:09:19
; FORMAT={-:-/ absolute / metric / decimal}
; #@! TF.CreationDate,2026-04-01T08:09:19+07:00
; #@! TF.GenerationSoftware,Kicad,Pcbnew,10.0.0
; #@! TF.FileFunction,Plated,1,2,PTH
FMAT,2
METRIC
; #@! TA.AperFunction,Plated,PTH,ViaDrill
T1C0.300
; #@! TA.AperFunction,Plated,PTH,ComponentDrill
T2C1.000
; #@! TA.AperFunction,Plated,PTH,ComponentDrill
T3C1.500
; #@! TA.AperFunction,Plated,PTH,ComponentDrill
T4C2.000
%
G90
G05
T1
X168.5Y-36.75
T2
X126.3Y-36.0
X126.3Y-38.5
X126.3Y-41.0
X140.8Y-36.0
X140.8Y-41.0
X151.3Y-36.0
X151.3Y-38.5
X151.3Y-41.0
X165.8Y-36.0
X165.8Y-41.0
X176.125Y-31.63
X176.125Y-34.17
X176.125Y-36.71
X176.125Y-39.25
X176.125Y-41.79
X176.125Y-44.33
X176.125Y-46.87
X191.375Y-31.63
X191.375Y-34.17
X191.375Y-36.71
X191.375Y-39.25
X191.375Y-41.79
X191.375Y-44.33
X191.375Y-46.87
T3
X129.0Y-175.25
X132.8Y-47.75
X132.8Y-175.25
X154.0Y-175.25
X157.8Y-47.75
X157.8Y-175.25
T4
X133.75Y-72.7
X133.75Y-155.2
X158.75Y-72.7
X158.75Y-155.2
T3
G00X133.15Y-32.9
M15
G01X134.45Y-32.9
M16
G05
G00X133.15Y-44.1
M15
G01X134.45Y-44.1
M16
G05
G00X158.15Y-32.9
M15
G01X159.45Y-32.9
M16
G05
G00X158.15Y-44.1
M15
G01X159.45Y-44.1
M16
G05
M30
