%TF.GenerationSoftware,KiCad,Pcbnew,10.0.0*%
%TF.CreationDate,2026-04-01T08:10:01+07:00*%
%TF.ProjectId,expression faders,65787072-6573-4736-996f-6e2066616465,rev?*%
%TF.SameCoordinates,Original*%
%TF.FileFunction,Legend,Top*%
%TF.FilePolarity,Positive*%
%FSLAX46Y46*%
G04 Gerber Fmt 4.6, Leading zero omitted, Abs format (unit mm)*
G04 Created by KiCad (PCBNEW 10.0.0) date 2026-04-01 08:10:01*
%MOMM*%
%LPD*%
G01*
G04 APERTURE LIST*
%ADD10C,0.254000*%
%ADD11C,0.101600*%
%ADD12C,0.150000*%
%ADD13C,0.200000*%
%ADD14C,0.100000*%
%ADD15C,0.000000*%
%ADD16C,0.127000*%
%ADD17C,0.120000*%
%ADD18C,0.025400*%
G04 APERTURE END LIST*
D10*
X158029318Y-113163094D02*
X159299318Y-112739761D01*
X159299318Y-112739761D02*
X158029318Y-112316427D01*
X159299318Y-111167380D02*
X158694556Y-111590714D01*
X159299318Y-111893095D02*
X158029318Y-111893095D01*
X158029318Y-111893095D02*
X158029318Y-111409285D01*
X158029318Y-111409285D02*
X158089794Y-111288333D01*
X158089794Y-111288333D02*
X158150270Y-111227856D01*
X158150270Y-111227856D02*
X158271222Y-111167380D01*
X158271222Y-111167380D02*
X158452651Y-111167380D01*
X158452651Y-111167380D02*
X158573603Y-111227856D01*
X158573603Y-111227856D02*
X158634080Y-111288333D01*
X158634080Y-111288333D02*
X158694556Y-111409285D01*
X158694556Y-111409285D02*
X158694556Y-111893095D01*
X159299318Y-109957856D02*
X159299318Y-110683571D01*
X159299318Y-110320714D02*
X158029318Y-110320714D01*
X158029318Y-110320714D02*
X158210746Y-110441666D01*
X158210746Y-110441666D02*
X158331699Y-110562618D01*
X158331699Y-110562618D02*
X158392175Y-110683571D01*
D11*
X183072666Y-41306985D02*
X183072666Y-42026652D01*
X183072666Y-42026652D02*
X183115000Y-42111318D01*
X183115000Y-42111318D02*
X183157333Y-42153652D01*
X183157333Y-42153652D02*
X183242000Y-42195985D01*
X183242000Y-42195985D02*
X183411333Y-42195985D01*
X183411333Y-42195985D02*
X183496000Y-42153652D01*
X183496000Y-42153652D02*
X183538333Y-42111318D01*
X183538333Y-42111318D02*
X183580666Y-42026652D01*
X183580666Y-42026652D02*
X183580666Y-41306985D01*
X184469666Y-42195985D02*
X183961666Y-42195985D01*
X184215666Y-42195985D02*
X184215666Y-41306985D01*
X184215666Y-41306985D02*
X184130999Y-41433985D01*
X184130999Y-41433985D02*
X184046333Y-41518652D01*
X184046333Y-41518652D02*
X183961666Y-41560985D01*
D12*
X178988095Y-38157200D02*
X179130952Y-38204819D01*
X179130952Y-38204819D02*
X179369047Y-38204819D01*
X179369047Y-38204819D02*
X179464285Y-38157200D01*
X179464285Y-38157200D02*
X179511904Y-38109580D01*
X179511904Y-38109580D02*
X179559523Y-38014342D01*
X179559523Y-38014342D02*
X179559523Y-37919104D01*
X179559523Y-37919104D02*
X179511904Y-37823866D01*
X179511904Y-37823866D02*
X179464285Y-37776247D01*
X179464285Y-37776247D02*
X179369047Y-37728628D01*
X179369047Y-37728628D02*
X179178571Y-37681009D01*
X179178571Y-37681009D02*
X179083333Y-37633390D01*
X179083333Y-37633390D02*
X179035714Y-37585771D01*
X179035714Y-37585771D02*
X178988095Y-37490533D01*
X178988095Y-37490533D02*
X178988095Y-37395295D01*
X178988095Y-37395295D02*
X179035714Y-37300057D01*
X179035714Y-37300057D02*
X179083333Y-37252438D01*
X179083333Y-37252438D02*
X179178571Y-37204819D01*
X179178571Y-37204819D02*
X179416666Y-37204819D01*
X179416666Y-37204819D02*
X179559523Y-37252438D01*
X180369047Y-38157200D02*
X180273809Y-38204819D01*
X180273809Y-38204819D02*
X180083333Y-38204819D01*
X180083333Y-38204819D02*
X179988095Y-38157200D01*
X179988095Y-38157200D02*
X179940476Y-38061961D01*
X179940476Y-38061961D02*
X179940476Y-37681009D01*
X179940476Y-37681009D02*
X179988095Y-37585771D01*
X179988095Y-37585771D02*
X180083333Y-37538152D01*
X180083333Y-37538152D02*
X180273809Y-37538152D01*
X180273809Y-37538152D02*
X180369047Y-37585771D01*
X180369047Y-37585771D02*
X180416666Y-37681009D01*
X180416666Y-37681009D02*
X180416666Y-37776247D01*
X180416666Y-37776247D02*
X179940476Y-37871485D01*
X181226190Y-38157200D02*
X181130952Y-38204819D01*
X181130952Y-38204819D02*
X180940476Y-38204819D01*
X180940476Y-38204819D02*
X180845238Y-38157200D01*
X180845238Y-38157200D02*
X180797619Y-38061961D01*
X180797619Y-38061961D02*
X180797619Y-37681009D01*
X180797619Y-37681009D02*
X180845238Y-37585771D01*
X180845238Y-37585771D02*
X180940476Y-37538152D01*
X180940476Y-37538152D02*
X181130952Y-37538152D01*
X181130952Y-37538152D02*
X181226190Y-37585771D01*
X181226190Y-37585771D02*
X181273809Y-37681009D01*
X181273809Y-37681009D02*
X181273809Y-37776247D01*
X181273809Y-37776247D02*
X180797619Y-37871485D01*
X182083333Y-38157200D02*
X181988095Y-38204819D01*
X181988095Y-38204819D02*
X181797619Y-38204819D01*
X181797619Y-38204819D02*
X181702381Y-38157200D01*
X181702381Y-38157200D02*
X181654762Y-38061961D01*
X181654762Y-38061961D02*
X181654762Y-37681009D01*
X181654762Y-37681009D02*
X181702381Y-37585771D01*
X181702381Y-37585771D02*
X181797619Y-37538152D01*
X181797619Y-37538152D02*
X181988095Y-37538152D01*
X181988095Y-37538152D02*
X182083333Y-37585771D01*
X182083333Y-37585771D02*
X182130952Y-37681009D01*
X182130952Y-37681009D02*
X182130952Y-37776247D01*
X182130952Y-37776247D02*
X181654762Y-37871485D01*
X182988095Y-38204819D02*
X182988095Y-37204819D01*
X182988095Y-38157200D02*
X182892857Y-38204819D01*
X182892857Y-38204819D02*
X182702381Y-38204819D01*
X182702381Y-38204819D02*
X182607143Y-38157200D01*
X182607143Y-38157200D02*
X182559524Y-38109580D01*
X182559524Y-38109580D02*
X182511905Y-38014342D01*
X182511905Y-38014342D02*
X182511905Y-37728628D01*
X182511905Y-37728628D02*
X182559524Y-37633390D01*
X182559524Y-37633390D02*
X182607143Y-37585771D01*
X182607143Y-37585771D02*
X182702381Y-37538152D01*
X182702381Y-37538152D02*
X182892857Y-37538152D01*
X182892857Y-37538152D02*
X182988095Y-37585771D01*
X184178572Y-38157200D02*
X184321429Y-38204819D01*
X184321429Y-38204819D02*
X184559524Y-38204819D01*
X184559524Y-38204819D02*
X184654762Y-38157200D01*
X184654762Y-38157200D02*
X184702381Y-38109580D01*
X184702381Y-38109580D02*
X184750000Y-38014342D01*
X184750000Y-38014342D02*
X184750000Y-37919104D01*
X184750000Y-37919104D02*
X184702381Y-37823866D01*
X184702381Y-37823866D02*
X184654762Y-37776247D01*
X184654762Y-37776247D02*
X184559524Y-37728628D01*
X184559524Y-37728628D02*
X184369048Y-37681009D01*
X184369048Y-37681009D02*
X184273810Y-37633390D01*
X184273810Y-37633390D02*
X184226191Y-37585771D01*
X184226191Y-37585771D02*
X184178572Y-37490533D01*
X184178572Y-37490533D02*
X184178572Y-37395295D01*
X184178572Y-37395295D02*
X184226191Y-37300057D01*
X184226191Y-37300057D02*
X184273810Y-37252438D01*
X184273810Y-37252438D02*
X184369048Y-37204819D01*
X184369048Y-37204819D02*
X184607143Y-37204819D01*
X184607143Y-37204819D02*
X184750000Y-37252438D01*
X185035715Y-37538152D02*
X185416667Y-37538152D01*
X185178572Y-37204819D02*
X185178572Y-38061961D01*
X185178572Y-38061961D02*
X185226191Y-38157200D01*
X185226191Y-38157200D02*
X185321429Y-38204819D01*
X185321429Y-38204819D02*
X185416667Y-38204819D01*
X186178572Y-37538152D02*
X186178572Y-38204819D01*
X185750001Y-37538152D02*
X185750001Y-38061961D01*
X185750001Y-38061961D02*
X185797620Y-38157200D01*
X185797620Y-38157200D02*
X185892858Y-38204819D01*
X185892858Y-38204819D02*
X186035715Y-38204819D01*
X186035715Y-38204819D02*
X186130953Y-38157200D01*
X186130953Y-38157200D02*
X186178572Y-38109580D01*
X187083334Y-38204819D02*
X187083334Y-37204819D01*
X187083334Y-38157200D02*
X186988096Y-38204819D01*
X186988096Y-38204819D02*
X186797620Y-38204819D01*
X186797620Y-38204819D02*
X186702382Y-38157200D01*
X186702382Y-38157200D02*
X186654763Y-38109580D01*
X186654763Y-38109580D02*
X186607144Y-38014342D01*
X186607144Y-38014342D02*
X186607144Y-37728628D01*
X186607144Y-37728628D02*
X186654763Y-37633390D01*
X186654763Y-37633390D02*
X186702382Y-37585771D01*
X186702382Y-37585771D02*
X186797620Y-37538152D01*
X186797620Y-37538152D02*
X186988096Y-37538152D01*
X186988096Y-37538152D02*
X187083334Y-37585771D01*
X187559525Y-38204819D02*
X187559525Y-37538152D01*
X187559525Y-37204819D02*
X187511906Y-37252438D01*
X187511906Y-37252438D02*
X187559525Y-37300057D01*
X187559525Y-37300057D02*
X187607144Y-37252438D01*
X187607144Y-37252438D02*
X187559525Y-37204819D01*
X187559525Y-37204819D02*
X187559525Y-37300057D01*
X188178572Y-38204819D02*
X188083334Y-38157200D01*
X188083334Y-38157200D02*
X188035715Y-38109580D01*
X188035715Y-38109580D02*
X187988096Y-38014342D01*
X187988096Y-38014342D02*
X187988096Y-37728628D01*
X187988096Y-37728628D02*
X188035715Y-37633390D01*
X188035715Y-37633390D02*
X188083334Y-37585771D01*
X188083334Y-37585771D02*
X188178572Y-37538152D01*
X188178572Y-37538152D02*
X188321429Y-37538152D01*
X188321429Y-37538152D02*
X188416667Y-37585771D01*
X188416667Y-37585771D02*
X188464286Y-37633390D01*
X188464286Y-37633390D02*
X188511905Y-37728628D01*
X188511905Y-37728628D02*
X188511905Y-38014342D01*
X188511905Y-38014342D02*
X188464286Y-38109580D01*
X188464286Y-38109580D02*
X188416667Y-38157200D01*
X188416667Y-38157200D02*
X188321429Y-38204819D01*
X188321429Y-38204819D02*
X188178572Y-38204819D01*
X182226191Y-39204819D02*
X182892857Y-40204819D01*
X182892857Y-39204819D02*
X182226191Y-40204819D01*
X183273810Y-40204819D02*
X183273810Y-39204819D01*
X183702381Y-39919104D02*
X184178571Y-39919104D01*
X183607143Y-40204819D02*
X183940476Y-39204819D01*
X183940476Y-39204819D02*
X184273809Y-40204819D01*
X184797619Y-39204819D02*
X184988095Y-39204819D01*
X184988095Y-39204819D02*
X185083333Y-39252438D01*
X185083333Y-39252438D02*
X185178571Y-39347676D01*
X185178571Y-39347676D02*
X185226190Y-39538152D01*
X185226190Y-39538152D02*
X185226190Y-39871485D01*
X185226190Y-39871485D02*
X185178571Y-40061961D01*
X185178571Y-40061961D02*
X185083333Y-40157200D01*
X185083333Y-40157200D02*
X184988095Y-40204819D01*
X184988095Y-40204819D02*
X184797619Y-40204819D01*
X184797619Y-40204819D02*
X184702381Y-40157200D01*
X184702381Y-40157200D02*
X184607143Y-40061961D01*
X184607143Y-40061961D02*
X184559524Y-39871485D01*
X184559524Y-39871485D02*
X184559524Y-39538152D01*
X184559524Y-39538152D02*
X184607143Y-39347676D01*
X184607143Y-39347676D02*
X184702381Y-39252438D01*
X184702381Y-39252438D02*
X184797619Y-39204819D01*
X152766667Y-31707200D02*
X152909524Y-31754819D01*
X152909524Y-31754819D02*
X153147619Y-31754819D01*
X153147619Y-31754819D02*
X153242857Y-31707200D01*
X153242857Y-31707200D02*
X153290476Y-31659580D01*
X153290476Y-31659580D02*
X153338095Y-31564342D01*
X153338095Y-31564342D02*
X153338095Y-31469104D01*
X153338095Y-31469104D02*
X153290476Y-31373866D01*
X153290476Y-31373866D02*
X153242857Y-31326247D01*
X153242857Y-31326247D02*
X153147619Y-31278628D01*
X153147619Y-31278628D02*
X152957143Y-31231009D01*
X152957143Y-31231009D02*
X152861905Y-31183390D01*
X152861905Y-31183390D02*
X152814286Y-31135771D01*
X152814286Y-31135771D02*
X152766667Y-31040533D01*
X152766667Y-31040533D02*
X152766667Y-30945295D01*
X152766667Y-30945295D02*
X152814286Y-30850057D01*
X152814286Y-30850057D02*
X152861905Y-30802438D01*
X152861905Y-30802438D02*
X152957143Y-30754819D01*
X152957143Y-30754819D02*
X153195238Y-30754819D01*
X153195238Y-30754819D02*
X153338095Y-30802438D01*
X153671429Y-30754819D02*
X153909524Y-31754819D01*
X153909524Y-31754819D02*
X154100000Y-31040533D01*
X154100000Y-31040533D02*
X154290476Y-31754819D01*
X154290476Y-31754819D02*
X154528572Y-30754819D01*
X154861905Y-30850057D02*
X154909524Y-30802438D01*
X154909524Y-30802438D02*
X155004762Y-30754819D01*
X155004762Y-30754819D02*
X155242857Y-30754819D01*
X155242857Y-30754819D02*
X155338095Y-30802438D01*
X155338095Y-30802438D02*
X155385714Y-30850057D01*
X155385714Y-30850057D02*
X155433333Y-30945295D01*
X155433333Y-30945295D02*
X155433333Y-31040533D01*
X155433333Y-31040533D02*
X155385714Y-31183390D01*
X155385714Y-31183390D02*
X154814286Y-31754819D01*
X154814286Y-31754819D02*
X155433333Y-31754819D01*
D10*
X133029318Y-113163094D02*
X134299318Y-112739761D01*
X134299318Y-112739761D02*
X133029318Y-112316427D01*
X134299318Y-111167380D02*
X133694556Y-111590714D01*
X134299318Y-111893095D02*
X133029318Y-111893095D01*
X133029318Y-111893095D02*
X133029318Y-111409285D01*
X133029318Y-111409285D02*
X133089794Y-111288333D01*
X133089794Y-111288333D02*
X133150270Y-111227856D01*
X133150270Y-111227856D02*
X133271222Y-111167380D01*
X133271222Y-111167380D02*
X133452651Y-111167380D01*
X133452651Y-111167380D02*
X133573603Y-111227856D01*
X133573603Y-111227856D02*
X133634080Y-111288333D01*
X133634080Y-111288333D02*
X133694556Y-111409285D01*
X133694556Y-111409285D02*
X133694556Y-111893095D01*
X133150270Y-110683571D02*
X133089794Y-110623095D01*
X133089794Y-110623095D02*
X133029318Y-110502142D01*
X133029318Y-110502142D02*
X133029318Y-110199761D01*
X133029318Y-110199761D02*
X133089794Y-110078809D01*
X133089794Y-110078809D02*
X133150270Y-110018333D01*
X133150270Y-110018333D02*
X133271222Y-109957856D01*
X133271222Y-109957856D02*
X133392175Y-109957856D01*
X133392175Y-109957856D02*
X133573603Y-110018333D01*
X133573603Y-110018333D02*
X134299318Y-110744047D01*
X134299318Y-110744047D02*
X134299318Y-109957856D01*
D12*
X127766667Y-31707200D02*
X127909524Y-31754819D01*
X127909524Y-31754819D02*
X128147619Y-31754819D01*
X128147619Y-31754819D02*
X128242857Y-31707200D01*
X128242857Y-31707200D02*
X128290476Y-31659580D01*
X128290476Y-31659580D02*
X128338095Y-31564342D01*
X128338095Y-31564342D02*
X128338095Y-31469104D01*
X128338095Y-31469104D02*
X128290476Y-31373866D01*
X128290476Y-31373866D02*
X128242857Y-31326247D01*
X128242857Y-31326247D02*
X128147619Y-31278628D01*
X128147619Y-31278628D02*
X127957143Y-31231009D01*
X127957143Y-31231009D02*
X127861905Y-31183390D01*
X127861905Y-31183390D02*
X127814286Y-31135771D01*
X127814286Y-31135771D02*
X127766667Y-31040533D01*
X127766667Y-31040533D02*
X127766667Y-30945295D01*
X127766667Y-30945295D02*
X127814286Y-30850057D01*
X127814286Y-30850057D02*
X127861905Y-30802438D01*
X127861905Y-30802438D02*
X127957143Y-30754819D01*
X127957143Y-30754819D02*
X128195238Y-30754819D01*
X128195238Y-30754819D02*
X128338095Y-30802438D01*
X128671429Y-30754819D02*
X128909524Y-31754819D01*
X128909524Y-31754819D02*
X129100000Y-31040533D01*
X129100000Y-31040533D02*
X129290476Y-31754819D01*
X129290476Y-31754819D02*
X129528572Y-30754819D01*
X130433333Y-31754819D02*
X129861905Y-31754819D01*
X130147619Y-31754819D02*
X130147619Y-30754819D01*
X130147619Y-30754819D02*
X130052381Y-30897676D01*
X130052381Y-30897676D02*
X129957143Y-30992914D01*
X129957143Y-30992914D02*
X129861905Y-31040533D01*
%TO.C,VR1*%
D13*
X151200000Y-175500000D02*
X152300000Y-175500000D01*
X151250000Y-47500000D02*
X151200000Y-175500000D01*
X156000000Y-47500000D02*
X151250000Y-47500000D01*
D14*
D15*
X157800000Y-176800000D02*
X157799999Y-176800000D01*
X157799999Y-176800000D01*
X157799999Y-176800000D01*
X157799999Y-176800000D01*
X157799999Y-176800000D01*
X157799999Y-176800000D01*
X157799999Y-176800000D01*
X157799999Y-176799999D01*
X157799999Y-176799999D01*
X157799999Y-176799999D01*
X157799999Y-176799999D01*
X157799999Y-176799999D01*
X157800000Y-176799999D01*
X157800000Y-176799999D01*
X157800000Y-176799999D01*
X157800000Y-176799999D01*
X157800000Y-176799999D01*
X157800000Y-176799999D01*
X157800000Y-176799999D01*
X157800000Y-176799999D01*
X157800000Y-176799999D01*
X157800000Y-176799999D01*
X157800000Y-176799999D01*
X157800000Y-176799999D01*
X157800001Y-176799999D01*
X157800001Y-176799999D01*
X157800001Y-176799999D01*
X157800001Y-176799999D01*
X157800001Y-176799999D01*
X157800001Y-176799999D01*
X157800001Y-176800000D01*
X157800001Y-176800000D01*
X157800001Y-176800000D01*
X157800001Y-176800000D01*
X157800001Y-176800000D01*
X157800001Y-176800000D01*
X157800001Y-176800000D01*
X157800000Y-176800000D01*
X157800000Y-176800000D02*
X157800001Y-176800000D01*
X157800001Y-176800000D01*
X157800001Y-176800000D01*
X157800001Y-176800000D01*
X157800001Y-176800000D01*
X157800001Y-176800000D01*
X157800001Y-176800001D01*
X157800001Y-176800001D01*
X157800001Y-176800001D01*
X157800001Y-176800001D01*
X157800001Y-176800001D01*
X157800001Y-176800001D01*
X157800001Y-176800001D01*
X157800000Y-176800001D01*
X157800000Y-176800001D01*
X157800000Y-176800001D01*
X157800000Y-176800001D01*
X157800000Y-176800001D01*
X157800000Y-176800001D01*
X157800000Y-176800001D01*
X157800000Y-176800001D01*
X157800000Y-176800001D01*
X157800000Y-176800001D01*
X157800000Y-176800001D01*
X157800000Y-176800001D01*
X157799999Y-176800001D01*
X157799999Y-176800001D01*
X157799999Y-176800001D01*
X157799999Y-176800001D01*
X157799999Y-176800001D01*
X157799999Y-176800001D01*
X157799999Y-176800000D01*
X157799999Y-176800000D01*
X157799999Y-176800000D01*
X157799999Y-176800000D01*
X157799999Y-176800000D01*
X157799999Y-176800000D01*
X157800000Y-176800000D01*
D14*
D15*
X157800000Y-176900000D02*
X157799999Y-176900000D01*
X157799999Y-176900000D01*
X157799999Y-176900000D01*
X157799999Y-176900000D01*
X157799999Y-176900000D01*
X157799999Y-176900000D01*
X157799999Y-176900000D01*
X157799999Y-176899999D01*
X157799999Y-176899999D01*
X157799999Y-176899999D01*
X157799999Y-176899999D01*
X157799999Y-176899999D01*
X157800000Y-176899999D01*
X157800000Y-176899999D01*
X157800000Y-176899999D01*
X157800000Y-176899999D01*
X157800000Y-176899999D01*
X157800000Y-176899999D01*
X157800000Y-176899999D01*
X157800000Y-176899999D01*
X157800000Y-176899999D01*
X157800000Y-176899999D01*
X157800000Y-176899999D01*
X157800000Y-176899999D01*
X157800001Y-176899999D01*
X157800001Y-176899999D01*
X157800001Y-176899999D01*
X157800001Y-176899999D01*
X157800001Y-176899999D01*
X157800001Y-176899999D01*
X157800001Y-176900000D01*
X157800001Y-176900000D01*
X157800001Y-176900000D01*
X157800001Y-176900000D01*
X157800001Y-176900000D01*
X157800001Y-176900000D01*
X157800001Y-176900000D01*
X157800000Y-176900000D01*
X157800000Y-176900000D02*
X157800001Y-176900000D01*
X157800001Y-176900000D01*
X157800001Y-176900000D01*
X157800001Y-176900000D01*
X157800001Y-176900000D01*
X157800001Y-176900000D01*
X157800001Y-176900001D01*
X157800001Y-176900001D01*
X157800001Y-176900001D01*
X157800001Y-176900001D01*
X157800001Y-176900001D01*
X157800001Y-176900001D01*
X157800001Y-176900001D01*
X157800000Y-176900001D01*
X157800000Y-176900001D01*
X157800000Y-176900001D01*
X157800000Y-176900001D01*
X157800000Y-176900001D01*
X157800000Y-176900001D01*
X157800000Y-176900001D01*
X157800000Y-176900001D01*
X157800000Y-176900001D01*
X157800000Y-176900001D01*
X157800000Y-176900001D01*
X157800000Y-176900001D01*
X157799999Y-176900001D01*
X157799999Y-176900001D01*
X157799999Y-176900001D01*
X157799999Y-176900001D01*
X157799999Y-176900001D01*
X157799999Y-176900001D01*
X157799999Y-176900000D01*
X157799999Y-176900000D01*
X157799999Y-176900000D01*
X157799999Y-176900000D01*
X157799999Y-176900000D01*
X157799999Y-176900000D01*
X157800000Y-176900000D01*
D13*
X159400000Y-175500000D02*
X166250000Y-175500000D01*
X166250000Y-47500000D02*
X159400000Y-47500000D01*
X166250000Y-175500000D02*
X166250000Y-47500000D01*
D14*
X157800000Y-176800000D02*
G75*
G02*
X157800000Y-176900000I0J-50000D01*
G01*
X157800000Y-176900000D02*
G75*
G02*
X157800000Y-176800000I0J50000D01*
G01*
%TO.C,U1*%
D16*
X174850000Y-30750000D02*
X174850000Y-47750000D01*
X176850000Y-49750000D02*
X190650000Y-49750000D01*
X179250000Y-27325970D02*
X188250000Y-27325970D01*
X179250000Y-34679270D02*
X179250000Y-27325970D01*
X188250000Y-27325970D02*
X188250000Y-34679270D01*
X188250000Y-34679270D02*
X179250000Y-34679270D01*
X190650000Y-28750910D02*
X176850000Y-28750910D01*
X192650000Y-47750000D02*
X192650000Y-30750000D01*
D17*
X174850000Y-30750000D02*
G75*
G02*
X176850000Y-28750000I2044612J-44612D01*
G01*
X176850000Y-49750000D02*
G75*
G02*
X174850000Y-47750000I44857J2044857D01*
G01*
X190650000Y-28750000D02*
G75*
G02*
X192650000Y-30750000I-44610J-2044610D01*
G01*
X192650000Y-47750000D02*
G75*
G02*
X190650000Y-49750000I-2000000J0D01*
G01*
D10*
X172877000Y-30450000D02*
G75*
G02*
X172623000Y-30450000I-127000J0D01*
G01*
X172623000Y-30450000D02*
G75*
G02*
X172877000Y-30450000I127000J0D01*
G01*
D18*
X174862285Y-30688295D02*
X174865333Y-30639527D01*
X174869397Y-30590506D01*
X174862285Y-30688295D01*
X192637713Y-47820850D02*
X192634665Y-47869618D01*
X192630601Y-47918639D01*
X192625268Y-47967407D01*
X192618664Y-48016175D01*
X192611044Y-48064690D01*
X192602153Y-48112950D01*
X192592248Y-48160955D01*
X192639492Y-47771574D01*
X192637713Y-47820850D01*
%TO.C,SW2*%
D17*
X151000000Y-34400000D02*
X151600000Y-34400000D01*
X151300000Y-34700000D02*
X151000000Y-34400000D01*
X151600000Y-34400000D02*
X151300000Y-34700000D01*
X152700000Y-32600000D02*
X152700000Y-44400000D01*
X156800000Y-32600000D02*
X152700000Y-32600000D01*
X156800000Y-44400000D02*
X152700000Y-44400000D01*
X158300000Y-38500000D02*
X159300000Y-38500000D01*
X158800000Y-38000000D02*
X158800000Y-39000000D01*
X160800000Y-32600000D02*
X164900000Y-32600000D01*
X164900000Y-32600000D02*
X164900000Y-35000000D01*
X164900000Y-37200000D02*
X164900000Y-39800000D01*
X164900000Y-42000000D02*
X164900000Y-44400000D01*
X164900000Y-44400000D02*
X160800000Y-44400000D01*
X161800000Y-38500000D02*
G75*
G02*
X155800000Y-38500000I-3000000J0D01*
G01*
X155800000Y-38500000D02*
G75*
G02*
X161800000Y-38500000I3000000J0D01*
G01*
%TO.C,VR2*%
D13*
X126200000Y-175500000D02*
X127300000Y-175500000D01*
X126250000Y-47500000D02*
X126200000Y-175500000D01*
X131000000Y-47500000D02*
X126250000Y-47500000D01*
D14*
D15*
X132800000Y-176800000D02*
X132799999Y-176800000D01*
X132799999Y-176800000D01*
X132799999Y-176800000D01*
X132799999Y-176800000D01*
X132799999Y-176800000D01*
X132799999Y-176800000D01*
X132799999Y-176800000D01*
X132799999Y-176799999D01*
X132799999Y-176799999D01*
X132799999Y-176799999D01*
X132799999Y-176799999D01*
X132799999Y-176799999D01*
X132800000Y-176799999D01*
X132800000Y-176799999D01*
X132800000Y-176799999D01*
X132800000Y-176799999D01*
X132800000Y-176799999D01*
X132800000Y-176799999D01*
X132800000Y-176799999D01*
X132800000Y-176799999D01*
X132800000Y-176799999D01*
X132800000Y-176799999D01*
X132800000Y-176799999D01*
X132800000Y-176799999D01*
X132800001Y-176799999D01*
X132800001Y-176799999D01*
X132800001Y-176799999D01*
X132800001Y-176799999D01*
X132800001Y-176799999D01*
X132800001Y-176799999D01*
X132800001Y-176800000D01*
X132800001Y-176800000D01*
X132800001Y-176800000D01*
X132800001Y-176800000D01*
X132800001Y-176800000D01*
X132800001Y-176800000D01*
X132800001Y-176800000D01*
X132800000Y-176800000D01*
X132800000Y-176800000D02*
X132800001Y-176800000D01*
X132800001Y-176800000D01*
X132800001Y-176800000D01*
X132800001Y-176800000D01*
X132800001Y-176800000D01*
X132800001Y-176800000D01*
X132800001Y-176800001D01*
X132800001Y-176800001D01*
X132800001Y-176800001D01*
X132800001Y-176800001D01*
X132800001Y-176800001D01*
X132800001Y-176800001D01*
X132800001Y-176800001D01*
X132800000Y-176800001D01*
X132800000Y-176800001D01*
X132800000Y-176800001D01*
X132800000Y-176800001D01*
X132800000Y-176800001D01*
X132800000Y-176800001D01*
X132800000Y-176800001D01*
X132800000Y-176800001D01*
X132800000Y-176800001D01*
X132800000Y-176800001D01*
X132800000Y-176800001D01*
X132800000Y-176800001D01*
X132799999Y-176800001D01*
X132799999Y-176800001D01*
X132799999Y-176800001D01*
X132799999Y-176800001D01*
X132799999Y-176800001D01*
X132799999Y-176800001D01*
X132799999Y-176800000D01*
X132799999Y-176800000D01*
X132799999Y-176800000D01*
X132799999Y-176800000D01*
X132799999Y-176800000D01*
X132799999Y-176800000D01*
X132800000Y-176800000D01*
D14*
D15*
X132800000Y-176900000D02*
X132799999Y-176900000D01*
X132799999Y-176900000D01*
X132799999Y-176900000D01*
X132799999Y-176900000D01*
X132799999Y-176900000D01*
X132799999Y-176900000D01*
X132799999Y-176900000D01*
X132799999Y-176899999D01*
X132799999Y-176899999D01*
X132799999Y-176899999D01*
X132799999Y-176899999D01*
X132799999Y-176899999D01*
X132800000Y-176899999D01*
X132800000Y-176899999D01*
X132800000Y-176899999D01*
X132800000Y-176899999D01*
X132800000Y-176899999D01*
X132800000Y-176899999D01*
X132800000Y-176899999D01*
X132800000Y-176899999D01*
X132800000Y-176899999D01*
X132800000Y-176899999D01*
X132800000Y-176899999D01*
X132800000Y-176899999D01*
X132800001Y-176899999D01*
X132800001Y-176899999D01*
X132800001Y-176899999D01*
X132800001Y-176899999D01*
X132800001Y-176899999D01*
X132800001Y-176899999D01*
X132800001Y-176900000D01*
X132800001Y-176900000D01*
X132800001Y-176900000D01*
X132800001Y-176900000D01*
X132800001Y-176900000D01*
X132800001Y-176900000D01*
X132800001Y-176900000D01*
X132800000Y-176900000D01*
X132800000Y-176900000D02*
X132800001Y-176900000D01*
X132800001Y-176900000D01*
X132800001Y-176900000D01*
X132800001Y-176900000D01*
X132800001Y-176900000D01*
X132800001Y-176900000D01*
X132800001Y-176900001D01*
X132800001Y-176900001D01*
X132800001Y-176900001D01*
X132800001Y-176900001D01*
X132800001Y-176900001D01*
X132800001Y-176900001D01*
X132800001Y-176900001D01*
X132800000Y-176900001D01*
X132800000Y-176900001D01*
X132800000Y-176900001D01*
X132800000Y-176900001D01*
X132800000Y-176900001D01*
X132800000Y-176900001D01*
X132800000Y-176900001D01*
X132800000Y-176900001D01*
X132800000Y-176900001D01*
X132800000Y-176900001D01*
X132800000Y-176900001D01*
X132800000Y-176900001D01*
X132799999Y-176900001D01*
X132799999Y-176900001D01*
X132799999Y-176900001D01*
X132799999Y-176900001D01*
X132799999Y-176900001D01*
X132799999Y-176900001D01*
X132799999Y-176900000D01*
X132799999Y-176900000D01*
X132799999Y-176900000D01*
X132799999Y-176900000D01*
X132799999Y-176900000D01*
X132799999Y-176900000D01*
X132800000Y-176900000D01*
D13*
X134400000Y-175500000D02*
X141250000Y-175500000D01*
X141250000Y-47500000D02*
X134400000Y-47500000D01*
X141250000Y-175500000D02*
X141250000Y-47500000D01*
D14*
X132800000Y-176800000D02*
G75*
G02*
X132800000Y-176900000I0J-50000D01*
G01*
X132800000Y-176900000D02*
G75*
G02*
X132800000Y-176800000I0J50000D01*
G01*
%TO.C,SW1*%
D17*
X126000000Y-34400000D02*
X126600000Y-34400000D01*
X126300000Y-34700000D02*
X126000000Y-34400000D01*
X126600000Y-34400000D02*
X126300000Y-34700000D01*
X127700000Y-32600000D02*
X127700000Y-44400000D01*
X131800000Y-32600000D02*
X127700000Y-32600000D01*
X131800000Y-44400000D02*
X127700000Y-44400000D01*
X133300000Y-38500000D02*
X134300000Y-38500000D01*
X133800000Y-38000000D02*
X133800000Y-39000000D01*
X135800000Y-32600000D02*
X139900000Y-32600000D01*
X139900000Y-32600000D02*
X139900000Y-35000000D01*
X139900000Y-37200000D02*
X139900000Y-39800000D01*
X139900000Y-42000000D02*
X139900000Y-44400000D01*
X139900000Y-44400000D02*
X135800000Y-44400000D01*
X136800000Y-38500000D02*
G75*
G02*
X130800000Y-38500000I-3000000J0D01*
G01*
X130800000Y-38500000D02*
G75*
G02*
X136800000Y-38500000I3000000J0D01*
G01*
%TD*%
M02*
