%TF.GenerationSoftware,KiCad,Pcbnew,10.0.0*%
%TF.CreationDate,2026-04-01T08:10:01+07:00*%
%TF.ProjectId,expression faders,65787072-6573-4736-996f-6e2066616465,rev?*%
%TF.SameCoordinates,Original*%
%TF.FileFunction,Copper,L2,Bot*%
%TF.FilePolarity,Positive*%
%FSLAX46Y46*%
G04 Gerber Fmt 4.6, Leading zero omitted, Abs format (unit mm)*
G04 Created by KiCad (PCBNEW 10.0.0) date 2026-04-01 08:10:01*
%MOMM*%
%LPD*%
G01*
G04 APERTURE LIST*
G04 Aperture macros list*
%AMRoundRect*
0 Rectangle with rounded corners*
0 $1 Rounding radius*
0 $2 $3 $4 $5 $6 $7 $8 $9 X,Y pos of 4 corners*
0 Add a 4 corners polygon primitive as box body*
4,1,4,$2,$3,$4,$5,$6,$7,$8,$9,$2,$3,0*
0 Add four circle primitives for the rounded corners*
1,1,$1+$1,$2,$3*
1,1,$1+$1,$4,$5*
1,1,$1+$1,$6,$7*
1,1,$1+$1,$8,$9*
0 Add four rect primitives between the rounded corners*
20,1,$1+$1,$2,$3,$4,$5,0*
20,1,$1+$1,$4,$5,$6,$7,0*
20,1,$1+$1,$6,$7,$8,$9,0*
20,1,$1+$1,$8,$9,$2,$3,0*%
G04 Aperture macros list end*
%TA.AperFunction,ComponentPad*%
%ADD10R,2.250000X2.250000*%
%TD*%
%TA.AperFunction,ComponentPad*%
%ADD11C,2.250000*%
%TD*%
%TA.AperFunction,ComponentPad*%
%ADD12C,3.000000*%
%TD*%
%TA.AperFunction,ComponentPad*%
%ADD13R,3.500000X1.700000*%
%TD*%
%TA.AperFunction,ComponentPad*%
%ADD14O,3.600000X1.700000*%
%TD*%
%TA.AperFunction,ComponentPad*%
%ADD15O,3.700000X1.700000*%
%TD*%
%TA.AperFunction,ComponentPad*%
%ADD16R,2.000000X2.000000*%
%TD*%
%TA.AperFunction,ComponentPad*%
%ADD17C,2.000000*%
%TD*%
%TA.AperFunction,ComponentPad*%
%ADD18R,3.200000X2.000000*%
%TD*%
%TA.AperFunction,SMDPad,CuDef*%
%ADD19RoundRect,0.250000X0.250000X0.475000X-0.250000X0.475000X-0.250000X-0.475000X0.250000X-0.475000X0*%
%TD*%
%TA.AperFunction,SMDPad,CuDef*%
%ADD20RoundRect,0.250000X-0.250000X-0.475000X0.250000X-0.475000X0.250000X0.475000X-0.250000X0.475000X0*%
%TD*%
%TA.AperFunction,ViaPad*%
%ADD21C,0.600000*%
%TD*%
%TA.AperFunction,Conductor*%
%ADD22C,0.200000*%
%TD*%
G04 APERTURE END LIST*
D10*
%TO.P,VR1,1,CCW_1*%
%TO.N,GND*%
X157800000Y-175250000D03*
D11*
%TO.P,VR1,2,WIPER__2*%
%TO.N,Fader0*%
X154000000Y-175250000D03*
%TO.P,VR1,3,CW_3*%
%TO.N,+3.3V*%
X157800000Y-47750000D03*
D12*
%TO.P,VR1,MH1,MH1_MH1*%
%TO.N,GND*%
X158750000Y-155200000D03*
%TO.P,VR1,MH2,MH2_MH2*%
X158750000Y-72700000D03*
%TD*%
D13*
%TO.P,U1,1,GPIO26/ADC0/A0_1*%
%TO.N,Fader1*%
X175125000Y-31630000D03*
D14*
%TO.P,U1,2,GPIO27/ADC1/A1_2*%
%TO.N,Fader0*%
X175125000Y-34170000D03*
%TO.P,U1,3,GPIO28/ADC2/A2_3*%
%TO.N,1S*%
X175125000Y-36710000D03*
%TO.P,U1,4,GPIO29/ADC3/A3_4*%
%TO.N,2S*%
X175125000Y-39250000D03*
%TO.P,U1,5,GPIO6/SDA_5*%
%TO.N,2A*%
X175125000Y-41790000D03*
%TO.P,U1,6,GPIO7/SCL_6*%
%TO.N,2B*%
X175125000Y-44330000D03*
%TO.P,U1,7,GPIO0/TX_7*%
%TO.N,1A*%
X175125000Y-46870000D03*
%TO.P,U1,8,GPIO1/RX_8*%
%TO.N,1B*%
X192375000Y-46870000D03*
%TO.P,U1,9,GPIO2/SCK_9*%
%TO.N,unconnected-(U1-GPIO2{slash}SCK-Pad9)*%
X192375000Y-44330000D03*
%TO.P,U1,10,GPIO4/MISO_10*%
%TO.N,unconnected-(U1-GPIO4{slash}MISO-Pad10)*%
X192375000Y-41790000D03*
D15*
%TO.P,U1,11,GPIO3/MOSI_11*%
%TO.N,unconnected-(U1-GPIO3{slash}MOSI-Pad11)*%
X192375000Y-39250000D03*
%TO.P,U1,12,3V3_12*%
%TO.N,+3V3*%
X192375000Y-36710000D03*
%TO.P,U1,13,GND_13*%
%TO.N,GND*%
X192375000Y-34170000D03*
%TO.P,U1,14,VBUS_14*%
%TO.N,unconnected-(U1-VBUS-Pad14)*%
X192375000Y-31630000D03*
%TD*%
D16*
%TO.P,SW2,A,A_A*%
%TO.N,2A*%
X151300000Y-36000000D03*
D17*
%TO.P,SW2,B,B_B*%
%TO.N,2B*%
X151300000Y-41000000D03*
%TO.P,SW2,C,C_C*%
%TO.N,GND*%
X151300000Y-38500000D03*
D18*
%TO.P,SW2,MP*%
%TO.N,N/C*%
X158800000Y-32900000D03*
X158800000Y-44100000D03*
D17*
%TO.P,SW2,S1,S1_S1*%
%TO.N,2S*%
X165800000Y-41000000D03*
%TO.P,SW2,S2,S2_S2*%
%TO.N,GND*%
X165800000Y-36000000D03*
%TD*%
D10*
%TO.P,VR2,1,CCW_1*%
%TO.N,GND*%
X132800000Y-175250000D03*
D11*
%TO.P,VR2,2,WIPER__2*%
%TO.N,Fader1*%
X129000000Y-175250000D03*
%TO.P,VR2,3,CW_3*%
%TO.N,+3.3V*%
X132800000Y-47750000D03*
D12*
%TO.P,VR2,MH1,MH1_MH1*%
%TO.N,GND*%
X133750000Y-155200000D03*
%TO.P,VR2,MH2,MH2_MH2*%
X133750000Y-72700000D03*
%TD*%
D16*
%TO.P,SW1,A,A_A*%
%TO.N,1A*%
X126300000Y-36000000D03*
D17*
%TO.P,SW1,B,B_B*%
%TO.N,1B*%
X126300000Y-41000000D03*
%TO.P,SW1,C,C_C*%
%TO.N,GND*%
X126300000Y-38500000D03*
D18*
%TO.P,SW1,MP*%
%TO.N,N/C*%
X133800000Y-32900000D03*
X133800000Y-44100000D03*
D17*
%TO.P,SW1,S1,S1_S1*%
%TO.N,1S*%
X140800000Y-41000000D03*
%TO.P,SW1,S2,S2_S2*%
%TO.N,GND*%
X140800000Y-36000000D03*
%TD*%
D19*
%TO.P,C2,1*%
%TO.N,GND*%
X184700000Y-35000000D03*
%TO.P,C2,2*%
%TO.N,Fader0*%
X182800000Y-35000000D03*
%TD*%
%TO.P,C3,1*%
%TO.N,GND*%
X184700000Y-31500000D03*
%TO.P,C3,2*%
%TO.N,Fader1*%
X182800000Y-31500000D03*
%TD*%
D20*
%TO.P,C1,1*%
%TO.N,GND*%
X182800000Y-38620000D03*
%TO.P,C1,2*%
%TO.N,+3V3*%
X184700000Y-38620000D03*
%TD*%
D21*
%TO.N,1S*%
X168500000Y-36750000D03*
%TD*%
%TO.N,GND*%
D22*
X133750000Y-155200000D02*
X133750000Y-174300000D01*
X184700000Y-35000000D02*
X184700000Y-31500000D01*
X133750000Y-72700000D02*
X158750000Y-72700000D01*
X151300000Y-38500000D02*
X148800000Y-36000000D01*
X193401346Y-48420000D02*
X194525000Y-47296346D01*
X150000000Y-37200000D02*
X151300000Y-38500000D01*
X150000000Y-34700000D02*
X150000000Y-37200000D01*
X164500000Y-34700000D02*
X150000000Y-34700000D01*
X182280000Y-38100000D02*
X167900000Y-38100000D01*
X158750000Y-155200000D02*
X158750000Y-72700000D01*
X158750000Y-60000000D02*
X170330000Y-48420000D01*
X184700000Y-36720000D02*
X182800000Y-38620000D01*
X165800000Y-36000000D02*
X164500000Y-34700000D01*
X158750000Y-72700000D02*
X158750000Y-60000000D01*
X194525000Y-47296346D02*
X194525000Y-36233654D01*
X148800000Y-36000000D02*
X140800000Y-36000000D01*
X184700000Y-35000000D02*
X184700000Y-36720000D01*
X167900000Y-38100000D02*
X165800000Y-36000000D01*
X194525000Y-36233654D02*
X192461346Y-34170000D01*
X158750000Y-155200000D02*
X158750000Y-174300000D01*
X133750000Y-174300000D02*
X132800000Y-175250000D01*
X133750000Y-155200000D02*
X158750000Y-155200000D01*
X182800000Y-38620000D02*
X182280000Y-38100000D01*
X170330000Y-48420000D02*
X193401346Y-48420000D01*
X191375000Y-34170000D02*
X185530000Y-34170000D01*
X185530000Y-34170000D02*
X184700000Y-35000000D01*
X158750000Y-174300000D02*
X157800000Y-175250000D01*
X192461346Y-34170000D02*
X191375000Y-34170000D01*
%TO.N,Fader0*%
X182800000Y-35000000D02*
X181970000Y-34170000D01*
X181970000Y-34170000D02*
X176125000Y-34170000D01*
%TO.N,Fader1*%
X176255000Y-31500000D02*
X176125000Y-31630000D01*
X182800000Y-31500000D02*
X176255000Y-31500000D01*
%TO.N,1S*%
X168540000Y-36710000D02*
X176125000Y-36710000D01*
X168500000Y-36750000D02*
X168540000Y-36710000D01*
%TO.N,2S*%
X167550000Y-39250000D02*
X165800000Y-41000000D01*
X176125000Y-39250000D02*
X167550000Y-39250000D01*
%TO.N,2A*%
X175615000Y-42300000D02*
X161331372Y-42300000D01*
X176125000Y-41790000D02*
X175615000Y-42300000D01*
X155031372Y-36000000D02*
X151300000Y-36000000D01*
X161331372Y-42300000D02*
X155031372Y-36000000D01*
%TO.N,2B*%
X176125000Y-44330000D02*
X162795686Y-44330000D01*
X159465686Y-41000000D02*
X151300000Y-41000000D01*
X162795686Y-44330000D02*
X159465686Y-41000000D01*
%TO.N,1A*%
X160200000Y-42300000D02*
X132600000Y-42300000D01*
X164770000Y-46870000D02*
X160200000Y-42300000D01*
X176125000Y-46870000D02*
X164770000Y-46870000D01*
X132600000Y-42300000D02*
X126300000Y-36000000D01*
%TO.N,1B*%
X191375000Y-46870000D02*
X190225000Y-48020000D01*
X158150000Y-45400000D02*
X130700000Y-45400000D01*
X190225000Y-48020000D02*
X160770000Y-48020000D01*
X160770000Y-48020000D02*
X158150000Y-45400000D01*
X130700000Y-45400000D02*
X126300000Y-41000000D01*
%TO.N,+3V3*%
X191375000Y-36710000D02*
X186610000Y-36710000D01*
X186610000Y-36710000D02*
X184700000Y-38620000D01*
%TD*%
M02*
