%TF.GenerationSoftware,KiCad,Pcbnew,10.0.0*%
%TF.CreationDate,2026-04-01T08:10:01+07:00*%
%TF.ProjectId,expression faders,65787072-6573-4736-996f-6e2066616465,rev?*%
%TF.SameCoordinates,Original*%
%TF.FileFunction,Legend,Bot*%
%TF.FilePolarity,Positive*%
%FSLAX46Y46*%
G04 Gerber Fmt 4.6, Leading zero omitted, Abs format (unit mm)*
G04 Created by KiCad (PCBNEW 10.0.0) date 2026-04-01 08:10:01*
%MOMM*%
%LPD*%
G01*
G04 APERTURE LIST*
%ADD10C,0.150000*%
%ADD11C,0.120000*%
G04 APERTURE END LIST*
D10*
X183916666Y-33679580D02*
X183964285Y-33727200D01*
X183964285Y-33727200D02*
X184107142Y-33774819D01*
X184107142Y-33774819D02*
X184202380Y-33774819D01*
X184202380Y-33774819D02*
X184345237Y-33727200D01*
X184345237Y-33727200D02*
X184440475Y-33631961D01*
X184440475Y-33631961D02*
X184488094Y-33536723D01*
X184488094Y-33536723D02*
X184535713Y-33346247D01*
X184535713Y-33346247D02*
X184535713Y-33203390D01*
X184535713Y-33203390D02*
X184488094Y-33012914D01*
X184488094Y-33012914D02*
X184440475Y-32917676D01*
X184440475Y-32917676D02*
X184345237Y-32822438D01*
X184345237Y-32822438D02*
X184202380Y-32774819D01*
X184202380Y-32774819D02*
X184107142Y-32774819D01*
X184107142Y-32774819D02*
X183964285Y-32822438D01*
X183964285Y-32822438D02*
X183916666Y-32870057D01*
X183535713Y-32870057D02*
X183488094Y-32822438D01*
X183488094Y-32822438D02*
X183392856Y-32774819D01*
X183392856Y-32774819D02*
X183154761Y-32774819D01*
X183154761Y-32774819D02*
X183059523Y-32822438D01*
X183059523Y-32822438D02*
X183011904Y-32870057D01*
X183011904Y-32870057D02*
X182964285Y-32965295D01*
X182964285Y-32965295D02*
X182964285Y-33060533D01*
X182964285Y-33060533D02*
X183011904Y-33203390D01*
X183011904Y-33203390D02*
X183583332Y-33774819D01*
X183583332Y-33774819D02*
X182964285Y-33774819D01*
X183916666Y-30179580D02*
X183964285Y-30227200D01*
X183964285Y-30227200D02*
X184107142Y-30274819D01*
X184107142Y-30274819D02*
X184202380Y-30274819D01*
X184202380Y-30274819D02*
X184345237Y-30227200D01*
X184345237Y-30227200D02*
X184440475Y-30131961D01*
X184440475Y-30131961D02*
X184488094Y-30036723D01*
X184488094Y-30036723D02*
X184535713Y-29846247D01*
X184535713Y-29846247D02*
X184535713Y-29703390D01*
X184535713Y-29703390D02*
X184488094Y-29512914D01*
X184488094Y-29512914D02*
X184440475Y-29417676D01*
X184440475Y-29417676D02*
X184345237Y-29322438D01*
X184345237Y-29322438D02*
X184202380Y-29274819D01*
X184202380Y-29274819D02*
X184107142Y-29274819D01*
X184107142Y-29274819D02*
X183964285Y-29322438D01*
X183964285Y-29322438D02*
X183916666Y-29370057D01*
X183583332Y-29274819D02*
X182964285Y-29274819D01*
X182964285Y-29274819D02*
X183297618Y-29655771D01*
X183297618Y-29655771D02*
X183154761Y-29655771D01*
X183154761Y-29655771D02*
X183059523Y-29703390D01*
X183059523Y-29703390D02*
X183011904Y-29751009D01*
X183011904Y-29751009D02*
X182964285Y-29846247D01*
X182964285Y-29846247D02*
X182964285Y-30084342D01*
X182964285Y-30084342D02*
X183011904Y-30179580D01*
X183011904Y-30179580D02*
X183059523Y-30227200D01*
X183059523Y-30227200D02*
X183154761Y-30274819D01*
X183154761Y-30274819D02*
X183440475Y-30274819D01*
X183440475Y-30274819D02*
X183535713Y-30227200D01*
X183535713Y-30227200D02*
X183583332Y-30179580D01*
X183916666Y-40659580D02*
X183964285Y-40707200D01*
X183964285Y-40707200D02*
X184107142Y-40754819D01*
X184107142Y-40754819D02*
X184202380Y-40754819D01*
X184202380Y-40754819D02*
X184345237Y-40707200D01*
X184345237Y-40707200D02*
X184440475Y-40611961D01*
X184440475Y-40611961D02*
X184488094Y-40516723D01*
X184488094Y-40516723D02*
X184535713Y-40326247D01*
X184535713Y-40326247D02*
X184535713Y-40183390D01*
X184535713Y-40183390D02*
X184488094Y-39992914D01*
X184488094Y-39992914D02*
X184440475Y-39897676D01*
X184440475Y-39897676D02*
X184345237Y-39802438D01*
X184345237Y-39802438D02*
X184202380Y-39754819D01*
X184202380Y-39754819D02*
X184107142Y-39754819D01*
X184107142Y-39754819D02*
X183964285Y-39802438D01*
X183964285Y-39802438D02*
X183916666Y-39850057D01*
X182964285Y-40754819D02*
X183535713Y-40754819D01*
X183249999Y-40754819D02*
X183249999Y-39754819D01*
X183249999Y-39754819D02*
X183345237Y-39897676D01*
X183345237Y-39897676D02*
X183440475Y-39992914D01*
X183440475Y-39992914D02*
X183535713Y-40040533D01*
%TO.C,C2*%
D11*
X184011252Y-34265000D02*
X183488748Y-34265000D01*
X184011252Y-35735000D02*
X183488748Y-35735000D01*
%TO.C,C3*%
X184011252Y-30765000D02*
X183488748Y-30765000D01*
X184011252Y-32235000D02*
X183488748Y-32235000D01*
%TO.C,C1*%
X183488748Y-37885000D02*
X184011252Y-37885000D01*
X183488748Y-39355000D02*
X184011252Y-39355000D01*
%TD*%
M02*
