ISO-10303-21;
HEADER;
/*Generated by software containing ST-Developer
 * from STEP Tools, Inc. (www.steptools.com) 
 */
/*OPTION: using custom renumber hook */
/*description */
/*implementation_level */
FILE_DESCRIPTION(('STEP AP242 Edition 2','STEP AP242 Edition 2''CAx-IF Rec.Pracs.---Representation and Presentation of Product Manufa
cturing Information (PMI)---4.0---2014-10-13','STEP AP242 Edition 2''CAx-IF Rec.Pracs.---Representation and Presentation of Product Manufa
cturing Information (PMI)---4.0---2014-10-13''CAx-IF Rec.Pracs.---3D Tessellated Geometry---0.4---2014-09-14','STEP AP242 Edition 2''CAx-IF Rec.Pracs.---Representation and Presentation of Product Manufa
cturing Information (PMI)---4.0---2014-10-13''CAx-IF Rec.Pracs.---3D Tessellated Geometry---0.4---2014-09-14''2;1','STEP AP242 Edition 2''CAx-IF Rec.Pracs.---Representation and Presentation of Product Manufa
cturing Information (PMI)---4.0---2014-10-13''CAx-IF Rec.Pracs.---3D Tessellated Geometry---0.4---2014-09-14''2;1''CAx-IF Rec.Pracs.---User Defined Attributes---1.5---2016-08-15'),'2;1');
/*name */
/*time_stamp */
/*author */
/*organization */
/*preprocessor_version */
/*originating_system */
/*authorisation */
FILE_NAME('/vol/tmp/translate-11504307088376981108/Part Studio 1.step','2026-04-01T02:19:59',(''),(''),'ST-DEVELOPER v20','ONSHAPE BY PTC INC, 1.212','  ');
FILE_SCHEMA(('AP242_MANAGED_MODEL_BASED_3D_ENGINEERING_MIM_LF { 1 0 10303 442 3 1 4 }'));
ENDSEC;
DATA;
#10=SHAPE_REPRESENTATION_RELATIONSHIP('','',#1037,#11);
#11=ADVANCED_BREP_SHAPE_REPRESENTATION('',(#1035),#1699);
#12=SPHERICAL_SURFACE('',#1083,0.002);
#13=SPHERICAL_SURFACE('',#1086,0.002);
#14=SPHERICAL_SURFACE('',#1103,0.002);
#15=SPHERICAL_SURFACE('',#1105,0.002);
#16=SPHERICAL_SURFACE('',#1107,0.002);
#17=SPHERICAL_SURFACE('',#1109,0.002);
#18=SPHERICAL_SURFACE('',#1119,0.002);
#19=SPHERICAL_SURFACE('',#1121,0.002);
#20=CIRCLE('',#1081,0.002);
#21=CIRCLE('',#1082,0.002);
#22=CIRCLE('',#1084,0.002);
#23=CIRCLE('',#1085,0.002);
#24=CIRCLE('',#1087,0.002);
#25=CIRCLE('',#1088,0.002);
#26=CIRCLE('',#1090,0.002);
#27=CIRCLE('',#1092,0.002);
#28=CIRCLE('',#1094,0.002);
#29=CIRCLE('',#1095,0.002);
#30=CIRCLE('',#1097,0.002);
#31=CIRCLE('',#1099,0.002);
#32=CIRCLE('',#1101,0.002);
#33=CIRCLE('',#1102,0.002);
#34=CIRCLE('',#1104,0.002);
#35=CIRCLE('',#1106,0.002);
#36=CIRCLE('',#1108,0.002);
#37=CIRCLE('',#1110,0.002);
#38=CIRCLE('',#1112,0.002);
#39=CIRCLE('',#1114,0.002);
#40=CIRCLE('',#1116,0.002);
#41=CIRCLE('',#1118,0.002);
#42=CIRCLE('',#1120,0.002);
#43=CIRCLE('',#1122,0.002);
#44=CYLINDRICAL_SURFACE('',#1080,0.002);
#45=CYLINDRICAL_SURFACE('',#1089,0.002);
#46=CYLINDRICAL_SURFACE('',#1091,0.002);
#47=CYLINDRICAL_SURFACE('',#1093,0.002);
#48=CYLINDRICAL_SURFACE('',#1096,0.002);
#49=CYLINDRICAL_SURFACE('',#1098,0.002);
#50=CYLINDRICAL_SURFACE('',#1100,0.002);
#51=CYLINDRICAL_SURFACE('',#1111,0.002);
#52=CYLINDRICAL_SURFACE('',#1113,0.002);
#53=CYLINDRICAL_SURFACE('',#1115,0.002);
#54=CYLINDRICAL_SURFACE('',#1117,0.002);
#55=CYLINDRICAL_SURFACE('',#1123,0.002);
#56=ORIENTED_EDGE('',*,*,#336,.T.);
#57=ORIENTED_EDGE('',*,*,#337,.T.);
#58=ORIENTED_EDGE('',*,*,#338,.T.);
#59=ORIENTED_EDGE('',*,*,#339,.T.);
#60=ORIENTED_EDGE('',*,*,#340,.F.);
#61=ORIENTED_EDGE('',*,*,#341,.T.);
#62=ORIENTED_EDGE('',*,*,#342,.T.);
#63=ORIENTED_EDGE('',*,*,#343,.F.);
#64=ORIENTED_EDGE('',*,*,#344,.T.);
#65=ORIENTED_EDGE('',*,*,#345,.F.);
#66=ORIENTED_EDGE('',*,*,#346,.F.);
#67=ORIENTED_EDGE('',*,*,#347,.T.);
#68=ORIENTED_EDGE('',*,*,#348,.T.);
#69=ORIENTED_EDGE('',*,*,#349,.F.);
#70=ORIENTED_EDGE('',*,*,#350,.F.);
#71=ORIENTED_EDGE('',*,*,#346,.T.);
#72=ORIENTED_EDGE('',*,*,#351,.T.);
#73=ORIENTED_EDGE('',*,*,#352,.F.);
#74=ORIENTED_EDGE('',*,*,#353,.F.);
#75=ORIENTED_EDGE('',*,*,#349,.T.);
#76=ORIENTED_EDGE('',*,*,#352,.T.);
#77=ORIENTED_EDGE('',*,*,#354,.F.);
#78=ORIENTED_EDGE('',*,*,#344,.F.);
#79=ORIENTED_EDGE('',*,*,#355,.T.);
#80=ORIENTED_EDGE('',*,*,#356,.T.);
#81=ORIENTED_EDGE('',*,*,#357,.T.);
#82=ORIENTED_EDGE('',*,*,#358,.F.);
#83=ORIENTED_EDGE('',*,*,#359,.F.);
#84=ORIENTED_EDGE('',*,*,#347,.F.);
#85=ORIENTED_EDGE('',*,*,#350,.T.);
#86=ORIENTED_EDGE('',*,*,#353,.T.);
#87=ORIENTED_EDGE('',*,*,#355,.F.);
#88=ORIENTED_EDGE('',*,*,#360,.F.);
#89=ORIENTED_EDGE('',*,*,#361,.T.);
#90=ORIENTED_EDGE('',*,*,#362,.T.);
#91=ORIENTED_EDGE('',*,*,#363,.F.);
#92=ORIENTED_EDGE('',*,*,#364,.T.);
#93=ORIENTED_EDGE('',*,*,#365,.T.);
#94=ORIENTED_EDGE('',*,*,#366,.T.);
#95=ORIENTED_EDGE('',*,*,#367,.F.);
#96=ORIENTED_EDGE('',*,*,#368,.T.);
#97=ORIENTED_EDGE('',*,*,#369,.T.);
#98=ORIENTED_EDGE('',*,*,#357,.F.);
#99=ORIENTED_EDGE('',*,*,#370,.F.);
#100=ORIENTED_EDGE('',*,*,#371,.F.);
#101=ORIENTED_EDGE('',*,*,#372,.F.);
#102=ORIENTED_EDGE('',*,*,#373,.T.);
#103=ORIENTED_EDGE('',*,*,#374,.F.);
#104=ORIENTED_EDGE('',*,*,#375,.F.);
#105=ORIENTED_EDGE('',*,*,#376,.T.);
#106=ORIENTED_EDGE('',*,*,#377,.T.);
#107=ORIENTED_EDGE('',*,*,#378,.F.);
#108=ORIENTED_EDGE('',*,*,#379,.T.);
#109=ORIENTED_EDGE('',*,*,#360,.T.);
#110=ORIENTED_EDGE('',*,*,#380,.F.);
#111=ORIENTED_EDGE('',*,*,#381,.F.);
#112=ORIENTED_EDGE('',*,*,#364,.F.);
#113=ORIENTED_EDGE('',*,*,#382,.F.);
#114=ORIENTED_EDGE('',*,*,#383,.T.);
#115=ORIENTED_EDGE('',*,*,#384,.T.);
#116=ORIENTED_EDGE('',*,*,#368,.F.);
#117=ORIENTED_EDGE('',*,*,#385,.F.);
#118=ORIENTED_EDGE('',*,*,#386,.T.);
#119=ORIENTED_EDGE('',*,*,#387,.T.);
#120=ORIENTED_EDGE('',*,*,#373,.F.);
#121=ORIENTED_EDGE('',*,*,#388,.F.);
#122=ORIENTED_EDGE('',*,*,#389,.T.);
#123=ORIENTED_EDGE('',*,*,#390,.T.);
#124=ORIENTED_EDGE('',*,*,#380,.T.);
#125=ORIENTED_EDGE('',*,*,#374,.T.);
#126=ORIENTED_EDGE('',*,*,#390,.F.);
#127=ORIENTED_EDGE('',*,*,#391,.F.);
#128=ORIENTED_EDGE('',*,*,#363,.T.);
#129=ORIENTED_EDGE('',*,*,#392,.F.);
#130=ORIENTED_EDGE('',*,*,#393,.F.);
#131=ORIENTED_EDGE('',*,*,#382,.T.);
#132=ORIENTED_EDGE('',*,*,#392,.T.);
#133=ORIENTED_EDGE('',*,*,#362,.F.);
#134=ORIENTED_EDGE('',*,*,#394,.F.);
#135=ORIENTED_EDGE('',*,*,#395,.T.);
#136=ORIENTED_EDGE('',*,*,#394,.T.);
#137=ORIENTED_EDGE('',*,*,#361,.F.);
#138=ORIENTED_EDGE('',*,*,#379,.F.);
#139=ORIENTED_EDGE('',*,*,#396,.T.);
#140=ORIENTED_EDGE('',*,*,#372,.T.);
#141=ORIENTED_EDGE('',*,*,#397,.F.);
#142=ORIENTED_EDGE('',*,*,#398,.F.);
#143=ORIENTED_EDGE('',*,*,#388,.T.);
#144=ORIENTED_EDGE('',*,*,#371,.T.);
#145=ORIENTED_EDGE('',*,*,#399,.F.);
#146=ORIENTED_EDGE('',*,*,#400,.F.);
#147=ORIENTED_EDGE('',*,*,#397,.T.);
#148=ORIENTED_EDGE('',*,*,#370,.T.);
#149=ORIENTED_EDGE('',*,*,#356,.F.);
#150=ORIENTED_EDGE('',*,*,#401,.F.);
#151=ORIENTED_EDGE('',*,*,#399,.T.);
#152=ORIENTED_EDGE('',*,*,#369,.F.);
#153=ORIENTED_EDGE('',*,*,#387,.F.);
#154=ORIENTED_EDGE('',*,*,#402,.F.);
#155=ORIENTED_EDGE('',*,*,#358,.T.);
#156=ORIENTED_EDGE('',*,*,#367,.T.);
#157=ORIENTED_EDGE('',*,*,#403,.F.);
#158=ORIENTED_EDGE('',*,*,#404,.F.);
#159=ORIENTED_EDGE('',*,*,#385,.T.);
#160=ORIENTED_EDGE('',*,*,#403,.T.);
#161=ORIENTED_EDGE('',*,*,#366,.F.);
#162=ORIENTED_EDGE('',*,*,#405,.F.);
#163=ORIENTED_EDGE('',*,*,#406,.T.);
#164=ORIENTED_EDGE('',*,*,#405,.T.);
#165=ORIENTED_EDGE('',*,*,#365,.F.);
#166=ORIENTED_EDGE('',*,*,#384,.F.);
#167=ORIENTED_EDGE('',*,*,#407,.T.);
#168=ORIENTED_EDGE('',*,*,#383,.F.);
#169=ORIENTED_EDGE('',*,*,#393,.T.);
#170=ORIENTED_EDGE('',*,*,#395,.F.);
#171=ORIENTED_EDGE('',*,*,#396,.F.);
#172=ORIENTED_EDGE('',*,*,#381,.T.);
#173=ORIENTED_EDGE('',*,*,#391,.T.);
#174=ORIENTED_EDGE('',*,*,#389,.F.);
#175=ORIENTED_EDGE('',*,*,#398,.T.);
#176=ORIENTED_EDGE('',*,*,#400,.T.);
#177=ORIENTED_EDGE('',*,*,#401,.T.);
#178=ORIENTED_EDGE('',*,*,#359,.T.);
#179=ORIENTED_EDGE('',*,*,#402,.T.);
#180=ORIENTED_EDGE('',*,*,#386,.F.);
#181=ORIENTED_EDGE('',*,*,#404,.T.);
#182=ORIENTED_EDGE('',*,*,#406,.F.);
#183=ORIENTED_EDGE('',*,*,#407,.F.);
#184=ORIENTED_EDGE('',*,*,#408,.F.);
#185=ORIENTED_EDGE('',*,*,#409,.T.);
#186=ORIENTED_EDGE('',*,*,#410,.T.);
#187=ORIENTED_EDGE('',*,*,#411,.F.);
#188=ORIENTED_EDGE('',*,*,#412,.F.);
#189=ORIENTED_EDGE('',*,*,#413,.T.);
#190=ORIENTED_EDGE('',*,*,#414,.T.);
#191=ORIENTED_EDGE('',*,*,#415,.F.);
#192=ORIENTED_EDGE('',*,*,#416,.T.);
#193=ORIENTED_EDGE('',*,*,#377,.F.);
#194=ORIENTED_EDGE('',*,*,#417,.F.);
#195=ORIENTED_EDGE('',*,*,#415,.T.);
#196=ORIENTED_EDGE('',*,*,#378,.T.);
#197=ORIENTED_EDGE('',*,*,#416,.F.);
#198=ORIENTED_EDGE('',*,*,#414,.F.);
#199=ORIENTED_EDGE('',*,*,#418,.T.);
#200=ORIENTED_EDGE('',*,*,#375,.T.);
#201=ORIENTED_EDGE('',*,*,#418,.F.);
#202=ORIENTED_EDGE('',*,*,#413,.F.);
#203=ORIENTED_EDGE('',*,*,#419,.T.);
#204=ORIENTED_EDGE('',*,*,#417,.T.);
#205=ORIENTED_EDGE('',*,*,#376,.F.);
#206=ORIENTED_EDGE('',*,*,#419,.F.);
#207=ORIENTED_EDGE('',*,*,#412,.T.);
#208=ORIENTED_EDGE('',*,*,#420,.T.);
#209=ORIENTED_EDGE('',*,*,#408,.T.);
#210=ORIENTED_EDGE('',*,*,#421,.F.);
#211=ORIENTED_EDGE('',*,*,#422,.F.);
#212=ORIENTED_EDGE('',*,*,#409,.F.);
#213=ORIENTED_EDGE('',*,*,#420,.F.);
#214=ORIENTED_EDGE('',*,*,#423,.T.);
#215=ORIENTED_EDGE('',*,*,#424,.T.);
#216=ORIENTED_EDGE('',*,*,#410,.F.);
#217=ORIENTED_EDGE('',*,*,#424,.F.);
#218=ORIENTED_EDGE('',*,*,#425,.T.);
#219=ORIENTED_EDGE('',*,*,#426,.T.);
#220=ORIENTED_EDGE('',*,*,#421,.T.);
#221=ORIENTED_EDGE('',*,*,#411,.T.);
#222=ORIENTED_EDGE('',*,*,#426,.F.);
#223=ORIENTED_EDGE('',*,*,#427,.F.);
#224=ORIENTED_EDGE('',*,*,#428,.T.);
#225=ORIENTED_EDGE('',*,*,#429,.T.);
#226=ORIENTED_EDGE('',*,*,#430,.T.);
#227=ORIENTED_EDGE('',*,*,#431,.T.);
#228=ORIENTED_EDGE('',*,*,#432,.T.);
#229=ORIENTED_EDGE('',*,*,#433,.T.);
#230=ORIENTED_EDGE('',*,*,#434,.T.);
#231=ORIENTED_EDGE('',*,*,#435,.T.);
#232=ORIENTED_EDGE('',*,*,#436,.T.);
#233=ORIENTED_EDGE('',*,*,#437,.T.);
#234=ORIENTED_EDGE('',*,*,#438,.T.);
#235=ORIENTED_EDGE('',*,*,#439,.T.);
#236=ORIENTED_EDGE('',*,*,#440,.T.);
#237=ORIENTED_EDGE('',*,*,#441,.T.);
#238=ORIENTED_EDGE('',*,*,#442,.T.);
#239=ORIENTED_EDGE('',*,*,#443,.T.);
#240=ORIENTED_EDGE('',*,*,#341,.F.);
#241=ORIENTED_EDGE('',*,*,#444,.F.);
#242=ORIENTED_EDGE('',*,*,#445,.T.);
#243=ORIENTED_EDGE('',*,*,#446,.T.);
#244=ORIENTED_EDGE('',*,*,#340,.T.);
#245=ORIENTED_EDGE('',*,*,#447,.F.);
#246=ORIENTED_EDGE('',*,*,#448,.F.);
#247=ORIENTED_EDGE('',*,*,#444,.T.);
#248=ORIENTED_EDGE('',*,*,#343,.T.);
#249=ORIENTED_EDGE('',*,*,#449,.F.);
#250=ORIENTED_EDGE('',*,*,#450,.F.);
#251=ORIENTED_EDGE('',*,*,#447,.T.);
#252=ORIENTED_EDGE('',*,*,#342,.F.);
#253=ORIENTED_EDGE('',*,*,#446,.F.);
#254=ORIENTED_EDGE('',*,*,#451,.T.);
#255=ORIENTED_EDGE('',*,*,#449,.T.);
#256=ORIENTED_EDGE('',*,*,#348,.F.);
#257=ORIENTED_EDGE('',*,*,#345,.T.);
#258=ORIENTED_EDGE('',*,*,#354,.T.);
#259=ORIENTED_EDGE('',*,*,#351,.F.);
#260=ORIENTED_EDGE('',*,*,#445,.F.);
#261=ORIENTED_EDGE('',*,*,#448,.T.);
#262=ORIENTED_EDGE('',*,*,#450,.T.);
#263=ORIENTED_EDGE('',*,*,#451,.F.);
#264=ORIENTED_EDGE('',*,*,#452,.F.);
#265=ORIENTED_EDGE('',*,*,#422,.T.);
#266=ORIENTED_EDGE('',*,*,#453,.F.);
#267=ORIENTED_EDGE('',*,*,#431,.F.);
#268=ORIENTED_EDGE('',*,*,#454,.F.);
#269=ORIENTED_EDGE('',*,*,#452,.T.);
#270=ORIENTED_EDGE('',*,*,#455,.F.);
#271=ORIENTED_EDGE('',*,*,#456,.F.);
#272=ORIENTED_EDGE('',*,*,#453,.T.);
#273=ORIENTED_EDGE('',*,*,#457,.F.);
#274=ORIENTED_EDGE('',*,*,#455,.T.);
#275=ORIENTED_EDGE('',*,*,#430,.F.);
#276=ORIENTED_EDGE('',*,*,#458,.F.);
#277=ORIENTED_EDGE('',*,*,#433,.F.);
#278=ORIENTED_EDGE('',*,*,#454,.T.);
#279=ORIENTED_EDGE('',*,*,#432,.F.);
#280=ORIENTED_EDGE('',*,*,#459,.F.);
#281=ORIENTED_EDGE('',*,*,#423,.F.);
#282=ORIENTED_EDGE('',*,*,#460,.F.);
#283=ORIENTED_EDGE('',*,*,#425,.F.);
#284=ORIENTED_EDGE('',*,*,#461,.F.);
#285=ORIENTED_EDGE('',*,*,#439,.F.);
#286=ORIENTED_EDGE('',*,*,#457,.T.);
#287=ORIENTED_EDGE('',*,*,#427,.T.);
#288=ORIENTED_EDGE('',*,*,#462,.F.);
#289=ORIENTED_EDGE('',*,*,#339,.F.);
#290=ORIENTED_EDGE('',*,*,#456,.T.);
#291=ORIENTED_EDGE('',*,*,#338,.F.);
#292=ORIENTED_EDGE('',*,*,#463,.F.);
#293=ORIENTED_EDGE('',*,*,#428,.F.);
#294=ORIENTED_EDGE('',*,*,#464,.F.);
#295=ORIENTED_EDGE('',*,*,#429,.F.);
#296=ORIENTED_EDGE('',*,*,#465,.F.);
#297=ORIENTED_EDGE('',*,*,#443,.F.);
#298=ORIENTED_EDGE('',*,*,#458,.T.);
#299=ORIENTED_EDGE('',*,*,#464,.T.);
#300=ORIENTED_EDGE('',*,*,#466,.F.);
#301=ORIENTED_EDGE('',*,*,#461,.T.);
#302=ORIENTED_EDGE('',*,*,#459,.T.);
#303=ORIENTED_EDGE('',*,*,#467,.F.);
#304=ORIENTED_EDGE('',*,*,#462,.T.);
#305=ORIENTED_EDGE('',*,*,#460,.T.);
#306=ORIENTED_EDGE('',*,*,#468,.F.);
#307=ORIENTED_EDGE('',*,*,#465,.T.);
#308=ORIENTED_EDGE('',*,*,#463,.T.);
#309=ORIENTED_EDGE('',*,*,#469,.F.);
#310=ORIENTED_EDGE('',*,*,#466,.T.);
#311=ORIENTED_EDGE('',*,*,#442,.F.);
#312=ORIENTED_EDGE('',*,*,#470,.F.);
#313=ORIENTED_EDGE('',*,*,#434,.F.);
#314=ORIENTED_EDGE('',*,*,#467,.T.);
#315=ORIENTED_EDGE('',*,*,#435,.F.);
#316=ORIENTED_EDGE('',*,*,#471,.F.);
#317=ORIENTED_EDGE('',*,*,#436,.F.);
#318=ORIENTED_EDGE('',*,*,#468,.T.);
#319=ORIENTED_EDGE('',*,*,#438,.F.);
#320=ORIENTED_EDGE('',*,*,#472,.F.);
#321=ORIENTED_EDGE('',*,*,#336,.F.);
#322=ORIENTED_EDGE('',*,*,#469,.T.);
#323=ORIENTED_EDGE('',*,*,#337,.F.);
#324=ORIENTED_EDGE('',*,*,#473,.F.);
#325=ORIENTED_EDGE('',*,*,#440,.F.);
#326=ORIENTED_EDGE('',*,*,#471,.T.);
#327=ORIENTED_EDGE('',*,*,#470,.T.);
#328=ORIENTED_EDGE('',*,*,#474,.F.);
#329=ORIENTED_EDGE('',*,*,#473,.T.);
#330=ORIENTED_EDGE('',*,*,#472,.T.);
#331=ORIENTED_EDGE('',*,*,#475,.F.);
#332=ORIENTED_EDGE('',*,*,#474,.T.);
#333=ORIENTED_EDGE('',*,*,#441,.F.);
#334=ORIENTED_EDGE('',*,*,#475,.T.);
#335=ORIENTED_EDGE('',*,*,#437,.F.);
#336=EDGE_CURVE('',#476,#477,#560,.T.);
#337=EDGE_CURVE('',#477,#478,#561,.F.);
#338=EDGE_CURVE('',#478,#479,#562,.F.);
#339=EDGE_CURVE('',#479,#476,#563,.T.);
#340=EDGE_CURVE('',#480,#481,#564,.T.);
#341=EDGE_CURVE('',#480,#482,#565,.T.);
#342=EDGE_CURVE('',#482,#483,#566,.T.);
#343=EDGE_CURVE('',#481,#483,#567,.T.);
#344=EDGE_CURVE('',#484,#485,#568,.T.);
#345=EDGE_CURVE('',#486,#485,#569,.T.);
#346=EDGE_CURVE('',#487,#486,#570,.T.);
#347=EDGE_CURVE('',#487,#484,#571,.T.);
#348=EDGE_CURVE('',#486,#488,#572,.T.);
#349=EDGE_CURVE('',#489,#488,#573,.T.);
#350=EDGE_CURVE('',#487,#489,#574,.T.);
#351=EDGE_CURVE('',#488,#490,#575,.T.);
#352=EDGE_CURVE('',#491,#490,#576,.T.);
#353=EDGE_CURVE('',#489,#491,#577,.T.);
#354=EDGE_CURVE('',#485,#490,#578,.T.);
#355=EDGE_CURVE('',#484,#491,#579,.T.);
#356=EDGE_CURVE('',#492,#493,#580,.T.);
#357=EDGE_CURVE('',#493,#494,#581,.T.);
#358=EDGE_CURVE('',#495,#494,#582,.T.);
#359=EDGE_CURVE('',#492,#495,#583,.T.);
#360=EDGE_CURVE('',#496,#497,#584,.T.);
#361=EDGE_CURVE('',#496,#498,#585,.T.);
#362=EDGE_CURVE('',#498,#499,#586,.T.);
#363=EDGE_CURVE('',#500,#499,#587,.T.);
#364=EDGE_CURVE('',#500,#501,#588,.T.);
#365=EDGE_CURVE('',#501,#502,#589,.T.);
#366=EDGE_CURVE('',#502,#503,#590,.T.);
#367=EDGE_CURVE('',#504,#503,#591,.T.);
#368=EDGE_CURVE('',#504,#505,#592,.T.);
#369=EDGE_CURVE('',#505,#494,#593,.T.);
#370=EDGE_CURVE('',#506,#493,#594,.T.);
#371=EDGE_CURVE('',#507,#506,#595,.T.);
#372=EDGE_CURVE('',#508,#507,#596,.T.);
#373=EDGE_CURVE('',#508,#509,#597,.T.);
#374=EDGE_CURVE('',#497,#509,#598,.T.);
#375=EDGE_CURVE('',#510,#511,#599,.T.);
#376=EDGE_CURVE('',#510,#512,#600,.T.);
#377=EDGE_CURVE('',#512,#513,#601,.T.);
#378=EDGE_CURVE('',#511,#513,#602,.T.);
#379=EDGE_CURVE('',#514,#496,#603,.T.);
#380=EDGE_CURVE('',#515,#497,#604,.T.);
#381=EDGE_CURVE('',#514,#515,#605,.T.);
#382=EDGE_CURVE('',#516,#500,#606,.T.);
#383=EDGE_CURVE('',#516,#517,#607,.T.);
#384=EDGE_CURVE('',#517,#501,#608,.T.);
#385=EDGE_CURVE('',#518,#504,#609,.T.);
#386=EDGE_CURVE('',#518,#519,#610,.T.);
#387=EDGE_CURVE('',#519,#505,#611,.T.);
#388=EDGE_CURVE('',#520,#508,#612,.T.);
#389=EDGE_CURVE('',#520,#521,#613,.T.);
#390=EDGE_CURVE('',#521,#509,#614,.T.);
#391=EDGE_CURVE('',#515,#521,#615,.T.);
#392=EDGE_CURVE('',#522,#499,#616,.T.);
#393=EDGE_CURVE('',#516,#522,#617,.T.);
#394=EDGE_CURVE('',#523,#498,#618,.T.);
#395=EDGE_CURVE('',#523,#522,#619,.T.);
#396=EDGE_CURVE('',#514,#523,#620,.T.);
#397=EDGE_CURVE('',#524,#507,#621,.T.);
#398=EDGE_CURVE('',#520,#524,#622,.T.);
#399=EDGE_CURVE('',#525,#506,#623,.T.);
#400=EDGE_CURVE('',#524,#525,#624,.T.);
#401=EDGE_CURVE('',#525,#492,#625,.T.);
#402=EDGE_CURVE('',#495,#519,#626,.T.);
#403=EDGE_CURVE('',#526,#503,#627,.T.);
#404=EDGE_CURVE('',#518,#526,#628,.T.);
#405=EDGE_CURVE('',#527,#502,#629,.T.);
#406=EDGE_CURVE('',#527,#526,#630,.T.);
#407=EDGE_CURVE('',#517,#527,#631,.T.);
#408=EDGE_CURVE('',#528,#529,#632,.T.);
#409=EDGE_CURVE('',#528,#530,#633,.T.);
#410=EDGE_CURVE('',#530,#531,#634,.T.);
#411=EDGE_CURVE('',#529,#531,#635,.T.);
#412=EDGE_CURVE('',#532,#533,#636,.T.);
#413=EDGE_CURVE('',#532,#534,#637,.T.);
#414=EDGE_CURVE('',#534,#535,#638,.T.);
#415=EDGE_CURVE('',#533,#535,#639,.T.);
#416=EDGE_CURVE('',#535,#513,#640,.T.);
#417=EDGE_CURVE('',#533,#512,#641,.T.);
#418=EDGE_CURVE('',#534,#511,#642,.T.);
#419=EDGE_CURVE('',#532,#510,#643,.T.);
#420=EDGE_CURVE('',#536,#528,#644,.T.);
#421=EDGE_CURVE('',#537,#529,#645,.T.);
#422=EDGE_CURVE('',#536,#537,#646,.T.);
#423=EDGE_CURVE('',#536,#538,#647,.T.);
#424=EDGE_CURVE('',#538,#530,#648,.T.);
#425=EDGE_CURVE('',#538,#539,#649,.T.);
#426=EDGE_CURVE('',#539,#531,#650,.T.);
#427=EDGE_CURVE('',#537,#539,#651,.T.);
#428=EDGE_CURVE('',#540,#541,#652,.T.);
#429=EDGE_CURVE('',#541,#542,#653,.F.);
#430=EDGE_CURVE('',#542,#543,#654,.F.);
#431=EDGE_CURVE('',#543,#540,#655,.T.);
#432=EDGE_CURVE('',#544,#545,#656,.F.);
#433=EDGE_CURVE('',#545,#546,#657,.T.);
#434=EDGE_CURVE('',#546,#547,#658,.T.);
#435=EDGE_CURVE('',#547,#544,#659,.F.);
#436=EDGE_CURVE('',#548,#549,#660,.T.);
#437=EDGE_CURVE('',#549,#550,#661,.T.);
#438=EDGE_CURVE('',#550,#551,#662,.F.);
#439=EDGE_CURVE('',#551,#548,#663,.F.);
#440=EDGE_CURVE('',#552,#553,#664,.T.);
#441=EDGE_CURVE('',#553,#554,#665,.F.);
#442=EDGE_CURVE('',#554,#555,#666,.F.);
#443=EDGE_CURVE('',#555,#552,#667,.T.);
#444=EDGE_CURVE('',#556,#480,#668,.T.);
#445=EDGE_CURVE('',#556,#557,#669,.T.);
#446=EDGE_CURVE('',#557,#482,#670,.T.);
#447=EDGE_CURVE('',#558,#481,#671,.T.);
#448=EDGE_CURVE('',#556,#558,#672,.T.);
#449=EDGE_CURVE('',#559,#483,#673,.T.);
#450=EDGE_CURVE('',#558,#559,#674,.T.);
#451=EDGE_CURVE('',#557,#559,#675,.T.);
#452=EDGE_CURVE('',#536,#543,#20,.T.);
#453=EDGE_CURVE('',#540,#537,#21,.T.);
#454=EDGE_CURVE('',#536,#545,#22,.F.);
#455=EDGE_CURVE('',#545,#543,#23,.F.);
#456=EDGE_CURVE('',#540,#479,#24,.F.);
#457=EDGE_CURVE('',#479,#537,#25,.F.);
#458=EDGE_CURVE('',#546,#542,#26,.T.);
#459=EDGE_CURVE('',#538,#544,#27,.T.);
#460=EDGE_CURVE('',#539,#551,#28,.T.);
#461=EDGE_CURVE('',#548,#538,#29,.T.);
#462=EDGE_CURVE('',#476,#539,#30,.T.);
#463=EDGE_CURVE('',#541,#478,#31,.T.);
#464=EDGE_CURVE('',#542,#555,#32,.T.);
#465=EDGE_CURVE('',#552,#541,#33,.T.);
#466=EDGE_CURVE('',#546,#555,#34,.F.);
#467=EDGE_CURVE('',#548,#544,#35,.F.);
#468=EDGE_CURVE('',#476,#551,#36,.F.);
#469=EDGE_CURVE('',#552,#478,#37,.F.);
#470=EDGE_CURVE('',#547,#554,#38,.T.);
#471=EDGE_CURVE('',#549,#547,#39,.T.);
#472=EDGE_CURVE('',#477,#550,#40,.T.);
#473=EDGE_CURVE('',#553,#477,#41,.T.);
#474=EDGE_CURVE('',#549,#554,#42,.F.);
#475=EDGE_CURVE('',#553,#550,#43,.F.);
#476=VERTEX_POINT('',#1415);
#477=VERTEX_POINT('',#1416);
#478=VERTEX_POINT('',#1418);
#479=VERTEX_POINT('',#1420);
#480=VERTEX_POINT('',#1423);
#481=VERTEX_POINT('',#1424);
#482=VERTEX_POINT('',#1426);
#483=VERTEX_POINT('',#1428);
#484=VERTEX_POINT('',#1432);
#485=VERTEX_POINT('',#1433);
#486=VERTEX_POINT('',#1435);
#487=VERTEX_POINT('',#1437);
#488=VERTEX_POINT('',#1441);
#489=VERTEX_POINT('',#1443);
#490=VERTEX_POINT('',#1447);
#491=VERTEX_POINT('',#1449);
#492=VERTEX_POINT('',#1456);
#493=VERTEX_POINT('',#1457);
#494=VERTEX_POINT('',#1459);
#495=VERTEX_POINT('',#1461);
#496=VERTEX_POINT('',#1465);
#497=VERTEX_POINT('',#1466);
#498=VERTEX_POINT('',#1468);
#499=VERTEX_POINT('',#1470);
#500=VERTEX_POINT('',#1472);
#501=VERTEX_POINT('',#1474);
#502=VERTEX_POINT('',#1476);
#503=VERTEX_POINT('',#1478);
#504=VERTEX_POINT('',#1480);
#505=VERTEX_POINT('',#1482);
#506=VERTEX_POINT('',#1485);
#507=VERTEX_POINT('',#1487);
#508=VERTEX_POINT('',#1489);
#509=VERTEX_POINT('',#1491);
#510=VERTEX_POINT('',#1494);
#511=VERTEX_POINT('',#1495);
#512=VERTEX_POINT('',#1497);
#513=VERTEX_POINT('',#1499);
#514=VERTEX_POINT('',#1503);
#515=VERTEX_POINT('',#1505);
#516=VERTEX_POINT('',#1509);
#517=VERTEX_POINT('',#1511);
#518=VERTEX_POINT('',#1515);
#519=VERTEX_POINT('',#1517);
#520=VERTEX_POINT('',#1521);
#521=VERTEX_POINT('',#1523);
#522=VERTEX_POINT('',#1529);
#523=VERTEX_POINT('',#1533);
#524=VERTEX_POINT('',#1539);
#525=VERTEX_POINT('',#1543);
#526=VERTEX_POINT('',#1551);
#527=VERTEX_POINT('',#1555);
#528=VERTEX_POINT('',#1561);
#529=VERTEX_POINT('',#1562);
#530=VERTEX_POINT('',#1564);
#531=VERTEX_POINT('',#1566);
#532=VERTEX_POINT('',#1570);
#533=VERTEX_POINT('',#1571);
#534=VERTEX_POINT('',#1573);
#535=VERTEX_POINT('',#1575);
#536=VERTEX_POINT('',#1587);
#537=VERTEX_POINT('',#1589);
#538=VERTEX_POINT('',#1593);
#539=VERTEX_POINT('',#1597);
#540=VERTEX_POINT('',#1603);
#541=VERTEX_POINT('',#1604);
#542=VERTEX_POINT('',#1606);
#543=VERTEX_POINT('',#1608);
#544=VERTEX_POINT('',#1612);
#545=VERTEX_POINT('',#1613);
#546=VERTEX_POINT('',#1615);
#547=VERTEX_POINT('',#1617);
#548=VERTEX_POINT('',#1621);
#549=VERTEX_POINT('',#1622);
#550=VERTEX_POINT('',#1624);
#551=VERTEX_POINT('',#1626);
#552=VERTEX_POINT('',#1630);
#553=VERTEX_POINT('',#1631);
#554=VERTEX_POINT('',#1633);
#555=VERTEX_POINT('',#1635);
#556=VERTEX_POINT('',#1639);
#557=VERTEX_POINT('',#1641);
#558=VERTEX_POINT('',#1645);
#559=VERTEX_POINT('',#1649);
#560=LINE('',#1414,#676);
#561=LINE('',#1417,#677);
#562=LINE('',#1419,#678);
#563=LINE('',#1421,#679);
#564=LINE('',#1422,#680);
#565=LINE('',#1425,#681);
#566=LINE('',#1427,#682);
#567=LINE('',#1429,#683);
#568=LINE('',#1431,#684);
#569=LINE('',#1434,#685);
#570=LINE('',#1436,#686);
#571=LINE('',#1438,#687);
#572=LINE('',#1440,#688);
#573=LINE('',#1442,#689);
#574=LINE('',#1444,#690);
#575=LINE('',#1446,#691);
#576=LINE('',#1448,#692);
#577=LINE('',#1450,#693);
#578=LINE('',#1452,#694);
#579=LINE('',#1453,#695);
#580=LINE('',#1455,#696);
#581=LINE('',#1458,#697);
#582=LINE('',#1460,#698);
#583=LINE('',#1462,#699);
#584=LINE('',#1464,#700);
#585=LINE('',#1467,#701);
#586=LINE('',#1469,#702);
#587=LINE('',#1471,#703);
#588=LINE('',#1473,#704);
#589=LINE('',#1475,#705);
#590=LINE('',#1477,#706);
#591=LINE('',#1479,#707);
#592=LINE('',#1481,#708);
#593=LINE('',#1483,#709);
#594=LINE('',#1484,#710);
#595=LINE('',#1486,#711);
#596=LINE('',#1488,#712);
#597=LINE('',#1490,#713);
#598=LINE('',#1492,#714);
#599=LINE('',#1493,#715);
#600=LINE('',#1496,#716);
#601=LINE('',#1498,#717);
#602=LINE('',#1500,#718);
#603=LINE('',#1502,#719);
#604=LINE('',#1504,#720);
#605=LINE('',#1506,#721);
#606=LINE('',#1508,#722);
#607=LINE('',#1510,#723);
#608=LINE('',#1512,#724);
#609=LINE('',#1514,#725);
#610=LINE('',#1516,#726);
#611=LINE('',#1518,#727);
#612=LINE('',#1520,#728);
#613=LINE('',#1522,#729);
#614=LINE('',#1524,#730);
#615=LINE('',#1526,#731);
#616=LINE('',#1528,#732);
#617=LINE('',#1530,#733);
#618=LINE('',#1532,#734);
#619=LINE('',#1534,#735);
#620=LINE('',#1536,#736);
#621=LINE('',#1538,#737);
#622=LINE('',#1540,#738);
#623=LINE('',#1542,#739);
#624=LINE('',#1544,#740);
#625=LINE('',#1546,#741);
#626=LINE('',#1548,#742);
#627=LINE('',#1550,#743);
#628=LINE('',#1552,#744);
#629=LINE('',#1554,#745);
#630=LINE('',#1556,#746);
#631=LINE('',#1558,#747);
#632=LINE('',#1560,#748);
#633=LINE('',#1563,#749);
#634=LINE('',#1565,#750);
#635=LINE('',#1567,#751);
#636=LINE('',#1569,#752);
#637=LINE('',#1572,#753);
#638=LINE('',#1574,#754);
#639=LINE('',#1576,#755);
#640=LINE('',#1578,#756);
#641=LINE('',#1579,#757);
#642=LINE('',#1581,#758);
#643=LINE('',#1583,#759);
#644=LINE('',#1586,#760);
#645=LINE('',#1588,#761);
#646=LINE('',#1590,#762);
#647=LINE('',#1592,#763);
#648=LINE('',#1594,#764);
#649=LINE('',#1596,#765);
#650=LINE('',#1598,#766);
#651=LINE('',#1600,#767);
#652=LINE('',#1602,#768);
#653=LINE('',#1605,#769);
#654=LINE('',#1607,#770);
#655=LINE('',#1609,#771);
#656=LINE('',#1611,#772);
#657=LINE('',#1614,#773);
#658=LINE('',#1616,#774);
#659=LINE('',#1618,#775);
#660=LINE('',#1620,#776);
#661=LINE('',#1623,#777);
#662=LINE('',#1625,#778);
#663=LINE('',#1627,#779);
#664=LINE('',#1629,#780);
#665=LINE('',#1632,#781);
#666=LINE('',#1634,#782);
#667=LINE('',#1636,#783);
#668=LINE('',#1638,#784);
#669=LINE('',#1640,#785);
#670=LINE('',#1642,#786);
#671=LINE('',#1644,#787);
#672=LINE('',#1646,#788);
#673=LINE('',#1648,#789);
#674=LINE('',#1650,#790);
#675=LINE('',#1652,#791);
#676=VECTOR('',#1128,1.);
#677=VECTOR('',#1129,1.);
#678=VECTOR('',#1130,1.);
#679=VECTOR('',#1131,1.);
#680=VECTOR('',#1132,1.);
#681=VECTOR('',#1133,1.);
#682=VECTOR('',#1134,1.);
#683=VECTOR('',#1135,1.);
#684=VECTOR('',#1138,1.);
#685=VECTOR('',#1139,1.);
#686=VECTOR('',#1140,1.);
#687=VECTOR('',#1141,1.);
#688=VECTOR('',#1144,1.);
#689=VECTOR('',#1145,1.);
#690=VECTOR('',#1146,1.);
#691=VECTOR('',#1149,1.);
#692=VECTOR('',#1150,1.);
#693=VECTOR('',#1151,1.);
#694=VECTOR('',#1154,1.);
#695=VECTOR('',#1155,1.);
#696=VECTOR('',#1158,1.);
#697=VECTOR('',#1159,1.);
#698=VECTOR('',#1160,1.);
#699=VECTOR('',#1161,1.);
#700=VECTOR('',#1164,1.);
#701=VECTOR('',#1165,1.);
#702=VECTOR('',#1166,1.);
#703=VECTOR('',#1167,1.);
#704=VECTOR('',#1168,1.);
#705=VECTOR('',#1169,1.);
#706=VECTOR('',#1170,1.);
#707=VECTOR('',#1171,1.);
#708=VECTOR('',#1172,1.);
#709=VECTOR('',#1173,1.);
#710=VECTOR('',#1174,1.);
#711=VECTOR('',#1175,1.);
#712=VECTOR('',#1176,1.);
#713=VECTOR('',#1177,1.);
#714=VECTOR('',#1178,1.);
#715=VECTOR('',#1179,1.);
#716=VECTOR('',#1180,1.);
#717=VECTOR('',#1181,1.);
#718=VECTOR('',#1182,1.);
#719=VECTOR('',#1185,1.);
#720=VECTOR('',#1186,1.);
#721=VECTOR('',#1187,1.);
#722=VECTOR('',#1190,1.);
#723=VECTOR('',#1191,1.);
#724=VECTOR('',#1192,1.);
#725=VECTOR('',#1195,1.);
#726=VECTOR('',#1196,1.);
#727=VECTOR('',#1197,1.);
#728=VECTOR('',#1200,1.);
#729=VECTOR('',#1201,1.);
#730=VECTOR('',#1202,1.);
#731=VECTOR('',#1205,1.);
#732=VECTOR('',#1208,1.);
#733=VECTOR('',#1209,1.);
#734=VECTOR('',#1212,1.);
#735=VECTOR('',#1213,1.);
#736=VECTOR('',#1216,1.);
#737=VECTOR('',#1219,1.);
#738=VECTOR('',#1220,1.);
#739=VECTOR('',#1223,1.);
#740=VECTOR('',#1224,1.);
#741=VECTOR('',#1227,1.);
#742=VECTOR('',#1230,1.);
#743=VECTOR('',#1233,1.);
#744=VECTOR('',#1234,1.);
#745=VECTOR('',#1237,1.);
#746=VECTOR('',#1238,1.);
#747=VECTOR('',#1241,1.);
#748=VECTOR('',#1244,1.);
#749=VECTOR('',#1245,1.);
#750=VECTOR('',#1246,1.);
#751=VECTOR('',#1247,1.);
#752=VECTOR('',#1250,1.);
#753=VECTOR('',#1251,1.);
#754=VECTOR('',#1252,1.);
#755=VECTOR('',#1253,1.);
#756=VECTOR('',#1256,1.);
#757=VECTOR('',#1257,1.);
#758=VECTOR('',#1260,1.);
#759=VECTOR('',#1263,1.);
#760=VECTOR('',#1268,1.);
#761=VECTOR('',#1269,1.);
#762=VECTOR('',#1270,1.);
#763=VECTOR('',#1273,1.);
#764=VECTOR('',#1274,1.);
#765=VECTOR('',#1277,1.);
#766=VECTOR('',#1278,1.);
#767=VECTOR('',#1281,1.);
#768=VECTOR('',#1284,1.);
#769=VECTOR('',#1285,1.);
#770=VECTOR('',#1286,1.);
#771=VECTOR('',#1287,1.);
#772=VECTOR('',#1290,1.);
#773=VECTOR('',#1291,1.);
#774=VECTOR('',#1292,1.);
#775=VECTOR('',#1293,1.);
#776=VECTOR('',#1296,1.);
#777=VECTOR('',#1297,1.);
#778=VECTOR('',#1298,1.);
#779=VECTOR('',#1299,1.);
#780=VECTOR('',#1302,1.);
#781=VECTOR('',#1303,1.);
#782=VECTOR('',#1304,1.);
#783=VECTOR('',#1305,1.);
#784=VECTOR('',#1308,1.);
#785=VECTOR('',#1309,1.);
#786=VECTOR('',#1310,1.);
#787=VECTOR('',#1313,1.);
#788=VECTOR('',#1314,1.);
#789=VECTOR('',#1317,1.);
#790=VECTOR('',#1318,1.);
#791=VECTOR('',#1321,1.);
#792=EDGE_LOOP('',(#56,#57,#58,#59));
#793=EDGE_LOOP('',(#60,#61,#62,#63));
#794=EDGE_LOOP('',(#64,#65,#66,#67));
#795=EDGE_LOOP('',(#68,#69,#70,#71));
#796=EDGE_LOOP('',(#72,#73,#74,#75));
#797=EDGE_LOOP('',(#76,#77,#78,#79));
#798=EDGE_LOOP('',(#80,#81,#82,#83));
#799=EDGE_LOOP('',(#84,#85,#86,#87));
#800=EDGE_LOOP('',(#88,#89,#90,#91,#92,#93,#94,#95,#96,#97,#98,#99,#100,#101,#102,#103));
#801=EDGE_LOOP('',(#104,#105,#106,#107));
#802=EDGE_LOOP('',(#108,#109,#110,#111));
#803=EDGE_LOOP('',(#112,#113,#114,#115));
#804=EDGE_LOOP('',(#116,#117,#118,#119));
#805=EDGE_LOOP('',(#120,#121,#122,#123));
#806=EDGE_LOOP('',(#124,#125,#126,#127));
#807=EDGE_LOOP('',(#128,#129,#130,#131));
#808=EDGE_LOOP('',(#132,#133,#134,#135));
#809=EDGE_LOOP('',(#136,#137,#138,#139));
#810=EDGE_LOOP('',(#140,#141,#142,#143));
#811=EDGE_LOOP('',(#144,#145,#146,#147));
#812=EDGE_LOOP('',(#148,#149,#150,#151));
#813=EDGE_LOOP('',(#152,#153,#154,#155));
#814=EDGE_LOOP('',(#156,#157,#158,#159));
#815=EDGE_LOOP('',(#160,#161,#162,#163));
#816=EDGE_LOOP('',(#164,#165,#166,#167));
#817=EDGE_LOOP('',(#168,#169,#170,#171,#172,#173,#174,#175,#176,#177,#178,#179,#180,#181,#182,#183));
#818=EDGE_LOOP('',(#184,#185,#186,#187));
#819=EDGE_LOOP('',(#188,#189,#190,#191));
#820=EDGE_LOOP('',(#192,#193,#194,#195));
#821=EDGE_LOOP('',(#196,#197,#198,#199));
#822=EDGE_LOOP('',(#200,#201,#202,#203));
#823=EDGE_LOOP('',(#204,#205,#206,#207));
#824=EDGE_LOOP('',(#208,#209,#210,#211));
#825=EDGE_LOOP('',(#212,#213,#214,#215));
#826=EDGE_LOOP('',(#216,#217,#218,#219));
#827=EDGE_LOOP('',(#220,#221,#222,#223));
#828=EDGE_LOOP('',(#224,#225,#226,#227));
#829=EDGE_LOOP('',(#228,#229,#230,#231));
#830=EDGE_LOOP('',(#232,#233,#234,#235));
#831=EDGE_LOOP('',(#236,#237,#238,#239));
#832=EDGE_LOOP('',(#240,#241,#242,#243));
#833=EDGE_LOOP('',(#244,#245,#246,#247));
#834=EDGE_LOOP('',(#248,#249,#250,#251));
#835=EDGE_LOOP('',(#252,#253,#254,#255));
#836=EDGE_LOOP('',(#256,#257,#258,#259));
#837=EDGE_LOOP('',(#260,#261,#262,#263));
#838=EDGE_LOOP('',(#264,#265,#266,#267));
#839=EDGE_LOOP('',(#268,#269,#270));
#840=EDGE_LOOP('',(#271,#272,#273));
#841=EDGE_LOOP('',(#274,#275,#276,#277));
#842=EDGE_LOOP('',(#278,#279,#280,#281));
#843=EDGE_LOOP('',(#282,#283,#284,#285));
#844=EDGE_LOOP('',(#286,#287,#288,#289));
#845=EDGE_LOOP('',(#290,#291,#292,#293));
#846=EDGE_LOOP('',(#294,#295,#296,#297));
#847=EDGE_LOOP('',(#298,#299,#300));
#848=EDGE_LOOP('',(#301,#302,#303));
#849=EDGE_LOOP('',(#304,#305,#306));
#850=EDGE_LOOP('',(#307,#308,#309));
#851=EDGE_LOOP('',(#310,#311,#312,#313));
#852=EDGE_LOOP('',(#314,#315,#316,#317));
#853=EDGE_LOOP('',(#318,#319,#320,#321));
#854=EDGE_LOOP('',(#322,#323,#324,#325));
#855=EDGE_LOOP('',(#326,#327,#328));
#856=EDGE_LOOP('',(#329,#330,#331));
#857=EDGE_LOOP('',(#332,#333,#334,#335));
#858=FACE_BOUND('',#792,.T.);
#859=FACE_BOUND('',#793,.T.);
#860=FACE_BOUND('',#794,.T.);
#861=FACE_BOUND('',#795,.T.);
#862=FACE_BOUND('',#796,.T.);
#863=FACE_BOUND('',#797,.T.);
#864=FACE_BOUND('',#798,.T.);
#865=FACE_BOUND('',#799,.T.);
#866=FACE_BOUND('',#800,.T.);
#867=FACE_BOUND('',#801,.T.);
#868=FACE_BOUND('',#802,.T.);
#869=FACE_BOUND('',#803,.T.);
#870=FACE_BOUND('',#804,.T.);
#871=FACE_BOUND('',#805,.T.);
#872=FACE_BOUND('',#806,.T.);
#873=FACE_BOUND('',#807,.T.);
#874=FACE_BOUND('',#808,.T.);
#875=FACE_BOUND('',#809,.T.);
#876=FACE_BOUND('',#810,.T.);
#877=FACE_BOUND('',#811,.T.);
#878=FACE_BOUND('',#812,.T.);
#879=FACE_BOUND('',#813,.T.);
#880=FACE_BOUND('',#814,.T.);
#881=FACE_BOUND('',#815,.T.);
#882=FACE_BOUND('',#816,.T.);
#883=FACE_BOUND('',#817,.T.);
#884=FACE_BOUND('',#818,.T.);
#885=FACE_BOUND('',#819,.T.);
#886=FACE_BOUND('',#820,.T.);
#887=FACE_BOUND('',#821,.T.);
#888=FACE_BOUND('',#822,.T.);
#889=FACE_BOUND('',#823,.T.);
#890=FACE_BOUND('',#824,.T.);
#891=FACE_BOUND('',#825,.T.);
#892=FACE_BOUND('',#826,.T.);
#893=FACE_BOUND('',#827,.T.);
#894=FACE_BOUND('',#828,.T.);
#895=FACE_BOUND('',#829,.T.);
#896=FACE_BOUND('',#830,.T.);
#897=FACE_BOUND('',#831,.T.);
#898=FACE_BOUND('',#832,.T.);
#899=FACE_BOUND('',#833,.T.);
#900=FACE_BOUND('',#834,.T.);
#901=FACE_BOUND('',#835,.T.);
#902=FACE_BOUND('',#836,.T.);
#903=FACE_BOUND('',#837,.T.);
#904=FACE_BOUND('',#838,.T.);
#905=FACE_BOUND('',#839,.T.);
#906=FACE_BOUND('',#840,.T.);
#907=FACE_BOUND('',#841,.T.);
#908=FACE_BOUND('',#842,.T.);
#909=FACE_BOUND('',#843,.T.);
#910=FACE_BOUND('',#844,.T.);
#911=FACE_BOUND('',#845,.T.);
#912=FACE_BOUND('',#846,.T.);
#913=FACE_BOUND('',#847,.T.);
#914=FACE_BOUND('',#848,.T.);
#915=FACE_BOUND('',#849,.T.);
#916=FACE_BOUND('',#850,.T.);
#917=FACE_BOUND('',#851,.T.);
#918=FACE_BOUND('',#852,.T.);
#919=FACE_BOUND('',#853,.T.);
#920=FACE_BOUND('',#854,.T.);
#921=FACE_BOUND('',#855,.T.);
#922=FACE_BOUND('',#856,.T.);
#923=FACE_BOUND('',#857,.T.);
#924=PLANE('',#1039);
#925=PLANE('',#1040);
#926=PLANE('',#1041);
#927=PLANE('',#1042);
#928=PLANE('',#1043);
#929=PLANE('',#1044);
#930=PLANE('',#1045);
#931=PLANE('',#1046);
#932=PLANE('',#1047);
#933=PLANE('',#1048);
#934=PLANE('',#1049);
#935=PLANE('',#1050);
#936=PLANE('',#1051);
#937=PLANE('',#1052);
#938=PLANE('',#1053);
#939=PLANE('',#1054);
#940=PLANE('',#1055);
#941=PLANE('',#1056);
#942=PLANE('',#1057);
#943=PLANE('',#1058);
#944=PLANE('',#1059);
#945=PLANE('',#1060);
#946=PLANE('',#1061);
#947=PLANE('',#1062);
#948=PLANE('',#1063);
#949=PLANE('',#1064);
#950=PLANE('',#1065);
#951=PLANE('',#1066);
#952=PLANE('',#1067);
#953=PLANE('',#1068);
#954=PLANE('',#1069);
#955=PLANE('',#1070);
#956=PLANE('',#1071);
#957=PLANE('',#1072);
#958=PLANE('',#1073);
#959=PLANE('',#1074);
#960=PLANE('',#1075);
#961=PLANE('',#1076);
#962=PLANE('',#1077);
#963=PLANE('',#1078);
#964=PLANE('',#1079);
#965=ADVANCED_FACE('',(#858,#859),#924,.T.);
#966=ADVANCED_FACE('',(#860),#925,.T.);
#967=ADVANCED_FACE('',(#861),#926,.F.);
#968=ADVANCED_FACE('',(#862),#927,.F.);
#969=ADVANCED_FACE('',(#863),#928,.T.);
#970=ADVANCED_FACE('',(#864,#865),#929,.F.);
#971=ADVANCED_FACE('',(#866,#867),#930,.T.);
#972=ADVANCED_FACE('',(#868),#931,.F.);
#973=ADVANCED_FACE('',(#869),#932,.T.);
#974=ADVANCED_FACE('',(#870),#933,.T.);
#975=ADVANCED_FACE('',(#871),#934,.T.);
#976=ADVANCED_FACE('',(#872),#935,.F.);
#977=ADVANCED_FACE('',(#873),#936,.F.);
#978=ADVANCED_FACE('',(#874),#937,.T.);
#979=ADVANCED_FACE('',(#875),#938,.T.);
#980=ADVANCED_FACE('',(#876),#939,.F.);
#981=ADVANCED_FACE('',(#877),#940,.F.);
#982=ADVANCED_FACE('',(#878),#941,.F.);
#983=ADVANCED_FACE('',(#879),#942,.F.);
#984=ADVANCED_FACE('',(#880),#943,.F.);
#985=ADVANCED_FACE('',(#881),#944,.T.);
#986=ADVANCED_FACE('',(#882),#945,.T.);
#987=ADVANCED_FACE('',(#883,#884),#946,.T.);
#988=ADVANCED_FACE('',(#885),#947,.T.);
#989=ADVANCED_FACE('',(#886),#948,.T.);
#990=ADVANCED_FACE('',(#887),#949,.F.);
#991=ADVANCED_FACE('',(#888),#950,.F.);
#992=ADVANCED_FACE('',(#889),#951,.T.);
#993=ADVANCED_FACE('',(#890),#952,.F.);
#994=ADVANCED_FACE('',(#891),#953,.T.);
#995=ADVANCED_FACE('',(#892),#954,.T.);
#996=ADVANCED_FACE('',(#893),#955,.F.);
#997=ADVANCED_FACE('',(#894),#956,.T.);
#998=ADVANCED_FACE('',(#895),#957,.F.);
#999=ADVANCED_FACE('',(#896),#958,.F.);
#1000=ADVANCED_FACE('',(#897),#959,.F.);
#1001=ADVANCED_FACE('',(#898),#960,.T.);
#1002=ADVANCED_FACE('',(#899),#961,.F.);
#1003=ADVANCED_FACE('',(#900),#962,.F.);
#1004=ADVANCED_FACE('',(#901),#963,.T.);
#1005=ADVANCED_FACE('',(#902,#903),#964,.T.);
#1006=ADVANCED_FACE('',(#904),#44,.T.);
#1007=ADVANCED_FACE('',(#905),#12,.T.);
#1008=ADVANCED_FACE('',(#906),#13,.T.);
#1009=ADVANCED_FACE('',(#907),#45,.T.);
#1010=ADVANCED_FACE('',(#908),#46,.T.);
#1011=ADVANCED_FACE('',(#909),#47,.T.);
#1012=ADVANCED_FACE('',(#910),#48,.T.);
#1013=ADVANCED_FACE('',(#911),#49,.T.);
#1014=ADVANCED_FACE('',(#912),#50,.T.);
#1015=ADVANCED_FACE('',(#913),#14,.T.);
#1016=ADVANCED_FACE('',(#914),#15,.T.);
#1017=ADVANCED_FACE('',(#915),#16,.T.);
#1018=ADVANCED_FACE('',(#916),#17,.T.);
#1019=ADVANCED_FACE('',(#917),#51,.T.);
#1020=ADVANCED_FACE('',(#918),#52,.T.);
#1021=ADVANCED_FACE('',(#919),#53,.T.);
#1022=ADVANCED_FACE('',(#920),#54,.T.);
#1023=ADVANCED_FACE('',(#921),#18,.T.);
#1024=ADVANCED_FACE('',(#922),#19,.T.);
#1025=ADVANCED_FACE('',(#923),#55,.T.);
#1026=CLOSED_SHELL('',(#965,#966,#967,#968,#969,#970,#971,#972,#973,#974,#975,#976,#977,#978,#979,#980,#981,#982,#983,#984,#985,#986,#987,#988,#989,#990,#991,#992,#993,#994,#995,#996,#997,#998,#999,#1000,#1001,#1002,#1003,#1004,#1005,#1006,#1007,#1008,#1009,#1010,#1011,#1012,#1013,#1014,#1015,#1016,#1017,#1018,#1019,#1020,#1021,#1022,#1023,#1024,#1025));
#1027=STYLED_ITEM('',(#1028),#1035);
#1028=PRESENTATION_STYLE_ASSIGNMENT((#1029));
#1029=SURFACE_STYLE_USAGE(.BOTH.,#1030);
#1030=SURFACE_SIDE_STYLE('',(#1031));
#1031=SURFACE_STYLE_FILL_AREA(#1032);
#1032=FILL_AREA_STYLE('',(#1033));
#1033=FILL_AREA_STYLE_COLOUR('',#1034);
#1034=COLOUR_RGB('',0.615686274509804,0.811764705882353,0.929411764705882);
#1035=MANIFOLD_SOLID_BREP('Part 1',#1026);
#1036=SHAPE_DEFINITION_REPRESENTATION(#1704,#1037);
#1037=SHAPE_REPRESENTATION('Part 1',(#1038),#1699);
#1038=AXIS2_PLACEMENT_3D('',#1412,#1124,#1125);
#1039=AXIS2_PLACEMENT_3D('',#1413,#1126,#1127);
#1040=AXIS2_PLACEMENT_3D('',#1430,#1136,#1137);
#1041=AXIS2_PLACEMENT_3D('',#1439,#1142,#1143);
#1042=AXIS2_PLACEMENT_3D('',#1445,#1147,#1148);
#1043=AXIS2_PLACEMENT_3D('',#1451,#1152,#1153);
#1044=AXIS2_PLACEMENT_3D('',#1454,#1156,#1157);
#1045=AXIS2_PLACEMENT_3D('',#1463,#1162,#1163);
#1046=AXIS2_PLACEMENT_3D('',#1501,#1183,#1184);
#1047=AXIS2_PLACEMENT_3D('',#1507,#1188,#1189);
#1048=AXIS2_PLACEMENT_3D('',#1513,#1193,#1194);
#1049=AXIS2_PLACEMENT_3D('',#1519,#1198,#1199);
#1050=AXIS2_PLACEMENT_3D('',#1525,#1203,#1204);
#1051=AXIS2_PLACEMENT_3D('',#1527,#1206,#1207);
#1052=AXIS2_PLACEMENT_3D('',#1531,#1210,#1211);
#1053=AXIS2_PLACEMENT_3D('',#1535,#1214,#1215);
#1054=AXIS2_PLACEMENT_3D('',#1537,#1217,#1218);
#1055=AXIS2_PLACEMENT_3D('',#1541,#1221,#1222);
#1056=AXIS2_PLACEMENT_3D('',#1545,#1225,#1226);
#1057=AXIS2_PLACEMENT_3D('',#1547,#1228,#1229);
#1058=AXIS2_PLACEMENT_3D('',#1549,#1231,#1232);
#1059=AXIS2_PLACEMENT_3D('',#1553,#1235,#1236);
#1060=AXIS2_PLACEMENT_3D('',#1557,#1239,#1240);
#1061=AXIS2_PLACEMENT_3D('',#1559,#1242,#1243);
#1062=AXIS2_PLACEMENT_3D('',#1568,#1248,#1249);
#1063=AXIS2_PLACEMENT_3D('',#1577,#1254,#1255);
#1064=AXIS2_PLACEMENT_3D('',#1580,#1258,#1259);
#1065=AXIS2_PLACEMENT_3D('',#1582,#1261,#1262);
#1066=AXIS2_PLACEMENT_3D('',#1584,#1264,#1265);
#1067=AXIS2_PLACEMENT_3D('',#1585,#1266,#1267);
#1068=AXIS2_PLACEMENT_3D('',#1591,#1271,#1272);
#1069=AXIS2_PLACEMENT_3D('',#1595,#1275,#1276);
#1070=AXIS2_PLACEMENT_3D('',#1599,#1279,#1280);
#1071=AXIS2_PLACEMENT_3D('',#1601,#1282,#1283);
#1072=AXIS2_PLACEMENT_3D('',#1610,#1288,#1289);
#1073=AXIS2_PLACEMENT_3D('',#1619,#1294,#1295);
#1074=AXIS2_PLACEMENT_3D('',#1628,#1300,#1301);
#1075=AXIS2_PLACEMENT_3D('',#1637,#1306,#1307);
#1076=AXIS2_PLACEMENT_3D('',#1643,#1311,#1312);
#1077=AXIS2_PLACEMENT_3D('',#1647,#1315,#1316);
#1078=AXIS2_PLACEMENT_3D('',#1651,#1319,#1320);
#1079=AXIS2_PLACEMENT_3D('',#1653,#1322,#1323);
#1080=AXIS2_PLACEMENT_3D('',#1654,#1324,#1325);
#1081=AXIS2_PLACEMENT_3D('',#1655,#1326,#1327);
#1082=AXIS2_PLACEMENT_3D('',#1656,#1328,#1329);
#1083=AXIS2_PLACEMENT_3D('',#1657,#1330,#1331);
#1084=AXIS2_PLACEMENT_3D('',#1658,#1332,#1333);
#1085=AXIS2_PLACEMENT_3D('',#1659,#1334,#1335);
#1086=AXIS2_PLACEMENT_3D('',#1660,#1336,#1337);
#1087=AXIS2_PLACEMENT_3D('',#1661,#1338,#1339);
#1088=AXIS2_PLACEMENT_3D('',#1662,#1340,#1341);
#1089=AXIS2_PLACEMENT_3D('',#1663,#1342,#1343);
#1090=AXIS2_PLACEMENT_3D('',#1664,#1344,#1345);
#1091=AXIS2_PLACEMENT_3D('',#1665,#1346,#1347);
#1092=AXIS2_PLACEMENT_3D('',#1666,#1348,#1349);
#1093=AXIS2_PLACEMENT_3D('',#1667,#1350,#1351);
#1094=AXIS2_PLACEMENT_3D('',#1668,#1352,#1353);
#1095=AXIS2_PLACEMENT_3D('',#1669,#1354,#1355);
#1096=AXIS2_PLACEMENT_3D('',#1670,#1356,#1357);
#1097=AXIS2_PLACEMENT_3D('',#1671,#1358,#1359);
#1098=AXIS2_PLACEMENT_3D('',#1672,#1360,#1361);
#1099=AXIS2_PLACEMENT_3D('',#1673,#1362,#1363);
#1100=AXIS2_PLACEMENT_3D('',#1674,#1364,#1365);
#1101=AXIS2_PLACEMENT_3D('',#1675,#1366,#1367);
#1102=AXIS2_PLACEMENT_3D('',#1676,#1368,#1369);
#1103=AXIS2_PLACEMENT_3D('',#1677,#1370,#1371);
#1104=AXIS2_PLACEMENT_3D('',#1678,#1372,#1373);
#1105=AXIS2_PLACEMENT_3D('',#1679,#1374,#1375);
#1106=AXIS2_PLACEMENT_3D('',#1680,#1376,#1377);
#1107=AXIS2_PLACEMENT_3D('',#1681,#1378,#1379);
#1108=AXIS2_PLACEMENT_3D('',#1682,#1380,#1381);
#1109=AXIS2_PLACEMENT_3D('',#1683,#1382,#1383);
#1110=AXIS2_PLACEMENT_3D('',#1684,#1384,#1385);
#1111=AXIS2_PLACEMENT_3D('',#1685,#1386,#1387);
#1112=AXIS2_PLACEMENT_3D('',#1686,#1388,#1389);
#1113=AXIS2_PLACEMENT_3D('',#1687,#1390,#1391);
#1114=AXIS2_PLACEMENT_3D('',#1688,#1392,#1393);
#1115=AXIS2_PLACEMENT_3D('',#1689,#1394,#1395);
#1116=AXIS2_PLACEMENT_3D('',#1690,#1396,#1397);
#1117=AXIS2_PLACEMENT_3D('',#1691,#1398,#1399);
#1118=AXIS2_PLACEMENT_3D('',#1692,#1400,#1401);
#1119=AXIS2_PLACEMENT_3D('',#1693,#1402,#1403);
#1120=AXIS2_PLACEMENT_3D('',#1694,#1404,#1405);
#1121=AXIS2_PLACEMENT_3D('',#1695,#1406,#1407);
#1122=AXIS2_PLACEMENT_3D('',#1696,#1408,#1409);
#1123=AXIS2_PLACEMENT_3D('',#1697,#1410,#1411);
#1124=DIRECTION('',(0.,0.,1.));
#1125=DIRECTION('',(1.,0.,0.));
#1126=DIRECTION('',(0.,1.,0.));
#1127=DIRECTION('',(0.,0.,1.));
#1128=DIRECTION('',(0.,0.,-1.));
#1129=DIRECTION('',(1.,0.,0.));
#1130=DIRECTION('',(0.,0.,-1.));
#1131=DIRECTION('',(1.,0.,0.));
#1132=DIRECTION('',(0.,0.,-1.));
#1133=DIRECTION('',(-1.,0.,0.));
#1134=DIRECTION('',(0.,0.,-1.));
#1135=DIRECTION('',(-1.,0.,0.));
#1136=DIRECTION('',(0.,0.,-1.));
#1137=DIRECTION('',(-1.,0.,0.));
#1138=DIRECTION('',(0.,1.,0.));
#1139=DIRECTION('',(-1.,0.,0.));
#1140=DIRECTION('',(0.,1.,0.));
#1141=DIRECTION('',(-1.,0.,0.));
#1142=DIRECTION('',(1.,0.,0.));
#1143=DIRECTION('',(0.,0.,-1.));
#1144=DIRECTION('',(0.,0.,-1.));
#1145=DIRECTION('',(0.,1.,0.));
#1146=DIRECTION('',(0.,0.,-1.));
#1147=DIRECTION('',(0.,0.,-1.));
#1148=DIRECTION('',(-1.,0.,0.));
#1149=DIRECTION('',(-1.,0.,0.));
#1150=DIRECTION('',(0.,1.,0.));
#1151=DIRECTION('',(-1.,0.,0.));
#1152=DIRECTION('',(1.,0.,0.));
#1153=DIRECTION('',(0.,0.,-1.));
#1154=DIRECTION('',(0.,0.,-1.));
#1155=DIRECTION('',(0.,0.,-1.));
#1156=DIRECTION('',(0.,1.,0.));
#1157=DIRECTION('',(0.,0.,1.));
#1158=DIRECTION('',(0.,0.,-1.));
#1159=DIRECTION('',(1.,0.,0.));
#1160=DIRECTION('',(0.,0.,-1.));
#1161=DIRECTION('',(1.,0.,0.));
#1162=DIRECTION('',(0.,0.,1.));
#1163=DIRECTION('',(1.,0.,0.));
#1164=DIRECTION('',(-1.,0.,0.));
#1165=DIRECTION('',(0.,1.,0.));
#1166=DIRECTION('',(1.,0.,0.));
#1167=DIRECTION('',(0.,1.,0.));
#1168=DIRECTION('',(1.,0.,0.));
#1169=DIRECTION('',(0.,1.,0.));
#1170=DIRECTION('',(1.,0.,0.));
#1171=DIRECTION('',(0.,1.,0.));
#1172=DIRECTION('',(1.,0.,0.));
#1173=DIRECTION('',(0.,1.,0.));
#1174=DIRECTION('',(0.,1.,0.));
#1175=DIRECTION('',(1.,0.,0.));
#1176=DIRECTION('',(0.,-1.,0.));
#1177=DIRECTION('',(-1.,0.,0.));
#1178=DIRECTION('',(-9.25185853854297E-17,1.,0.));
#1179=DIRECTION('',(1.,0.,0.));
#1180=DIRECTION('',(0.,1.,0.));
#1181=DIRECTION('',(1.,0.,0.));
#1182=DIRECTION('',(0.,1.,0.));
#1183=DIRECTION('',(0.,-1.,0.));
#1184=DIRECTION('',(0.,0.,-1.));
#1185=DIRECTION('',(0.,0.,-1.));
#1186=DIRECTION('',(0.,0.,-1.));
#1187=DIRECTION('',(-1.,0.,0.));
#1188=DIRECTION('',(0.,1.,0.));
#1189=DIRECTION('',(0.,0.,1.));
#1190=DIRECTION('',(0.,0.,-1.));
#1191=DIRECTION('',(1.,0.,0.));
#1192=DIRECTION('',(0.,0.,-1.));
#1193=DIRECTION('',(0.,1.,0.));
#1194=DIRECTION('',(0.,0.,1.));
#1195=DIRECTION('',(0.,0.,-1.));
#1196=DIRECTION('',(1.,0.,0.));
#1197=DIRECTION('',(0.,0.,-1.));
#1198=DIRECTION('',(0.,-1.,0.));
#1199=DIRECTION('',(0.,0.,-1.));
#1200=DIRECTION('',(0.,0.,-1.));
#1201=DIRECTION('',(-1.,0.,0.));
#1202=DIRECTION('',(0.,0.,-1.));
#1203=DIRECTION('',(-1.,-9.25185853854297E-17,0.));
#1204=DIRECTION('',(9.25185853854297E-17,-1.,0.));
#1205=DIRECTION('',(-9.25185853854297E-17,1.,0.));
#1206=DIRECTION('',(-1.,0.,0.));
#1207=DIRECTION('',(0.,0.,1.));
#1208=DIRECTION('',(0.,0.,-1.));
#1209=DIRECTION('',(0.,1.,0.));
#1210=DIRECTION('',(0.,1.,0.));
#1211=DIRECTION('',(0.,0.,1.));
#1212=DIRECTION('',(0.,0.,-1.));
#1213=DIRECTION('',(1.,0.,0.));
#1214=DIRECTION('',(-1.,0.,0.));
#1215=DIRECTION('',(0.,0.,1.));
#1216=DIRECTION('',(0.,1.,0.));
#1217=DIRECTION('',(1.,0.,0.));
#1218=DIRECTION('',(0.,0.,-1.));
#1219=DIRECTION('',(0.,0.,-1.));
#1220=DIRECTION('',(0.,-1.,0.));
#1221=DIRECTION('',(0.,1.,0.));
#1222=DIRECTION('',(0.,0.,1.));
#1223=DIRECTION('',(0.,0.,-1.));
#1224=DIRECTION('',(1.,0.,0.));
#1225=DIRECTION('',(-1.,0.,0.));
#1226=DIRECTION('',(0.,0.,1.));
#1227=DIRECTION('',(0.,1.,0.));
#1228=DIRECTION('',(1.,0.,0.));
#1229=DIRECTION('',(0.,0.,-1.));
#1230=DIRECTION('',(0.,-1.,0.));
#1231=DIRECTION('',(-1.,0.,0.));
#1232=DIRECTION('',(0.,0.,1.));
#1233=DIRECTION('',(0.,0.,-1.));
#1234=DIRECTION('',(0.,1.,0.));
#1235=DIRECTION('',(0.,1.,0.));
#1236=DIRECTION('',(0.,0.,1.));
#1237=DIRECTION('',(0.,0.,-1.));
#1238=DIRECTION('',(1.,0.,0.));
#1239=DIRECTION('',(-1.,0.,0.));
#1240=DIRECTION('',(0.,0.,1.));
#1241=DIRECTION('',(0.,1.,0.));
#1242=DIRECTION('',(0.,0.,1.));
#1243=DIRECTION('',(1.,0.,0.));
#1244=DIRECTION('',(0.,1.,0.));
#1245=DIRECTION('',(1.,0.,0.));
#1246=DIRECTION('',(0.,1.,0.));
#1247=DIRECTION('',(1.,0.,0.));
#1248=DIRECTION('',(0.,0.,1.));
#1249=DIRECTION('',(1.,0.,0.));
#1250=DIRECTION('',(0.,1.,0.));
#1251=DIRECTION('',(1.,0.,0.));
#1252=DIRECTION('',(0.,1.,0.));
#1253=DIRECTION('',(1.,0.,0.));
#1254=DIRECTION('',(0.,1.,0.));
#1255=DIRECTION('',(0.,0.,1.));
#1256=DIRECTION('',(0.,0.,-1.));
#1257=DIRECTION('',(0.,0.,-1.));
#1258=DIRECTION('',(-1.,0.,0.));
#1259=DIRECTION('',(0.,0.,1.));
#1260=DIRECTION('',(0.,0.,-1.));
#1261=DIRECTION('',(0.,1.,0.));
#1262=DIRECTION('',(0.,0.,1.));
#1263=DIRECTION('',(0.,0.,-1.));
#1264=DIRECTION('',(-1.,0.,0.));
#1265=DIRECTION('',(0.,0.,1.));
#1266=DIRECTION('',(-1.,0.,0.));
#1267=DIRECTION('',(0.,0.,1.));
#1268=DIRECTION('',(0.,0.,-1.));
#1269=DIRECTION('',(0.,0.,-1.));
#1270=DIRECTION('',(0.,1.,0.));
#1271=DIRECTION('',(0.,1.,0.));
#1272=DIRECTION('',(0.,0.,1.));
#1273=DIRECTION('',(1.,0.,0.));
#1274=DIRECTION('',(0.,0.,-1.));
#1275=DIRECTION('',(-1.,0.,0.));
#1276=DIRECTION('',(0.,0.,1.));
#1277=DIRECTION('',(0.,1.,0.));
#1278=DIRECTION('',(0.,0.,-1.));
#1279=DIRECTION('',(0.,1.,0.));
#1280=DIRECTION('',(0.,0.,1.));
#1281=DIRECTION('',(1.,0.,0.));
#1282=DIRECTION('',(-1.,0.,0.));
#1283=DIRECTION('',(0.,0.,1.));
#1284=DIRECTION('',(0.,0.,-1.));
#1285=DIRECTION('',(0.,1.,0.));
#1286=DIRECTION('',(0.,0.,-1.));
#1287=DIRECTION('',(0.,1.,0.));
#1288=DIRECTION('',(0.,1.,0.));
#1289=DIRECTION('',(0.,0.,1.));
#1290=DIRECTION('',(1.,0.,0.));
#1291=DIRECTION('',(0.,0.,-1.));
#1292=DIRECTION('',(1.,0.,0.));
#1293=DIRECTION('',(0.,0.,-1.));
#1294=DIRECTION('',(-1.,0.,0.));
#1295=DIRECTION('',(0.,0.,1.));
#1296=DIRECTION('',(0.,0.,-1.));
#1297=DIRECTION('',(0.,1.,0.));
#1298=DIRECTION('',(0.,0.,-1.));
#1299=DIRECTION('',(0.,1.,0.));
#1300=DIRECTION('',(0.,0.,1.));
#1301=DIRECTION('',(1.,0.,0.));
#1302=DIRECTION('',(1.,0.,0.));
#1303=DIRECTION('',(0.,1.,0.));
#1304=DIRECTION('',(1.,0.,0.));
#1305=DIRECTION('',(0.,1.,0.));
#1306=DIRECTION('',(0.,0.,-1.));
#1307=DIRECTION('',(-1.,0.,0.));
#1308=DIRECTION('',(0.,1.,0.));
#1309=DIRECTION('',(-1.,0.,0.));
#1310=DIRECTION('',(0.,1.,0.));
#1311=DIRECTION('',(1.,0.,0.));
#1312=DIRECTION('',(0.,0.,-1.));
#1313=DIRECTION('',(0.,1.,0.));
#1314=DIRECTION('',(0.,0.,-1.));
#1315=DIRECTION('',(0.,0.,-1.));
#1316=DIRECTION('',(-1.,0.,0.));
#1317=DIRECTION('',(0.,1.,0.));
#1318=DIRECTION('',(-1.,0.,0.));
#1319=DIRECTION('',(1.,0.,0.));
#1320=DIRECTION('',(0.,0.,-1.));
#1321=DIRECTION('',(0.,0.,-1.));
#1322=DIRECTION('',(0.,1.,0.));
#1323=DIRECTION('',(-1.,0.,0.));
#1324=DIRECTION('',(0.,1.,0.));
#1325=DIRECTION('',(0.,0.,1.));
#1326=DIRECTION('',(0.,-1.,0.));
#1327=DIRECTION('',(0.,0.,-1.));
#1328=DIRECTION('',(0.,1.,0.));
#1329=DIRECTION('',(0.,0.,1.));
#1330=DIRECTION('',(-1.,0.,0.));
#1331=DIRECTION('',(0.,0.,1.));
#1332=DIRECTION('',(-1.,0.,0.));
#1333=DIRECTION('',(0.,0.,1.));
#1334=DIRECTION('',(0.,0.,1.));
#1335=DIRECTION('',(1.,0.,0.));
#1336=DIRECTION('',(0.,0.,1.));
#1337=DIRECTION('',(1.,0.,0.));
#1338=DIRECTION('',(0.,0.,1.));
#1339=DIRECTION('',(1.,0.,0.));
#1340=DIRECTION('',(-1.,0.,0.));
#1341=DIRECTION('',(0.,0.,1.));
#1342=DIRECTION('',(0.,0.,1.));
#1343=DIRECTION('',(1.,0.,0.));
#1344=DIRECTION('',(-8.67361737988403E-16,0.,-1.));
#1345=DIRECTION('',(-1.,0.,8.67361737988403E-16));
#1346=DIRECTION('',(-1.,0.,0.));
#1347=DIRECTION('',(0.,0.,1.));
#1348=DIRECTION('',(1.,0.,0.));
#1349=DIRECTION('',(0.,0.,-1.));
#1350=DIRECTION('',(0.,-1.,0.));
#1351=DIRECTION('',(0.,0.,-1.));
#1352=DIRECTION('',(0.,1.,0.));
#1353=DIRECTION('',(0.,0.,1.));
#1354=DIRECTION('',(0.,-1.,0.));
#1355=DIRECTION('',(0.,0.,-1.));
#1356=DIRECTION('',(1.,0.,0.));
#1357=DIRECTION('',(0.,0.,-1.));
#1358=DIRECTION('',(1.,0.,0.));
#1359=DIRECTION('',(0.,0.,-1.));
#1360=DIRECTION('',(0.,0.,-1.));
#1361=DIRECTION('',(-1.,0.,0.));
#1362=DIRECTION('',(0.,0.,-1.));
#1363=DIRECTION('',(-1.,0.,0.));
#1364=DIRECTION('',(0.,-1.,0.));
#1365=DIRECTION('',(0.,0.,-1.));
#1366=DIRECTION('',(0.,-1.,0.));
#1367=DIRECTION('',(0.,0.,-1.));
#1368=DIRECTION('',(0.,1.,0.));
#1369=DIRECTION('',(0.,0.,1.));
#1370=DIRECTION('',(-1.,0.,0.));
#1371=DIRECTION('',(0.,0.,1.));
#1372=DIRECTION('',(-1.,0.,0.));
#1373=DIRECTION('',(0.,0.,1.));
#1374=DIRECTION('',(0.,0.,1.));
#1375=DIRECTION('',(1.,0.,0.));
#1376=DIRECTION('',(0.,0.,1.));
#1377=DIRECTION('',(1.,0.,0.));
#1378=DIRECTION('',(0.,0.,1.));
#1379=DIRECTION('',(1.,0.,0.));
#1380=DIRECTION('',(0.,0.,1.));
#1381=DIRECTION('',(1.,0.,0.));
#1382=DIRECTION('',(-1.,0.,0.));
#1383=DIRECTION('',(0.,0.,1.));
#1384=DIRECTION('',(-1.,0.,0.));
#1385=DIRECTION('',(0.,0.,1.));
#1386=DIRECTION('',(1.,0.,0.));
#1387=DIRECTION('',(0.,0.,-1.));
#1388=DIRECTION('',(1.,0.,0.));
#1389=DIRECTION('',(0.,0.,-1.));
#1390=DIRECTION('',(0.,0.,-1.));
#1391=DIRECTION('',(-1.,0.,0.));
#1392=DIRECTION('',(0.,0.,-1.));
#1393=DIRECTION('',(-1.,0.,0.));
#1394=DIRECTION('',(0.,0.,1.));
#1395=DIRECTION('',(1.,0.,0.));
#1396=DIRECTION('',(-8.67361737988403E-16,0.,-1.));
#1397=DIRECTION('',(-1.,0.,8.67361737988403E-16));
#1398=DIRECTION('',(-1.,0.,0.));
#1399=DIRECTION('',(0.,0.,1.));
#1400=DIRECTION('',(1.,0.,0.));
#1401=DIRECTION('',(0.,0.,-1.));
#1402=DIRECTION('',(0.,-1.,-8.67361737988403E-16));
#1403=DIRECTION('',(0.,8.67361737988403E-16,-1.));
#1404=DIRECTION('',(0.,-1.,0.));
#1405=DIRECTION('',(0.,0.,-1.));
#1406=DIRECTION('',(0.,1.,0.));
#1407=DIRECTION('',(0.,0.,1.));
#1408=DIRECTION('',(0.,1.,0.));
#1409=DIRECTION('',(0.,0.,1.));
#1410=DIRECTION('',(0.,1.,0.));
#1411=DIRECTION('',(0.,0.,1.));
#1412=CARTESIAN_POINT('',(0.,0.,0.));
#1413=CARTESIAN_POINT('',(0.00950102591057213,0.126508289767966,0.02));
#1414=CARTESIAN_POINT('',(0.0595010259105721,0.126508289767966,0.));
#1415=CARTESIAN_POINT('',(0.0595010259105721,0.126508289767966,0.018));
#1416=CARTESIAN_POINT('',(0.0595010259105721,0.126508289767966,0.002));
#1417=CARTESIAN_POINT('',(-0.0424989740894279,0.126508289767966,0.002));
#1418=CARTESIAN_POINT('',(-0.0404989740894279,0.126508289767966,0.002));
#1419=CARTESIAN_POINT('',(-0.0404989740894279,0.126508289767966,0.02));
#1420=CARTESIAN_POINT('',(-0.0404989740894279,0.126508289767966,0.018));
#1421=CARTESIAN_POINT('',(0.00950102591057213,0.126508289767966,0.018));
#1422=CARTESIAN_POINT('',(0.0495010259105721,0.126508289767966,0.007));
#1423=CARTESIAN_POINT('',(0.0495010259105721,0.126508289767966,0.0105));
#1424=CARTESIAN_POINT('',(0.0495010259105721,0.126508289767966,0.0035));
#1425=CARTESIAN_POINT('',(0.0425010259105722,0.126508289767966,0.0105));
#1426=CARTESIAN_POINT('',(0.0355010259105721,0.126508289767966,0.0105));
#1427=CARTESIAN_POINT('',(0.0355010259105721,0.126508289767966,0.007));
#1428=CARTESIAN_POINT('',(0.0355010259105721,0.126508289767966,0.0035));
#1429=CARTESIAN_POINT('',(0.0425010259105722,0.126508289767966,0.0035));
#1430=CARTESIAN_POINT('',(0.0425010259105722,0.101508289767966,0.009));
#1431=CARTESIAN_POINT('',(0.0375010259105721,0.101508289767966,0.009));
#1432=CARTESIAN_POINT('',(0.0375010259105721,0.119508289767966,0.009));
#1433=CARTESIAN_POINT('',(0.0375010259105721,0.121008289767966,0.009));
#1434=CARTESIAN_POINT('',(0.0425010259105722,0.121008289767966,0.009));
#1435=CARTESIAN_POINT('',(0.0475010259105721,0.121008289767966,0.009));
#1436=CARTESIAN_POINT('',(0.0475010259105721,0.101508289767966,0.009));
#1437=CARTESIAN_POINT('',(0.0475010259105721,0.119508289767966,0.009));
#1438=CARTESIAN_POINT('',(0.00400102591057212,0.119508289767966,0.009));
#1439=CARTESIAN_POINT('',(0.0475010259105721,0.101508289767966,0.007));
#1440=CARTESIAN_POINT('',(0.0475010259105721,0.121008289767966,0.007));
#1441=CARTESIAN_POINT('',(0.0475010259105721,0.121008289767966,0.005));
#1442=CARTESIAN_POINT('',(0.0475010259105721,0.101508289767966,0.005));
#1443=CARTESIAN_POINT('',(0.0475010259105721,0.119508289767966,0.005));
#1444=CARTESIAN_POINT('',(0.0475010259105721,0.119508289767966,0.016));
#1445=CARTESIAN_POINT('',(0.0425010259105722,0.101508289767966,0.005));
#1446=CARTESIAN_POINT('',(0.0425010259105722,0.121008289767966,0.005));
#1447=CARTESIAN_POINT('',(0.0375010259105721,0.121008289767966,0.005));
#1448=CARTESIAN_POINT('',(0.0375010259105721,0.101508289767966,0.005));
#1449=CARTESIAN_POINT('',(0.0375010259105721,0.119508289767966,0.005));
#1450=CARTESIAN_POINT('',(0.00400102591057212,0.119508289767966,0.005));
#1451=CARTESIAN_POINT('',(0.0375010259105721,0.101508289767966,0.007));
#1452=CARTESIAN_POINT('',(0.0375010259105721,0.121008289767966,0.007));
#1453=CARTESIAN_POINT('',(0.0375010259105721,0.119508289767966,0.016));
#1454=CARTESIAN_POINT('',(0.00400102591057212,0.119508289767966,0.016));
#1455=CARTESIAN_POINT('',(-0.0184989740894279,0.119508289767966,0.016));
#1456=CARTESIAN_POINT('',(-0.0184989740894279,0.119508289767966,0.016));
#1457=CARTESIAN_POINT('',(-0.0184989740894279,0.119508289767966,0.003));
#1458=CARTESIAN_POINT('',(0.00400102591057212,0.119508289767966,0.003));
#1459=CARTESIAN_POINT('',(0.0535010259105721,0.119508289767966,0.003));
#1460=CARTESIAN_POINT('',(0.0535010259105721,0.119508289767966,0.016));
#1461=CARTESIAN_POINT('',(0.0535010259105721,0.119508289767966,0.016));
#1462=CARTESIAN_POINT('',(0.00400102591057212,0.119508289767966,0.016));
#1463=CARTESIAN_POINT('',(0.00950102591057212,0.044508289767966,0.003));
#1464=CARTESIAN_POINT('',(-0.0284989740894279,-0.030491710232034,0.003));
#1465=CARTESIAN_POINT('',(-0.0224989740894279,-0.030491710232034,0.003));
#1466=CARTESIAN_POINT('',(-0.0344989740894278,-0.030491710232034,0.003));
#1467=CARTESIAN_POINT('',(-0.0224989740894279,-0.025491710232034,0.003));
#1468=CARTESIAN_POINT('',(-0.0224989740894279,-0.020491710232034,0.003));
#1469=CARTESIAN_POINT('',(-0.0204989740894279,-0.020491710232034,0.003));
#1470=CARTESIAN_POINT('',(-0.0184989740894279,-0.020491710232034,0.003));
#1471=CARTESIAN_POINT('',(-0.0184989740894279,-0.025491710232034,0.003));
#1472=CARTESIAN_POINT('',(-0.0184989740894279,-0.030491710232034,0.003));
#1473=CARTESIAN_POINT('',(0.00400102591057212,-0.030491710232034,0.003));
#1474=CARTESIAN_POINT('',(0.0265010259105721,-0.030491710232034,0.003));
#1475=CARTESIAN_POINT('',(0.0265010259105721,-0.025491710232034,0.003));
#1476=CARTESIAN_POINT('',(0.0265010259105721,-0.020491710232034,0.003));
#1477=CARTESIAN_POINT('',(0.0290010259105722,-0.020491710232034,0.003));
#1478=CARTESIAN_POINT('',(0.0315010259105721,-0.020491710232034,0.003));
#1479=CARTESIAN_POINT('',(0.0315010259105721,-0.025491710232034,0.003));
#1480=CARTESIAN_POINT('',(0.0315010259105721,-0.030491710232034,0.003));
#1481=CARTESIAN_POINT('',(0.0425010259105722,-0.030491710232034,0.003));
#1482=CARTESIAN_POINT('',(0.0535010259105721,-0.030491710232034,0.003));
#1483=CARTESIAN_POINT('',(0.0535010259105721,0.033258289767966,0.003));
#1484=CARTESIAN_POINT('',(-0.0184989740894279,0.114508289767966,0.003));
#1485=CARTESIAN_POINT('',(-0.0184989740894279,0.109508289767966,0.003));
#1486=CARTESIAN_POINT('',(-0.0204989740894279,0.109508289767966,0.003));
#1487=CARTESIAN_POINT('',(-0.0224989740894279,0.109508289767966,0.003));
#1488=CARTESIAN_POINT('',(-0.0224989740894279,0.114508289767966,0.003));
#1489=CARTESIAN_POINT('',(-0.0224989740894279,0.119508289767966,0.003));
#1490=CARTESIAN_POINT('',(-0.0284989740894279,0.119508289767966,0.003));
#1491=CARTESIAN_POINT('',(-0.0344989740894279,0.119508289767966,0.003));
#1492=CARTESIAN_POINT('',(-0.0344989740894278,0.044508289767966,0.003));
#1493=CARTESIAN_POINT('',(0.0290010259105721,0.0719822552513974,0.003));
#1494=CARTESIAN_POINT('',(0.0265010259105721,0.0719822552513974,0.003));
#1495=CARTESIAN_POINT('',(0.0315010259105721,0.0719822552513974,0.003));
#1496=CARTESIAN_POINT('',(0.0265010259105721,0.0769822552513974,0.003));
#1497=CARTESIAN_POINT('',(0.0265010259105721,0.0819822552513974,0.003));
#1498=CARTESIAN_POINT('',(0.0290010259105721,0.0819822552513974,0.003));
#1499=CARTESIAN_POINT('',(0.0315010259105721,0.0819822552513974,0.003));
#1500=CARTESIAN_POINT('',(0.0315010259105721,0.0769822552513974,0.003));
#1501=CARTESIAN_POINT('',(-0.0284989740894279,-0.030491710232034,0.016));
#1502=CARTESIAN_POINT('',(-0.0224989740894279,-0.030491710232034,0.016));
#1503=CARTESIAN_POINT('',(-0.0224989740894279,-0.030491710232034,0.016));
#1504=CARTESIAN_POINT('',(-0.0344989740894278,-0.030491710232034,0.016));
#1505=CARTESIAN_POINT('',(-0.0344989740894278,-0.030491710232034,0.016));
#1506=CARTESIAN_POINT('',(-0.0284989740894279,-0.030491710232034,0.016));
#1507=CARTESIAN_POINT('',(0.00400102591057212,-0.030491710232034,0.016));
#1508=CARTESIAN_POINT('',(-0.0184989740894279,-0.030491710232034,0.016));
#1509=CARTESIAN_POINT('',(-0.0184989740894279,-0.030491710232034,0.016));
#1510=CARTESIAN_POINT('',(0.00400102591057212,-0.030491710232034,0.016));
#1511=CARTESIAN_POINT('',(0.0265010259105721,-0.030491710232034,0.016));
#1512=CARTESIAN_POINT('',(0.0265010259105721,-0.030491710232034,0.016));
#1513=CARTESIAN_POINT('',(0.0425010259105722,-0.030491710232034,0.016));
#1514=CARTESIAN_POINT('',(0.0315010259105721,-0.030491710232034,0.016));
#1515=CARTESIAN_POINT('',(0.0315010259105721,-0.030491710232034,0.016));
#1516=CARTESIAN_POINT('',(0.0425010259105722,-0.030491710232034,0.016));
#1517=CARTESIAN_POINT('',(0.0535010259105721,-0.030491710232034,0.016));
#1518=CARTESIAN_POINT('',(0.0535010259105721,-0.030491710232034,0.016));
#1519=CARTESIAN_POINT('',(-0.0284989740894279,0.119508289767966,0.016));
#1520=CARTESIAN_POINT('',(-0.0224989740894279,0.119508289767966,0.016));
#1521=CARTESIAN_POINT('',(-0.0224989740894279,0.119508289767966,0.016));
#1522=CARTESIAN_POINT('',(-0.0284989740894279,0.119508289767966,0.016));
#1523=CARTESIAN_POINT('',(-0.0344989740894279,0.119508289767966,0.016));
#1524=CARTESIAN_POINT('',(-0.0344989740894279,0.119508289767966,0.016));
#1525=CARTESIAN_POINT('',(-0.0344989740894278,0.044508289767966,0.016));
#1526=CARTESIAN_POINT('',(-0.0344989740894278,0.044508289767966,0.016));
#1527=CARTESIAN_POINT('',(-0.0184989740894279,-0.025491710232034,0.016));
#1528=CARTESIAN_POINT('',(-0.0184989740894279,-0.020491710232034,0.016));
#1529=CARTESIAN_POINT('',(-0.0184989740894279,-0.020491710232034,0.016));
#1530=CARTESIAN_POINT('',(-0.0184989740894279,-0.025491710232034,0.016));
#1531=CARTESIAN_POINT('',(-0.0204989740894279,-0.020491710232034,0.016));
#1532=CARTESIAN_POINT('',(-0.0224989740894279,-0.020491710232034,0.016));
#1533=CARTESIAN_POINT('',(-0.0224989740894279,-0.020491710232034,0.016));
#1534=CARTESIAN_POINT('',(-0.0204989740894279,-0.020491710232034,0.016));
#1535=CARTESIAN_POINT('',(-0.0224989740894279,-0.025491710232034,0.016));
#1536=CARTESIAN_POINT('',(-0.0224989740894279,-0.025491710232034,0.016));
#1537=CARTESIAN_POINT('',(-0.0224989740894279,0.114508289767966,0.016));
#1538=CARTESIAN_POINT('',(-0.0224989740894279,0.109508289767966,0.016));
#1539=CARTESIAN_POINT('',(-0.0224989740894279,0.109508289767966,0.016));
#1540=CARTESIAN_POINT('',(-0.0224989740894279,0.114508289767966,0.016));
#1541=CARTESIAN_POINT('',(-0.0204989740894279,0.109508289767966,0.016));
#1542=CARTESIAN_POINT('',(-0.0184989740894279,0.109508289767966,0.016));
#1543=CARTESIAN_POINT('',(-0.0184989740894279,0.109508289767966,0.016));
#1544=CARTESIAN_POINT('',(-0.0204989740894279,0.109508289767966,0.016));
#1545=CARTESIAN_POINT('',(-0.0184989740894279,0.114508289767966,0.016));
#1546=CARTESIAN_POINT('',(-0.0184989740894279,0.114508289767966,0.016));
#1547=CARTESIAN_POINT('',(0.0535010259105721,0.108258289767966,0.016));
#1548=CARTESIAN_POINT('',(0.0535010259105721,0.108258289767966,0.016));
#1549=CARTESIAN_POINT('',(0.0315010259105721,-0.025491710232034,0.016));
#1550=CARTESIAN_POINT('',(0.0315010259105721,-0.020491710232034,0.016));
#1551=CARTESIAN_POINT('',(0.0315010259105721,-0.020491710232034,0.016));
#1552=CARTESIAN_POINT('',(0.0315010259105721,-0.025491710232034,0.016));
#1553=CARTESIAN_POINT('',(0.0290010259105722,-0.020491710232034,0.016));
#1554=CARTESIAN_POINT('',(0.0265010259105721,-0.020491710232034,0.016));
#1555=CARTESIAN_POINT('',(0.0265010259105721,-0.020491710232034,0.016));
#1556=CARTESIAN_POINT('',(0.0290010259105722,-0.020491710232034,0.016));
#1557=CARTESIAN_POINT('',(0.0265010259105721,-0.025491710232034,0.016));
#1558=CARTESIAN_POINT('',(0.0265010259105721,-0.025491710232034,0.016));
#1559=CARTESIAN_POINT('',(0.00950102591057212,0.044508289767966,0.016));
#1560=CARTESIAN_POINT('',(-0.0404989740894278,0.044508289767966,0.016));
#1561=CARTESIAN_POINT('',(-0.0404989740894278,-0.035491710232034,0.016));
#1562=CARTESIAN_POINT('',(-0.0404989740894278,0.124508289767966,0.016));
#1563=CARTESIAN_POINT('',(0.00950102591057213,-0.035491710232034,0.016));
#1564=CARTESIAN_POINT('',(0.0595010259105721,-0.035491710232034,0.016));
#1565=CARTESIAN_POINT('',(0.0595010259105721,0.044508289767966,0.016));
#1566=CARTESIAN_POINT('',(0.0595010259105721,0.124508289767966,0.016));
#1567=CARTESIAN_POINT('',(0.00950102591057213,0.124508289767966,0.016));
#1568=CARTESIAN_POINT('',(0.00950102591057212,0.044508289767966,0.016));
#1569=CARTESIAN_POINT('',(0.0265010259105721,0.0769822552513974,0.016));
#1570=CARTESIAN_POINT('',(0.0265010259105721,0.0719822552513974,0.016));
#1571=CARTESIAN_POINT('',(0.0265010259105721,0.0819822552513974,0.016));
#1572=CARTESIAN_POINT('',(0.0290010259105721,0.0719822552513974,0.016));
#1573=CARTESIAN_POINT('',(0.0315010259105721,0.0719822552513974,0.016));
#1574=CARTESIAN_POINT('',(0.0315010259105721,0.0769822552513974,0.016));
#1575=CARTESIAN_POINT('',(0.0315010259105721,0.0819822552513974,0.016));
#1576=CARTESIAN_POINT('',(0.0290010259105721,0.0819822552513974,0.016));
#1577=CARTESIAN_POINT('',(0.0290010259105721,0.0819822552513974,0.016));
#1578=CARTESIAN_POINT('',(0.0315010259105721,0.0819822552513974,0.016));
#1579=CARTESIAN_POINT('',(0.0265010259105721,0.0819822552513974,0.016));
#1580=CARTESIAN_POINT('',(0.0315010259105721,0.0769822552513974,0.016));
#1581=CARTESIAN_POINT('',(0.0315010259105721,0.0719822552513974,0.016));
#1582=CARTESIAN_POINT('',(0.0290010259105721,0.0719822552513974,0.016));
#1583=CARTESIAN_POINT('',(0.0265010259105721,0.0719822552513974,0.016));
#1584=CARTESIAN_POINT('',(0.0265010259105721,0.0769822552513974,0.016));
#1585=CARTESIAN_POINT('',(-0.0404989740894278,0.044508289767966,0.02));
#1586=CARTESIAN_POINT('',(-0.0404989740894278,-0.035491710232034,0.02));
#1587=CARTESIAN_POINT('',(-0.0404989740894278,-0.035491710232034,0.02));
#1588=CARTESIAN_POINT('',(-0.0404989740894278,0.124508289767966,0.02));
#1589=CARTESIAN_POINT('',(-0.0404989740894278,0.124508289767966,0.02));
#1590=CARTESIAN_POINT('',(-0.0404989740894278,0.044508289767966,0.02));
#1591=CARTESIAN_POINT('',(0.00950102591057213,-0.035491710232034,0.02));
#1592=CARTESIAN_POINT('',(0.00950102591057213,-0.035491710232034,0.02));
#1593=CARTESIAN_POINT('',(0.0595010259105721,-0.035491710232034,0.02));
#1594=CARTESIAN_POINT('',(0.0595010259105721,-0.035491710232034,0.02));
#1595=CARTESIAN_POINT('',(0.0595010259105721,0.044508289767966,0.02));
#1596=CARTESIAN_POINT('',(0.0595010259105721,0.044508289767966,0.02));
#1597=CARTESIAN_POINT('',(0.0595010259105721,0.124508289767966,0.02));
#1598=CARTESIAN_POINT('',(0.0595010259105721,0.124508289767966,0.02));
#1599=CARTESIAN_POINT('',(0.00950102591057213,0.124508289767966,0.02));
#1600=CARTESIAN_POINT('',(0.00950102591057213,0.124508289767966,0.02));
#1601=CARTESIAN_POINT('',(-0.0424989740894279,0.044508289767966,0.02));
#1602=CARTESIAN_POINT('',(-0.0424989740894279,0.124508289767966,0.02));
#1603=CARTESIAN_POINT('',(-0.0424989740894279,0.124508289767966,0.018));
#1604=CARTESIAN_POINT('',(-0.0424989740894279,0.124508289767966,0.002));
#1605=CARTESIAN_POINT('',(-0.0424989740894279,-0.037491710232034,0.002));
#1606=CARTESIAN_POINT('',(-0.0424989740894279,-0.035491710232034,0.002));
#1607=CARTESIAN_POINT('',(-0.0424989740894279,-0.035491710232034,0.02));
#1608=CARTESIAN_POINT('',(-0.0424989740894279,-0.035491710232034,0.018));
#1609=CARTESIAN_POINT('',(-0.0424989740894279,0.044508289767966,0.018));
#1610=CARTESIAN_POINT('',(0.00950102591057213,-0.037491710232034,0.02));
#1611=CARTESIAN_POINT('',(-0.0424989740894279,-0.037491710232034,0.018));
#1612=CARTESIAN_POINT('',(0.0595010259105721,-0.037491710232034,0.018));
#1613=CARTESIAN_POINT('',(-0.0404989740894279,-0.037491710232034,0.018));
#1614=CARTESIAN_POINT('',(-0.0404989740894279,-0.037491710232034,0.));
#1615=CARTESIAN_POINT('',(-0.0404989740894279,-0.037491710232034,0.002));
#1616=CARTESIAN_POINT('',(0.00950102591057213,-0.037491710232034,0.002));
#1617=CARTESIAN_POINT('',(0.0595010259105721,-0.037491710232034,0.002));
#1618=CARTESIAN_POINT('',(0.0595010259105721,-0.037491710232034,0.02));
#1619=CARTESIAN_POINT('',(0.0615010259105721,0.044508289767966,0.02));
#1620=CARTESIAN_POINT('',(0.0615010259105721,-0.035491710232034,0.02));
#1621=CARTESIAN_POINT('',(0.0615010259105721,-0.035491710232034,0.018));
#1622=CARTESIAN_POINT('',(0.0615010259105721,-0.035491710232034,0.002));
#1623=CARTESIAN_POINT('',(0.0615010259105721,0.044508289767966,0.002));
#1624=CARTESIAN_POINT('',(0.0615010259105721,0.124508289767966,0.002));
#1625=CARTESIAN_POINT('',(0.0615010259105721,0.124508289767966,0.02));
#1626=CARTESIAN_POINT('',(0.0615010259105721,0.124508289767966,0.018));
#1627=CARTESIAN_POINT('',(0.0615010259105721,-0.037491710232034,0.018));
#1628=CARTESIAN_POINT('',(0.00950102591057212,0.044508289767966,0.));
#1629=CARTESIAN_POINT('',(0.0615010259105721,0.124508289767966,0.));
#1630=CARTESIAN_POINT('',(-0.0404989740894279,0.124508289767966,0.));
#1631=CARTESIAN_POINT('',(0.0595010259105721,0.124508289767966,0.));
#1632=CARTESIAN_POINT('',(0.0595010259105721,0.044508289767966,0.));
#1633=CARTESIAN_POINT('',(0.0595010259105721,-0.035491710232034,0.));
#1634=CARTESIAN_POINT('',(0.00950102591057212,-0.035491710232034,0.));
#1635=CARTESIAN_POINT('',(-0.0404989740894279,-0.035491710232034,0.));
#1636=CARTESIAN_POINT('',(-0.0404989740894279,0.126508289767966,0.));
#1637=CARTESIAN_POINT('',(0.0425010259105722,0.121008289767966,0.0105));
#1638=CARTESIAN_POINT('',(0.0495010259105721,0.121008289767966,0.0105));
#1639=CARTESIAN_POINT('',(0.0495010259105721,0.121008289767966,0.0105));
#1640=CARTESIAN_POINT('',(0.0425010259105722,0.121008289767966,0.0105));
#1641=CARTESIAN_POINT('',(0.0355010259105721,0.121008289767966,0.0105));
#1642=CARTESIAN_POINT('',(0.0355010259105721,0.121008289767966,0.0105));
#1643=CARTESIAN_POINT('',(0.0495010259105721,0.121008289767966,0.007));
#1644=CARTESIAN_POINT('',(0.0495010259105721,0.121008289767966,0.0035));
#1645=CARTESIAN_POINT('',(0.0495010259105721,0.121008289767966,0.0035));
#1646=CARTESIAN_POINT('',(0.0495010259105721,0.121008289767966,0.007));
#1647=CARTESIAN_POINT('',(0.0425010259105722,0.121008289767966,0.0035));
#1648=CARTESIAN_POINT('',(0.0355010259105721,0.121008289767966,0.0035));
#1649=CARTESIAN_POINT('',(0.0355010259105721,0.121008289767966,0.0035));
#1650=CARTESIAN_POINT('',(0.0425010259105722,0.121008289767966,0.0035));
#1651=CARTESIAN_POINT('',(0.0355010259105721,0.121008289767966,0.007));
#1652=CARTESIAN_POINT('',(0.0355010259105721,0.121008289767966,0.007));
#1653=CARTESIAN_POINT('',(0.00950102591057212,0.121008289767966,0.01));
#1654=CARTESIAN_POINT('',(-0.0404989740894279,0.044508289767966,0.018));
#1655=CARTESIAN_POINT('',(-0.0404989740894279,-0.035491710232034,0.018));
#1656=CARTESIAN_POINT('',(-0.0404989740894279,0.124508289767966,0.018));
#1657=CARTESIAN_POINT('',(-0.0404989740894279,-0.035491710232034,0.018));
#1658=CARTESIAN_POINT('',(-0.0404989740894279,-0.035491710232034,0.018));
#1659=CARTESIAN_POINT('',(-0.0404989740894279,-0.035491710232034,0.018));
#1660=CARTESIAN_POINT('',(-0.0404989740894279,0.124508289767966,0.018));
#1661=CARTESIAN_POINT('',(-0.0404989740894279,0.124508289767966,0.018));
#1662=CARTESIAN_POINT('',(-0.0404989740894279,0.124508289767966,0.018));
#1663=CARTESIAN_POINT('',(-0.0404989740894279,-0.035491710232034,0.02));
#1664=CARTESIAN_POINT('',(-0.0404989740894279,-0.035491710232034,0.002));
#1665=CARTESIAN_POINT('',(0.00950102591057212,-0.035491710232034,0.018));
#1666=CARTESIAN_POINT('',(0.0595010259105721,-0.035491710232034,0.018));
#1667=CARTESIAN_POINT('',(0.0595010259105721,0.044508289767966,0.018));
#1668=CARTESIAN_POINT('',(0.0595010259105721,0.124508289767966,0.018));
#1669=CARTESIAN_POINT('',(0.0595010259105721,-0.035491710232034,0.018));
#1670=CARTESIAN_POINT('',(0.00950102591057213,0.124508289767966,0.018));
#1671=CARTESIAN_POINT('',(0.0595010259105721,0.124508289767966,0.018));
#1672=CARTESIAN_POINT('',(-0.0404989740894279,0.124508289767966,0.02));
#1673=CARTESIAN_POINT('',(-0.0404989740894279,0.124508289767966,0.002));
#1674=CARTESIAN_POINT('',(-0.0404989740894279,0.044508289767966,0.002));
#1675=CARTESIAN_POINT('',(-0.0404989740894279,-0.035491710232034,0.002));
#1676=CARTESIAN_POINT('',(-0.0404989740894279,0.124508289767966,0.002));
#1677=CARTESIAN_POINT('',(-0.0404989740894279,-0.035491710232034,0.002));
#1678=CARTESIAN_POINT('',(-0.0404989740894279,-0.035491710232034,0.002));
#1679=CARTESIAN_POINT('',(0.0595010259105721,-0.035491710232034,0.018));
#1680=CARTESIAN_POINT('',(0.0595010259105721,-0.035491710232034,0.018));
#1681=CARTESIAN_POINT('',(0.0595010259105721,0.124508289767966,0.018));
#1682=CARTESIAN_POINT('',(0.0595010259105721,0.124508289767966,0.018));
#1683=CARTESIAN_POINT('',(-0.0404989740894279,0.124508289767966,0.002));
#1684=CARTESIAN_POINT('',(-0.0404989740894279,0.124508289767966,0.002));
#1685=CARTESIAN_POINT('',(0.00950102591057213,-0.035491710232034,0.002));
#1686=CARTESIAN_POINT('',(0.0595010259105721,-0.035491710232034,0.002));
#1687=CARTESIAN_POINT('',(0.0595010259105721,-0.035491710232034,0.02));
#1688=CARTESIAN_POINT('',(0.0595010259105721,-0.035491710232034,0.002));
#1689=CARTESIAN_POINT('',(0.0595010259105721,0.124508289767966,0.02));
#1690=CARTESIAN_POINT('',(0.0595010259105721,0.124508289767966,0.002));
#1691=CARTESIAN_POINT('',(0.00950102591057212,0.124508289767966,0.002));
#1692=CARTESIAN_POINT('',(0.0595010259105721,0.124508289767966,0.002));
#1693=CARTESIAN_POINT('',(0.0595010259105721,-0.035491710232034,0.002));
#1694=CARTESIAN_POINT('',(0.0595010259105721,-0.035491710232034,0.002));
#1695=CARTESIAN_POINT('',(0.0595010259105721,0.124508289767966,0.002));
#1696=CARTESIAN_POINT('',(0.0595010259105721,0.124508289767966,0.002));
#1697=CARTESIAN_POINT('',(0.0595010259105721,0.044508289767966,0.002));
#1698=MECHANICAL_DESIGN_GEOMETRIC_PRESENTATION_REPRESENTATION('',(#1027),#1699);
#1699=(
GEOMETRIC_REPRESENTATION_CONTEXT(3)
GLOBAL_UNCERTAINTY_ASSIGNED_CONTEXT((#1700))
GLOBAL_UNIT_ASSIGNED_CONTEXT((#1703,#1702,#1701))
REPRESENTATION_CONTEXT('Part 1','TOP_LEVEL_ASSEMBLY_PART')
);
#1700=UNCERTAINTY_MEASURE_WITH_UNIT(LENGTH_MEASURE(1.E-08),#1703,'DISTANCE_ACCURACY_VALUE','Maximum Tolerance applied to model');
#1701=(
NAMED_UNIT(*)
SI_UNIT($,.STERADIAN.)
SOLID_ANGLE_UNIT()
);
#1702=(
NAMED_UNIT(*)
PLANE_ANGLE_UNIT()
SI_UNIT($,.RADIAN.)
);
#1703=(
LENGTH_UNIT()
NAMED_UNIT(*)
SI_UNIT($,.METRE.)
);
#1704=PRODUCT_DEFINITION_SHAPE('','',#1705);
#1705=PRODUCT_DEFINITION('','',#1707,#1706);
#1706=PRODUCT_DEFINITION_CONTEXT('',#1713,'design');
#1707=PRODUCT_DEFINITION_FORMATION_WITH_SPECIFIED_SOURCE('','',#1709,.NOT_KNOWN.);
#1708=PRODUCT_RELATED_PRODUCT_CATEGORY('','',(#1709));
#1709=PRODUCT('Part 1','Part 1','Part 1',(#1711));
#1710=PRODUCT_CATEGORY('','');
#1711=PRODUCT_CONTEXT('',#1713,'mechanical');
#1712=APPLICATION_PROTOCOL_DEFINITION('international standard','ap242_managed_model_based_3d_engineering',2020,#1713);
#1713=APPLICATION_CONTEXT('managed model based 3d engineering');
ENDSEC;
END-ISO-10303-21;
