ISO-10303-21;
HEADER;
/*Generated by software containing ST-Developer
 * from STEP Tools, Inc. (www.steptools.com) 
 */
/*OPTION: using custom renumber hook */
/*description */
/*implementation_level */
FILE_DESCRIPTION(('STEP AP242 Edition 2','STEP AP242 Edition 2''CAx-IF Rec.Pracs.---Representation and Presentation of Product Manufa
cturing Information (PMI)---4.0---2014-10-13','STEP AP242 Edition 2''CAx-IF Rec.Pracs.---Representation and Presentation of Product Manufa
cturing Information (PMI)---4.0---2014-10-13''CAx-IF Rec.Pracs.---3D Tessellated Geometry---0.4---2014-09-14','STEP AP242 Edition 2''CAx-IF Rec.Pracs.---Representation and Presentation of Product Manufa
cturing Information (PMI)---4.0---2014-10-13''CAx-IF Rec.Pracs.---3D Tessellated Geometry---0.4---2014-09-14''2;1','STEP AP242 Edition 2''CAx-IF Rec.Pracs.---Representation and Presentation of Product Manufa
cturing Information (PMI)---4.0---2014-10-13''CAx-IF Rec.Pracs.---3D Tessellated Geometry---0.4---2014-09-14''2;1''CAx-IF Rec.Pracs.---User Defined Attributes---1.5---2016-08-15'),'2;1');
/*name */
/*time_stamp */
/*author */
/*organization */
/*preprocessor_version */
/*originating_system */
/*authorisation */
FILE_NAME('/vol/tmp/translate-7717928232594335402/Part Studio 1.step','2026-04-01T02:20:07',(''),(''),'ST-DEVELOPER v20','ONSHAPE BY PTC INC, 1.212','  ');
FILE_SCHEMA(('AP242_MANAGED_MODEL_BASED_3D_ENGINEERING_MIM_LF { 1 0 10303 442 3 1 4 }'));
ENDSEC;
DATA;
#10=SHAPE_REPRESENTATION_RELATIONSHIP('','',#411,#11);
#11=ADVANCED_BREP_SHAPE_REPRESENTATION('',(#409),#653);
#12=CIRCLE('',#423,0.0014);
#13=CIRCLE('',#424,0.0014);
#14=CIRCLE('',#426,0.0014);
#15=CIRCLE('',#427,0.0014);
#16=CIRCLE('',#429,0.0014);
#17=CIRCLE('',#430,0.0014);
#18=CIRCLE('',#432,0.0014);
#19=CIRCLE('',#433,0.0014);
#20=CIRCLE('',#435,0.0036);
#21=CIRCLE('',#436,0.0036);
#22=CIRCLE('',#438,0.0036);
#23=CIRCLE('',#439,0.0036);
#24=CYLINDRICAL_SURFACE('',#422,0.0014);
#25=CYLINDRICAL_SURFACE('',#425,0.0014);
#26=CYLINDRICAL_SURFACE('',#428,0.0014);
#27=CYLINDRICAL_SURFACE('',#431,0.0014);
#28=CYLINDRICAL_SURFACE('',#434,0.0036);
#29=CYLINDRICAL_SURFACE('',#437,0.0036);
#30=ORIENTED_EDGE('',*,*,#126,.F.);
#31=ORIENTED_EDGE('',*,*,#127,.F.);
#32=ORIENTED_EDGE('',*,*,#128,.T.);
#33=ORIENTED_EDGE('',*,*,#129,.T.);
#34=ORIENTED_EDGE('',*,*,#130,.T.);
#35=ORIENTED_EDGE('',*,*,#131,.F.);
#36=ORIENTED_EDGE('',*,*,#132,.F.);
#37=ORIENTED_EDGE('',*,*,#127,.T.);
#38=ORIENTED_EDGE('',*,*,#133,.T.);
#39=ORIENTED_EDGE('',*,*,#134,.F.);
#40=ORIENTED_EDGE('',*,*,#135,.F.);
#41=ORIENTED_EDGE('',*,*,#131,.T.);
#42=ORIENTED_EDGE('',*,*,#136,.F.);
#43=ORIENTED_EDGE('',*,*,#137,.F.);
#44=ORIENTED_EDGE('',*,*,#138,.T.);
#45=ORIENTED_EDGE('',*,*,#139,.T.);
#46=ORIENTED_EDGE('',*,*,#140,.T.);
#47=ORIENTED_EDGE('',*,*,#141,.F.);
#48=ORIENTED_EDGE('',*,*,#142,.F.);
#49=ORIENTED_EDGE('',*,*,#137,.T.);
#50=ORIENTED_EDGE('',*,*,#143,.T.);
#51=ORIENTED_EDGE('',*,*,#144,.F.);
#52=ORIENTED_EDGE('',*,*,#145,.F.);
#53=ORIENTED_EDGE('',*,*,#141,.T.);
#54=ORIENTED_EDGE('',*,*,#146,.F.);
#55=ORIENTED_EDGE('',*,*,#147,.F.);
#56=ORIENTED_EDGE('',*,*,#148,.T.);
#57=ORIENTED_EDGE('',*,*,#149,.T.);
#58=ORIENTED_EDGE('',*,*,#150,.F.);
#59=ORIENTED_EDGE('',*,*,#151,.F.);
#60=ORIENTED_EDGE('',*,*,#152,.T.);
#61=ORIENTED_EDGE('',*,*,#147,.T.);
#62=ORIENTED_EDGE('',*,*,#153,.T.);
#63=ORIENTED_EDGE('',*,*,#154,.F.);
#64=ORIENTED_EDGE('',*,*,#155,.F.);
#65=ORIENTED_EDGE('',*,*,#151,.T.);
#66=ORIENTED_EDGE('',*,*,#156,.T.);
#67=ORIENTED_EDGE('',*,*,#157,.F.);
#68=ORIENTED_EDGE('',*,*,#158,.T.);
#69=ORIENTED_EDGE('',*,*,#159,.F.);
#70=ORIENTED_EDGE('',*,*,#160,.T.);
#71=ORIENTED_EDGE('',*,*,#161,.F.);
#72=ORIENTED_EDGE('',*,*,#162,.T.);
#73=ORIENTED_EDGE('',*,*,#163,.F.);
#74=ORIENTED_EDGE('',*,*,#164,.T.);
#75=ORIENTED_EDGE('',*,*,#165,.F.);
#76=ORIENTED_EDGE('',*,*,#166,.T.);
#77=ORIENTED_EDGE('',*,*,#167,.F.);
#78=ORIENTED_EDGE('',*,*,#168,.F.);
#79=ORIENTED_EDGE('',*,*,#139,.F.);
#80=ORIENTED_EDGE('',*,*,#169,.T.);
#81=ORIENTED_EDGE('',*,*,#144,.T.);
#82=ORIENTED_EDGE('',*,*,#170,.T.);
#83=ORIENTED_EDGE('',*,*,#149,.F.);
#84=ORIENTED_EDGE('',*,*,#171,.F.);
#85=ORIENTED_EDGE('',*,*,#154,.T.);
#86=ORIENTED_EDGE('',*,*,#172,.F.);
#87=ORIENTED_EDGE('',*,*,#129,.F.);
#88=ORIENTED_EDGE('',*,*,#173,.T.);
#89=ORIENTED_EDGE('',*,*,#134,.T.);
#90=ORIENTED_EDGE('',*,*,#148,.F.);
#91=ORIENTED_EDGE('',*,*,#152,.F.);
#92=ORIENTED_EDGE('',*,*,#155,.T.);
#93=ORIENTED_EDGE('',*,*,#171,.T.);
#94=ORIENTED_EDGE('',*,*,#138,.F.);
#95=ORIENTED_EDGE('',*,*,#142,.T.);
#96=ORIENTED_EDGE('',*,*,#145,.T.);
#97=ORIENTED_EDGE('',*,*,#169,.F.);
#98=ORIENTED_EDGE('',*,*,#166,.F.);
#99=ORIENTED_EDGE('',*,*,#164,.F.);
#100=ORIENTED_EDGE('',*,*,#162,.F.);
#101=ORIENTED_EDGE('',*,*,#160,.F.);
#102=ORIENTED_EDGE('',*,*,#158,.F.);
#103=ORIENTED_EDGE('',*,*,#156,.F.);
#104=ORIENTED_EDGE('',*,*,#128,.F.);
#105=ORIENTED_EDGE('',*,*,#132,.T.);
#106=ORIENTED_EDGE('',*,*,#135,.T.);
#107=ORIENTED_EDGE('',*,*,#173,.F.);
#108=ORIENTED_EDGE('',*,*,#146,.T.);
#109=ORIENTED_EDGE('',*,*,#170,.F.);
#110=ORIENTED_EDGE('',*,*,#153,.F.);
#111=ORIENTED_EDGE('',*,*,#150,.T.);
#112=ORIENTED_EDGE('',*,*,#136,.T.);
#113=ORIENTED_EDGE('',*,*,#168,.T.);
#114=ORIENTED_EDGE('',*,*,#143,.F.);
#115=ORIENTED_EDGE('',*,*,#140,.F.);
#116=ORIENTED_EDGE('',*,*,#167,.T.);
#117=ORIENTED_EDGE('',*,*,#165,.T.);
#118=ORIENTED_EDGE('',*,*,#163,.T.);
#119=ORIENTED_EDGE('',*,*,#161,.T.);
#120=ORIENTED_EDGE('',*,*,#159,.T.);
#121=ORIENTED_EDGE('',*,*,#157,.T.);
#122=ORIENTED_EDGE('',*,*,#126,.T.);
#123=ORIENTED_EDGE('',*,*,#172,.T.);
#124=ORIENTED_EDGE('',*,*,#133,.F.);
#125=ORIENTED_EDGE('',*,*,#130,.F.);
#126=EDGE_CURVE('',#174,#175,#210,.T.);
#127=EDGE_CURVE('',#176,#174,#211,.T.);
#128=EDGE_CURVE('',#176,#177,#212,.T.);
#129=EDGE_CURVE('',#177,#175,#213,.T.);
#130=EDGE_CURVE('',#174,#178,#214,.T.);
#131=EDGE_CURVE('',#179,#178,#215,.T.);
#132=EDGE_CURVE('',#176,#179,#216,.T.);
#133=EDGE_CURVE('',#178,#180,#217,.T.);
#134=EDGE_CURVE('',#181,#180,#218,.T.);
#135=EDGE_CURVE('',#179,#181,#219,.T.);
#136=EDGE_CURVE('',#182,#183,#220,.T.);
#137=EDGE_CURVE('',#184,#182,#221,.T.);
#138=EDGE_CURVE('',#184,#185,#222,.T.);
#139=EDGE_CURVE('',#185,#183,#223,.T.);
#140=EDGE_CURVE('',#182,#186,#224,.T.);
#141=EDGE_CURVE('',#187,#186,#225,.T.);
#142=EDGE_CURVE('',#184,#187,#226,.T.);
#143=EDGE_CURVE('',#186,#188,#227,.T.);
#144=EDGE_CURVE('',#189,#188,#228,.T.);
#145=EDGE_CURVE('',#187,#189,#229,.T.);
#146=EDGE_CURVE('',#190,#191,#230,.T.);
#147=EDGE_CURVE('',#192,#190,#231,.T.);
#148=EDGE_CURVE('',#192,#193,#232,.T.);
#149=EDGE_CURVE('',#193,#191,#233,.T.);
#150=EDGE_CURVE('',#194,#190,#234,.T.);
#151=EDGE_CURVE('',#195,#194,#235,.T.);
#152=EDGE_CURVE('',#195,#192,#236,.T.);
#153=EDGE_CURVE('',#194,#196,#237,.T.);
#154=EDGE_CURVE('',#197,#196,#238,.T.);
#155=EDGE_CURVE('',#195,#197,#239,.T.);
#156=EDGE_CURVE('',#198,#198,#12,.T.);
#157=EDGE_CURVE('',#199,#199,#13,.T.);
#158=EDGE_CURVE('',#200,#200,#14,.T.);
#159=EDGE_CURVE('',#201,#201,#15,.T.);
#160=EDGE_CURVE('',#202,#202,#16,.T.);
#161=EDGE_CURVE('',#203,#203,#17,.T.);
#162=EDGE_CURVE('',#204,#204,#18,.T.);
#163=EDGE_CURVE('',#205,#205,#19,.T.);
#164=EDGE_CURVE('',#206,#206,#20,.T.);
#165=EDGE_CURVE('',#207,#207,#21,.T.);
#166=EDGE_CURVE('',#208,#208,#22,.T.);
#167=EDGE_CURVE('',#209,#209,#23,.T.);
#168=EDGE_CURVE('',#183,#188,#240,.T.);
#169=EDGE_CURVE('',#185,#189,#241,.T.);
#170=EDGE_CURVE('',#196,#191,#242,.T.);
#171=EDGE_CURVE('',#197,#193,#243,.T.);
#172=EDGE_CURVE('',#175,#180,#244,.T.);
#173=EDGE_CURVE('',#177,#181,#245,.T.);
#174=VERTEX_POINT('',#550);
#175=VERTEX_POINT('',#551);
#176=VERTEX_POINT('',#553);
#177=VERTEX_POINT('',#555);
#178=VERTEX_POINT('',#559);
#179=VERTEX_POINT('',#561);
#180=VERTEX_POINT('',#565);
#181=VERTEX_POINT('',#567);
#182=VERTEX_POINT('',#571);
#183=VERTEX_POINT('',#572);
#184=VERTEX_POINT('',#574);
#185=VERTEX_POINT('',#576);
#186=VERTEX_POINT('',#580);
#187=VERTEX_POINT('',#582);
#188=VERTEX_POINT('',#586);
#189=VERTEX_POINT('',#588);
#190=VERTEX_POINT('',#592);
#191=VERTEX_POINT('',#593);
#192=VERTEX_POINT('',#595);
#193=VERTEX_POINT('',#597);
#194=VERTEX_POINT('',#601);
#195=VERTEX_POINT('',#603);
#196=VERTEX_POINT('',#607);
#197=VERTEX_POINT('',#609);
#198=VERTEX_POINT('',#613);
#199=VERTEX_POINT('',#615);
#200=VERTEX_POINT('',#618);
#201=VERTEX_POINT('',#620);
#202=VERTEX_POINT('',#623);
#203=VERTEX_POINT('',#625);
#204=VERTEX_POINT('',#628);
#205=VERTEX_POINT('',#630);
#206=VERTEX_POINT('',#633);
#207=VERTEX_POINT('',#635);
#208=VERTEX_POINT('',#638);
#209=VERTEX_POINT('',#640);
#210=LINE('',#549,#246);
#211=LINE('',#552,#247);
#212=LINE('',#554,#248);
#213=LINE('',#556,#249);
#214=LINE('',#558,#250);
#215=LINE('',#560,#251);
#216=LINE('',#562,#252);
#217=LINE('',#564,#253);
#218=LINE('',#566,#254);
#219=LINE('',#568,#255);
#220=LINE('',#570,#256);
#221=LINE('',#573,#257);
#222=LINE('',#575,#258);
#223=LINE('',#577,#259);
#224=LINE('',#579,#260);
#225=LINE('',#581,#261);
#226=LINE('',#583,#262);
#227=LINE('',#585,#263);
#228=LINE('',#587,#264);
#229=LINE('',#589,#265);
#230=LINE('',#591,#266);
#231=LINE('',#594,#267);
#232=LINE('',#596,#268);
#233=LINE('',#598,#269);
#234=LINE('',#600,#270);
#235=LINE('',#602,#271);
#236=LINE('',#604,#272);
#237=LINE('',#606,#273);
#238=LINE('',#608,#274);
#239=LINE('',#610,#275);
#240=LINE('',#642,#276);
#241=LINE('',#643,#277);
#242=LINE('',#645,#278);
#243=LINE('',#646,#279);
#244=LINE('',#648,#280);
#245=LINE('',#649,#281);
#246=VECTOR('',#449,1.);
#247=VECTOR('',#450,1.);
#248=VECTOR('',#451,1.);
#249=VECTOR('',#452,1.);
#250=VECTOR('',#455,1.);
#251=VECTOR('',#456,1.);
#252=VECTOR('',#457,1.);
#253=VECTOR('',#460,1.);
#254=VECTOR('',#461,1.);
#255=VECTOR('',#462,1.);
#256=VECTOR('',#465,1.);
#257=VECTOR('',#466,1.);
#258=VECTOR('',#467,1.);
#259=VECTOR('',#468,1.);
#260=VECTOR('',#471,1.);
#261=VECTOR('',#472,1.);
#262=VECTOR('',#473,1.);
#263=VECTOR('',#476,1.);
#264=VECTOR('',#477,1.);
#265=VECTOR('',#478,1.);
#266=VECTOR('',#481,1.);
#267=VECTOR('',#482,1.);
#268=VECTOR('',#483,1.);
#269=VECTOR('',#484,1.);
#270=VECTOR('',#487,1.);
#271=VECTOR('',#488,1.);
#272=VECTOR('',#489,1.);
#273=VECTOR('',#492,1.);
#274=VECTOR('',#493,1.);
#275=VECTOR('',#494,1.);
#276=VECTOR('',#533,1.);
#277=VECTOR('',#534,1.);
#278=VECTOR('',#537,1.);
#279=VECTOR('',#538,1.);
#280=VECTOR('',#541,1.);
#281=VECTOR('',#542,1.);
#282=EDGE_LOOP('',(#30,#31,#32,#33));
#283=EDGE_LOOP('',(#34,#35,#36,#37));
#284=EDGE_LOOP('',(#38,#39,#40,#41));
#285=EDGE_LOOP('',(#42,#43,#44,#45));
#286=EDGE_LOOP('',(#46,#47,#48,#49));
#287=EDGE_LOOP('',(#50,#51,#52,#53));
#288=EDGE_LOOP('',(#54,#55,#56,#57));
#289=EDGE_LOOP('',(#58,#59,#60,#61));
#290=EDGE_LOOP('',(#62,#63,#64,#65));
#291=EDGE_LOOP('',(#66));
#292=EDGE_LOOP('',(#67));
#293=EDGE_LOOP('',(#68));
#294=EDGE_LOOP('',(#69));
#295=EDGE_LOOP('',(#70));
#296=EDGE_LOOP('',(#71));
#297=EDGE_LOOP('',(#72));
#298=EDGE_LOOP('',(#73));
#299=EDGE_LOOP('',(#74));
#300=EDGE_LOOP('',(#75));
#301=EDGE_LOOP('',(#76));
#302=EDGE_LOOP('',(#77));
#303=EDGE_LOOP('',(#78,#79,#80,#81));
#304=EDGE_LOOP('',(#82,#83,#84,#85));
#305=EDGE_LOOP('',(#86,#87,#88,#89));
#306=EDGE_LOOP('',(#90,#91,#92,#93));
#307=EDGE_LOOP('',(#94,#95,#96,#97));
#308=EDGE_LOOP('',(#98));
#309=EDGE_LOOP('',(#99));
#310=EDGE_LOOP('',(#100));
#311=EDGE_LOOP('',(#101));
#312=EDGE_LOOP('',(#102));
#313=EDGE_LOOP('',(#103));
#314=EDGE_LOOP('',(#104,#105,#106,#107));
#315=EDGE_LOOP('',(#108,#109,#110,#111));
#316=EDGE_LOOP('',(#112,#113,#114,#115));
#317=EDGE_LOOP('',(#116));
#318=EDGE_LOOP('',(#117));
#319=EDGE_LOOP('',(#118));
#320=EDGE_LOOP('',(#119));
#321=EDGE_LOOP('',(#120));
#322=EDGE_LOOP('',(#121));
#323=EDGE_LOOP('',(#122,#123,#124,#125));
#324=FACE_BOUND('',#282,.T.);
#325=FACE_BOUND('',#283,.T.);
#326=FACE_BOUND('',#284,.T.);
#327=FACE_BOUND('',#285,.T.);
#328=FACE_BOUND('',#286,.T.);
#329=FACE_BOUND('',#287,.T.);
#330=FACE_BOUND('',#288,.T.);
#331=FACE_BOUND('',#289,.T.);
#332=FACE_BOUND('',#290,.T.);
#333=FACE_BOUND('',#291,.T.);
#334=FACE_BOUND('',#292,.T.);
#335=FACE_BOUND('',#293,.T.);
#336=FACE_BOUND('',#294,.T.);
#337=FACE_BOUND('',#295,.T.);
#338=FACE_BOUND('',#296,.T.);
#339=FACE_BOUND('',#297,.T.);
#340=FACE_BOUND('',#298,.T.);
#341=FACE_BOUND('',#299,.T.);
#342=FACE_BOUND('',#300,.T.);
#343=FACE_BOUND('',#301,.T.);
#344=FACE_BOUND('',#302,.T.);
#345=FACE_BOUND('',#303,.T.);
#346=FACE_BOUND('',#304,.T.);
#347=FACE_BOUND('',#305,.T.);
#348=FACE_BOUND('',#306,.T.);
#349=FACE_BOUND('',#307,.T.);
#350=FACE_BOUND('',#308,.T.);
#351=FACE_BOUND('',#309,.T.);
#352=FACE_BOUND('',#310,.T.);
#353=FACE_BOUND('',#311,.T.);
#354=FACE_BOUND('',#312,.T.);
#355=FACE_BOUND('',#313,.T.);
#356=FACE_BOUND('',#314,.T.);
#357=FACE_BOUND('',#315,.T.);
#358=FACE_BOUND('',#316,.T.);
#359=FACE_BOUND('',#317,.T.);
#360=FACE_BOUND('',#318,.T.);
#361=FACE_BOUND('',#319,.T.);
#362=FACE_BOUND('',#320,.T.);
#363=FACE_BOUND('',#321,.T.);
#364=FACE_BOUND('',#322,.T.);
#365=FACE_BOUND('',#323,.T.);
#366=PLANE('',#413);
#367=PLANE('',#414);
#368=PLANE('',#415);
#369=PLANE('',#416);
#370=PLANE('',#417);
#371=PLANE('',#418);
#372=PLANE('',#419);
#373=PLANE('',#420);
#374=PLANE('',#421);
#375=PLANE('',#440);
#376=PLANE('',#441);
#377=PLANE('',#442);
#378=PLANE('',#443);
#379=PLANE('',#444);
#380=ADVANCED_FACE('',(#324),#366,.T.);
#381=ADVANCED_FACE('',(#325),#367,.F.);
#382=ADVANCED_FACE('',(#326),#368,.F.);
#383=ADVANCED_FACE('',(#327),#369,.T.);
#384=ADVANCED_FACE('',(#328),#370,.F.);
#385=ADVANCED_FACE('',(#329),#371,.F.);
#386=ADVANCED_FACE('',(#330),#372,.T.);
#387=ADVANCED_FACE('',(#331),#373,.T.);
#388=ADVANCED_FACE('',(#332),#374,.F.);
#389=ADVANCED_FACE('',(#333,#334),#24,.F.);
#390=ADVANCED_FACE('',(#335,#336),#25,.F.);
#391=ADVANCED_FACE('',(#337,#338),#26,.F.);
#392=ADVANCED_FACE('',(#339,#340),#27,.F.);
#393=ADVANCED_FACE('',(#341,#342),#28,.F.);
#394=ADVANCED_FACE('',(#343,#344),#29,.F.);
#395=ADVANCED_FACE('',(#345),#375,.T.);
#396=ADVANCED_FACE('',(#346),#376,.F.);
#397=ADVANCED_FACE('',(#347),#377,.T.);
#398=ADVANCED_FACE('',(#348,#349,#350,#351,#352,#353,#354,#355,#356),#378,.T.);
#399=ADVANCED_FACE('',(#357,#358,#359,#360,#361,#362,#363,#364,#365),#379,.F.);
#400=CLOSED_SHELL('',(#380,#381,#382,#383,#384,#385,#386,#387,#388,#389,#390,#391,#392,#393,#394,#395,#396,#397,#398,#399));
#401=STYLED_ITEM('',(#402),#409);
#402=PRESENTATION_STYLE_ASSIGNMENT((#403));
#403=SURFACE_STYLE_USAGE(.BOTH.,#404);
#404=SURFACE_SIDE_STYLE('',(#405));
#405=SURFACE_STYLE_FILL_AREA(#406);
#406=FILL_AREA_STYLE('',(#407));
#407=FILL_AREA_STYLE_COLOUR('',#408);
#408=COLOUR_RGB('',0.647058823529412,0.647058823529412,0.647058823529412);
#409=MANIFOLD_SOLID_BREP('Part 2',#400);
#410=SHAPE_DEFINITION_REPRESENTATION(#658,#411);
#411=SHAPE_REPRESENTATION('Part 2',(#412),#653);
#412=AXIS2_PLACEMENT_3D('',#547,#445,#446);
#413=AXIS2_PLACEMENT_3D('',#548,#447,#448);
#414=AXIS2_PLACEMENT_3D('',#557,#453,#454);
#415=AXIS2_PLACEMENT_3D('',#563,#458,#459);
#416=AXIS2_PLACEMENT_3D('',#569,#463,#464);
#417=AXIS2_PLACEMENT_3D('',#578,#469,#470);
#418=AXIS2_PLACEMENT_3D('',#584,#474,#475);
#419=AXIS2_PLACEMENT_3D('',#590,#479,#480);
#420=AXIS2_PLACEMENT_3D('',#599,#485,#486);
#421=AXIS2_PLACEMENT_3D('',#605,#490,#491);
#422=AXIS2_PLACEMENT_3D('',#611,#495,#496);
#423=AXIS2_PLACEMENT_3D('',#612,#497,#498);
#424=AXIS2_PLACEMENT_3D('',#614,#499,#500);
#425=AXIS2_PLACEMENT_3D('',#616,#501,#502);
#426=AXIS2_PLACEMENT_3D('',#617,#503,#504);
#427=AXIS2_PLACEMENT_3D('',#619,#505,#506);
#428=AXIS2_PLACEMENT_3D('',#621,#507,#508);
#429=AXIS2_PLACEMENT_3D('',#622,#509,#510);
#430=AXIS2_PLACEMENT_3D('',#624,#511,#512);
#431=AXIS2_PLACEMENT_3D('',#626,#513,#514);
#432=AXIS2_PLACEMENT_3D('',#627,#515,#516);
#433=AXIS2_PLACEMENT_3D('',#629,#517,#518);
#434=AXIS2_PLACEMENT_3D('',#631,#519,#520);
#435=AXIS2_PLACEMENT_3D('',#632,#521,#522);
#436=AXIS2_PLACEMENT_3D('',#634,#523,#524);
#437=AXIS2_PLACEMENT_3D('',#636,#525,#526);
#438=AXIS2_PLACEMENT_3D('',#637,#527,#528);
#439=AXIS2_PLACEMENT_3D('',#639,#529,#530);
#440=AXIS2_PLACEMENT_3D('',#641,#531,#532);
#441=AXIS2_PLACEMENT_3D('',#644,#535,#536);
#442=AXIS2_PLACEMENT_3D('',#647,#539,#540);
#443=AXIS2_PLACEMENT_3D('',#650,#543,#544);
#444=AXIS2_PLACEMENT_3D('',#651,#545,#546);
#445=DIRECTION('',(0.,0.,1.));
#446=DIRECTION('',(1.,0.,0.));
#447=DIRECTION('',(0.,1.,0.));
#448=DIRECTION('',(0.,0.,1.));
#449=DIRECTION('',(1.,0.,0.));
#450=DIRECTION('',(0.,0.,-1.));
#451=DIRECTION('',(1.,0.,0.));
#452=DIRECTION('',(0.,0.,-1.));
#453=DIRECTION('',(-1.,-1.7347234759768E-16,0.));
#454=DIRECTION('',(1.7347234759768E-16,-1.,0.));
#455=DIRECTION('',(-1.7347234759768E-16,1.,0.));
#456=DIRECTION('',(0.,0.,-1.));
#457=DIRECTION('',(-1.7347234759768E-16,1.,0.));
#458=DIRECTION('',(0.,1.,0.));
#459=DIRECTION('',(0.,0.,1.));
#460=DIRECTION('',(1.,0.,0.));
#461=DIRECTION('',(0.,0.,-1.));
#462=DIRECTION('',(1.,0.,0.));
#463=DIRECTION('',(-1.,-1.89242561015651E-16,0.));
#464=DIRECTION('',(1.89242561015651E-16,-1.,0.));
#465=DIRECTION('',(-1.89242561015651E-16,1.,0.));
#466=DIRECTION('',(0.,0.,-1.));
#467=DIRECTION('',(-1.89242561015651E-16,1.,0.));
#468=DIRECTION('',(0.,0.,-1.));
#469=DIRECTION('',(0.,-1.,0.));
#470=DIRECTION('',(0.,0.,-1.));
#471=DIRECTION('',(-1.,0.,0.));
#472=DIRECTION('',(0.,0.,-1.));
#473=DIRECTION('',(-1.,0.,0.));
#474=DIRECTION('',(-1.,-1.7347234759768E-16,0.));
#475=DIRECTION('',(1.7347234759768E-16,-1.,0.));
#476=DIRECTION('',(-1.7347234759768E-16,1.,0.));
#477=DIRECTION('',(0.,0.,-1.));
#478=DIRECTION('',(-1.7347234759768E-16,1.,0.));
#479=DIRECTION('',(0.,1.,0.));
#480=DIRECTION('',(0.,0.,1.));
#481=DIRECTION('',(1.,0.,0.));
#482=DIRECTION('',(0.,0.,-1.));
#483=DIRECTION('',(1.,0.,0.));
#484=DIRECTION('',(0.,0.,-1.));
#485=DIRECTION('',(-1.,0.,0.));
#486=DIRECTION('',(0.,0.,1.));
#487=DIRECTION('',(0.,1.,0.));
#488=DIRECTION('',(0.,0.,-1.));
#489=DIRECTION('',(0.,1.,0.));
#490=DIRECTION('',(0.,1.,0.));
#491=DIRECTION('',(0.,0.,1.));
#492=DIRECTION('',(1.,0.,0.));
#493=DIRECTION('',(0.,0.,-1.));
#494=DIRECTION('',(1.,0.,0.));
#495=DIRECTION('',(0.,0.,-1.));
#496=DIRECTION('',(-1.,0.,0.));
#497=DIRECTION('',(0.,0.,1.));
#498=DIRECTION('',(1.,0.,0.));
#499=DIRECTION('',(0.,0.,1.));
#500=DIRECTION('',(1.,0.,0.));
#501=DIRECTION('',(0.,0.,-1.));
#502=DIRECTION('',(-1.,0.,0.));
#503=DIRECTION('',(0.,0.,1.));
#504=DIRECTION('',(1.,0.,0.));
#505=DIRECTION('',(0.,0.,1.));
#506=DIRECTION('',(1.,0.,0.));
#507=DIRECTION('',(0.,0.,-1.));
#508=DIRECTION('',(-1.,0.,0.));
#509=DIRECTION('',(0.,0.,1.));
#510=DIRECTION('',(1.,0.,0.));
#511=DIRECTION('',(0.,0.,1.));
#512=DIRECTION('',(1.,0.,0.));
#513=DIRECTION('',(0.,0.,-1.));
#514=DIRECTION('',(-1.,0.,0.));
#515=DIRECTION('',(0.,0.,1.));
#516=DIRECTION('',(1.,0.,0.));
#517=DIRECTION('',(0.,0.,1.));
#518=DIRECTION('',(1.,0.,0.));
#519=DIRECTION('',(0.,0.,-1.));
#520=DIRECTION('',(-1.,0.,0.));
#521=DIRECTION('',(0.,0.,1.));
#522=DIRECTION('',(1.,0.,0.));
#523=DIRECTION('',(0.,0.,1.));
#524=DIRECTION('',(1.,0.,0.));
#525=DIRECTION('',(0.,0.,-1.));
#526=DIRECTION('',(-1.,0.,0.));
#527=DIRECTION('',(0.,0.,1.));
#528=DIRECTION('',(1.,0.,0.));
#529=DIRECTION('',(0.,0.,1.));
#530=DIRECTION('',(1.,0.,0.));
#531=DIRECTION('',(0.,-1.,0.));
#532=DIRECTION('',(0.,0.,-1.));
#533=DIRECTION('',(-1.,0.,0.));
#534=DIRECTION('',(-1.,0.,0.));
#535=DIRECTION('',(-1.,0.,0.));
#536=DIRECTION('',(0.,0.,1.));
#537=DIRECTION('',(0.,1.,0.));
#538=DIRECTION('',(0.,1.,0.));
#539=DIRECTION('',(-1.,-1.89242561015651E-16,0.));
#540=DIRECTION('',(1.89242561015651E-16,-1.,0.));
#541=DIRECTION('',(-1.89242561015651E-16,1.,0.));
#542=DIRECTION('',(-1.89242561015651E-16,1.,0.));
#543=DIRECTION('',(0.,0.,1.));
#544=DIRECTION('',(1.,0.,0.));
#545=DIRECTION('',(0.,0.,1.));
#546=DIRECTION('',(1.,0.,0.));
#547=CARTESIAN_POINT('',(0.,0.,0.));
#548=CARTESIAN_POINT('',(-0.00879897408942787,-0.017991710232034,0.02));
#549=CARTESIAN_POINT('',(-0.00879897408942787,-0.017991710232034,0.016));
#550=CARTESIAN_POINT('',(-0.0104989740894279,-0.017991710232034,0.016));
#551=CARTESIAN_POINT('',(-0.00709897408942787,-0.017991710232034,0.016));
#552=CARTESIAN_POINT('',(-0.0104989740894279,-0.017991710232034,0.02));
#553=CARTESIAN_POINT('',(-0.0104989740894279,-0.017991710232034,0.02));
#554=CARTESIAN_POINT('',(-0.00879897408942787,-0.017991710232034,0.02));
#555=CARTESIAN_POINT('',(-0.00709897408942787,-0.017991710232034,0.02));
#556=CARTESIAN_POINT('',(-0.00709897408942787,-0.017991710232034,0.02));
#557=CARTESIAN_POINT('',(-0.0104989740894279,0.037008289767966,0.02));
#558=CARTESIAN_POINT('',(-0.0104989740894279,0.037008289767966,0.016));
#559=CARTESIAN_POINT('',(-0.0104989740894279,0.092008289767966,0.016));
#560=CARTESIAN_POINT('',(-0.0104989740894279,0.092008289767966,0.02));
#561=CARTESIAN_POINT('',(-0.0104989740894279,0.092008289767966,0.02));
#562=CARTESIAN_POINT('',(-0.0104989740894279,0.037008289767966,0.02));
#563=CARTESIAN_POINT('',(-0.00879897408942789,0.092008289767966,0.02));
#564=CARTESIAN_POINT('',(-0.00879897408942789,0.092008289767966,0.016));
#565=CARTESIAN_POINT('',(-0.00709897408942789,0.092008289767966,0.016));
#566=CARTESIAN_POINT('',(-0.00709897408942789,0.092008289767966,0.02));
#567=CARTESIAN_POINT('',(-0.00709897408942789,0.092008289767966,0.02));
#568=CARTESIAN_POINT('',(-0.00879897408942789,0.092008289767966,0.02));
#569=CARTESIAN_POINT('',(0.0185010259105721,0.037008289767966,0.02));
#570=CARTESIAN_POINT('',(0.0185010259105721,0.037008289767966,0.016));
#571=CARTESIAN_POINT('',(0.0185010259105721,-0.017991710232034,0.016));
#572=CARTESIAN_POINT('',(0.0185010259105721,0.092008289767966,0.016));
#573=CARTESIAN_POINT('',(0.0185010259105721,-0.017991710232034,0.02));
#574=CARTESIAN_POINT('',(0.0185010259105721,-0.017991710232034,0.02));
#575=CARTESIAN_POINT('',(0.0185010259105721,0.037008289767966,0.02));
#576=CARTESIAN_POINT('',(0.0185010259105721,0.092008289767966,0.02));
#577=CARTESIAN_POINT('',(0.0185010259105721,0.092008289767966,0.02));
#578=CARTESIAN_POINT('',(0.0168010259105721,-0.017991710232034,0.02));
#579=CARTESIAN_POINT('',(0.0168010259105721,-0.017991710232034,0.016));
#580=CARTESIAN_POINT('',(0.0151010259105721,-0.017991710232034,0.016));
#581=CARTESIAN_POINT('',(0.0151010259105721,-0.017991710232034,0.02));
#582=CARTESIAN_POINT('',(0.0151010259105721,-0.017991710232034,0.02));
#583=CARTESIAN_POINT('',(0.0168010259105721,-0.017991710232034,0.02));
#584=CARTESIAN_POINT('',(0.0151010259105721,0.037008289767966,0.02));
#585=CARTESIAN_POINT('',(0.0151010259105721,0.037008289767966,0.016));
#586=CARTESIAN_POINT('',(0.0151010259105721,0.092008289767966,0.016));
#587=CARTESIAN_POINT('',(0.0151010259105721,0.092008289767966,0.02));
#588=CARTESIAN_POINT('',(0.0151010259105721,0.092008289767966,0.02));
#589=CARTESIAN_POINT('',(0.0151010259105721,0.037008289767966,0.02));
#590=CARTESIAN_POINT('',(0.00950102591057213,0.124008289767966,0.02));
#591=CARTESIAN_POINT('',(0.00950102591057213,0.124008289767966,0.016));
#592=CARTESIAN_POINT('',(-0.0399989740894278,0.124008289767966,0.016));
#593=CARTESIAN_POINT('',(0.0590010259105721,0.124008289767966,0.016));
#594=CARTESIAN_POINT('',(-0.0399989740894278,0.124008289767966,0.02));
#595=CARTESIAN_POINT('',(-0.0399989740894278,0.124008289767966,0.02));
#596=CARTESIAN_POINT('',(0.00950102591057213,0.124008289767966,0.02));
#597=CARTESIAN_POINT('',(0.0590010259105721,0.124008289767966,0.02));
#598=CARTESIAN_POINT('',(0.0590010259105721,0.124008289767966,0.02));
#599=CARTESIAN_POINT('',(-0.0399989740894278,0.044508289767966,0.02));
#600=CARTESIAN_POINT('',(-0.0399989740894278,0.044508289767966,0.016));
#601=CARTESIAN_POINT('',(-0.0399989740894278,-0.034991710232034,0.016));
#602=CARTESIAN_POINT('',(-0.0399989740894278,-0.034991710232034,0.02));
#603=CARTESIAN_POINT('',(-0.0399989740894278,-0.034991710232034,0.02));
#604=CARTESIAN_POINT('',(-0.0399989740894278,0.044508289767966,0.02));
#605=CARTESIAN_POINT('',(0.00950102591057213,-0.034991710232034,0.02));
#606=CARTESIAN_POINT('',(0.00950102591057213,-0.034991710232034,0.016));
#607=CARTESIAN_POINT('',(0.0590010259105721,-0.034991710232034,0.016));
#608=CARTESIAN_POINT('',(0.0590010259105721,-0.034991710232034,0.02));
#609=CARTESIAN_POINT('',(0.0590010259105721,-0.034991710232034,0.02));
#610=CARTESIAN_POINT('',(0.00950102591057213,-0.034991710232034,0.02));
#611=CARTESIAN_POINT('',(0.0168010259105721,0.097758289767966,0.02));
#612=CARTESIAN_POINT('',(0.0168010259105721,0.097758289767966,0.02));
#613=CARTESIAN_POINT('',(0.0182010259105721,0.097758289767966,0.02));
#614=CARTESIAN_POINT('',(0.0168010259105721,0.097758289767966,0.016));
#615=CARTESIAN_POINT('',(0.0182010259105721,0.097758289767966,0.016));
#616=CARTESIAN_POINT('',(-0.00879897408942789,0.097758289767966,0.02));
#617=CARTESIAN_POINT('',(-0.00879897408942789,0.097758289767966,0.02));
#618=CARTESIAN_POINT('',(-0.00739897408942789,0.097758289767966,0.02));
#619=CARTESIAN_POINT('',(-0.00879897408942789,0.097758289767966,0.016));
#620=CARTESIAN_POINT('',(-0.00739897408942789,0.097758289767966,0.016));
#621=CARTESIAN_POINT('',(0.0168010259105721,-0.023741710232034,0.02));
#622=CARTESIAN_POINT('',(0.0168010259105721,-0.023741710232034,0.02));
#623=CARTESIAN_POINT('',(0.0182010259105721,-0.023741710232034,0.02));
#624=CARTESIAN_POINT('',(0.0168010259105721,-0.023741710232034,0.016));
#625=CARTESIAN_POINT('',(0.0182010259105721,-0.023741710232034,0.016));
#626=CARTESIAN_POINT('',(-0.00879897408942787,-0.023741710232034,0.02));
#627=CARTESIAN_POINT('',(-0.00879897408942787,-0.023741710232034,0.02));
#628=CARTESIAN_POINT('',(-0.00739897408942787,-0.023741710232034,0.02));
#629=CARTESIAN_POINT('',(-0.00879897408942787,-0.023741710232034,0.016));
#630=CARTESIAN_POINT('',(-0.00739897408942787,-0.023741710232034,0.016));
#631=CARTESIAN_POINT('',(0.0165010259105722,0.109308289767966,0.02));
#632=CARTESIAN_POINT('',(0.0165010259105722,0.109308289767966,0.02));
#633=CARTESIAN_POINT('',(0.0201010259105722,0.109308289767966,0.02));
#634=CARTESIAN_POINT('',(0.0165010259105722,0.109308289767966,0.016));
#635=CARTESIAN_POINT('',(0.0201010259105722,0.109308289767966,0.016));
#636=CARTESIAN_POINT('',(-0.00849897408942787,0.109308289767966,0.02));
#637=CARTESIAN_POINT('',(-0.00849897408942787,0.109308289767966,0.02));
#638=CARTESIAN_POINT('',(-0.00489897408942787,0.109308289767966,0.02));
#639=CARTESIAN_POINT('',(-0.00849897408942787,0.109308289767966,0.016));
#640=CARTESIAN_POINT('',(-0.00489897408942787,0.109308289767966,0.016));
#641=CARTESIAN_POINT('',(0.0168010259105721,0.092008289767966,0.02));
#642=CARTESIAN_POINT('',(0.0168010259105721,0.092008289767966,0.016));
#643=CARTESIAN_POINT('',(0.0168010259105721,0.092008289767966,0.02));
#644=CARTESIAN_POINT('',(0.0590010259105721,0.044508289767966,0.02));
#645=CARTESIAN_POINT('',(0.0590010259105721,0.044508289767966,0.016));
#646=CARTESIAN_POINT('',(0.0590010259105721,0.044508289767966,0.02));
#647=CARTESIAN_POINT('',(-0.00709897408942788,0.037008289767966,0.02));
#648=CARTESIAN_POINT('',(-0.00709897408942788,0.037008289767966,0.016));
#649=CARTESIAN_POINT('',(-0.00709897408942788,0.037008289767966,0.02));
#650=CARTESIAN_POINT('',(0.00950102591057213,0.044508289767966,0.02));
#651=CARTESIAN_POINT('',(0.00950102591057213,0.044508289767966,0.016));
#652=MECHANICAL_DESIGN_GEOMETRIC_PRESENTATION_REPRESENTATION('',(#401),#653);
#653=(
GEOMETRIC_REPRESENTATION_CONTEXT(3)
GLOBAL_UNCERTAINTY_ASSIGNED_CONTEXT((#654))
GLOBAL_UNIT_ASSIGNED_CONTEXT((#657,#656,#655))
REPRESENTATION_CONTEXT('Part 2','TOP_LEVEL_ASSEMBLY_PART')
);
#654=UNCERTAINTY_MEASURE_WITH_UNIT(LENGTH_MEASURE(1.E-08),#657,'DISTANCE_ACCURACY_VALUE','Maximum Tolerance applied to model');
#655=(
NAMED_UNIT(*)
SI_UNIT($,.STERADIAN.)
SOLID_ANGLE_UNIT()
);
#656=(
NAMED_UNIT(*)
PLANE_ANGLE_UNIT()
SI_UNIT($,.RADIAN.)
);
#657=(
LENGTH_UNIT()
NAMED_UNIT(*)
SI_UNIT($,.METRE.)
);
#658=PRODUCT_DEFINITION_SHAPE('','',#659);
#659=PRODUCT_DEFINITION('','',#661,#660);
#660=PRODUCT_DEFINITION_CONTEXT('',#667,'design');
#661=PRODUCT_DEFINITION_FORMATION_WITH_SPECIFIED_SOURCE('','',#663,.NOT_KNOWN.);
#662=PRODUCT_RELATED_PRODUCT_CATEGORY('','',(#663));
#663=PRODUCT('Part 2','Part 2','Part 2',(#665));
#664=PRODUCT_CATEGORY('','');
#665=PRODUCT_CONTEXT('',#667,'mechanical');
#666=APPLICATION_PROTOCOL_DEFINITION('international standard','ap242_managed_model_based_3d_engineering',2020,#667);
#667=APPLICATION_CONTEXT('managed model based 3d engineering');
ENDSEC;
END-ISO-10303-21;
